SplineFontDB: 3.2
FontName: msbarocci102
FullName: MS. Barocci 102
FamilyName: MS. Barocci 102
Weight: Regular
Copyright: Konstantina Eleftheriadi
Version: 5
ItalicAngle: 0
UnderlinePosition: 0
UnderlineWidth: 0
Ascent: 800
Descent: 200
InvalidEm: 0
LayerCount: 2
Layer: 0 0 "Back" 1
Layer: 1 0 "Fore" 0
HasVMetrics: 1
XUID: [1021 757 -1823054581 17447]
FSType: 0
OS2Version: 0
OS2_WeightWidthSlopeOnly: 0
OS2_UseTypoMetrics: 0
CreationTime: 1721766056
ModificationTime: 1722249452
PfmFamily: 17
TTFWeight: 400
TTFWidth: 5
LineGap: 90
VLineGap: 90
OS2TypoAscent: 0
OS2TypoAOffset: 1
OS2TypoDescent: 0
OS2TypoDOffset: 1
OS2TypoLinegap: 90
OS2WinAscent: 0
OS2WinAOffset: 1
OS2WinDescent: 0
OS2WinDOffset: 1
HheadAscent: 0
HheadAOffset: 1
HheadDescent: 0
HheadDOffset: 1
OS2Vendor: 'PfEd'
Lookup: 4 0 1 "'liga' +A5oDvwO5A70DrAAA +A8ADvwO7A7sDsQPAA7sDrAAA +A8MDxAO/A7kDxwO1A68DsQAA lookup 0" { "'liga' +A5oDvwO5A70DrAAA +A8ADvwO7A7sDsQPAA7sDrAAA +A8MDxAO/A7kDxwO1A68DsQAA lookup 0 subtable"  } ['liga' ('DFLT' <'dflt' > ) ]
Lookup: 4 0 1 "msbarocci102-msbarocci102-<1,2> Common Ligatures lookup 0" { "msbarocci102-msbarocci102-<1,2> Common Ligatures lookup 0 subtable"  } [<1,2> ('DFLT' <'dflt' > ) ]
Lookup: 260 0 0 "'mark' Mark Positioning in +A5UDuwO7A7cDvQO5A7oDrgAA lookup 0" { "'mark' Mark Positioning in +A5UDuwO7A7cDvQO5A7oDrgAA lookup 0-1"  } ['mark' ('DFLT' <'dflt' > 'grek' <'dflt' > ) ]
MarkAttachClasses: 1
DEI: 91125
LangName: 1032 "" "" "MS. Barocci 102"
LangName: 1033
Encoding: Custom
UnicodeInterp: none
NameList: AGL with PUA
DisplaySize: -48
AntiAlias: 1
FitToEm: 0
WinInfo: 0 38 13
BeginPrivate: 0
EndPrivate
TeXData: 1 0 0 346030 173015 115343 453558 1048576 115343 783286 444596 497025 792723 393216 433062 380633 303038 157286 324010 404750 52429 2506097 1059062 262144
AnchorClass2: "topbreating" "'mark' Mark Positioning in +A5UDuwO7A7cDvQO5A7oDrgAA lookup 0-1" "topaccent" "'mark' Mark Positioning in +A5UDuwO7A7cDvQO5A7oDrgAA lookup 0-1"
BeginChars: 85 85

StartChar: uni0000
Encoding: 0 0 0
Width: 1000
VWidth: 924
LayerCount: 2
Fore
SplineSet
0 -100 m 1
 1000 -100 l 1
 1000 900 l 1
 0 900 l 1
 0 -100 l 1
EndSplineSet
EndChar

StartChar: uniE04B
Encoding: 1 57419 1
Width: 1000
VWidth: 924
HStem: 9.46582 37.582<761.232 798.806> 22.9932 37.583<696.219 733.772 826.642 864.188> 59.4482 37.5889<640.587 678.16 882.254 919.828> 115.826 37.582<603.374 640.953 919.461 957.034> 180.846 37.5889<589.846 627.418 932.988 970.562> 245.865 37.5898<603.374 640.953 919.461 957.034> 301.867 37.5889<640.6 678.16 882.254 919.828> 339.08 37.583<696.206 733.786 826.628 864.202> 352.232 37.583<761.232 798.806>
VStem: 14.999 68.4141<-182.446 -117.144> 589.841 37.583<180.864 218.416> 603.369 37.5889<115.831 153.404 245.884 283.451> 640.582 37.583<59.4527 97.0324 301.872 339.451> 696.201 37.5898<22.9979 60.5714 339.085 376.658> 761.228 37.583<9.4705 47.0434 352.237 389.811> 826.623 37.583<23.0108 60.5571 339.098 376.644> 882.249 37.583<59.4662 97.0184 301.886 339.438> 919.456 37.583<115.831 153.404 245.87 283.451> 932.983 37.583<180.864 218.416>
LayerCount: 2
Fore
SplineSet
780.015625 389.815429688 m 4x1cc7
 767.48828125 389.815429688 761.227539062 383.6796875 761.227539062 371.40234375 c 4
 761.227539062 358.624023438 767.48828125 352.232421875 780.015625 352.232421875 c 4
 792.543945312 352.232421875 798.810546875 358.624023438 798.810546875 371.40234375 c 4
 798.810546875 383.6796875 792.543945312 389.815429688 780.015625 389.815429688 c 4x1cc7
714.620117188 376.663085938 m 4x1d47
 702.342773438 376.663085938 696.201171875 370.271484375 696.201171875 357.493164062 c 4
 696.201171875 345.215820312 702.342773438 339.080078125 714.620117188 339.080078125 c 4
 727.399414062 339.080078125 733.791015625 345.215820312 733.791015625 357.493164062 c 4
 733.791015625 370.271484375 727.399414062 376.663085938 714.620117188 376.663085938 c 4x1d47
846.163085938 376.663085938 m 4
 833.133789062 376.663085938 826.623046875 370.271484375 826.623046875 357.493164062 c 4
 826.623046875 345.215820312 833.133789062 339.080078125 846.163085938 339.080078125 c 4
 858.190429688 339.080078125 864.206054688 345.215820312 864.206054688 357.493164062 c 4
 864.206054688 370.271484375 858.190429688 376.663085938 846.163085938 376.663085938 c 4
659.370117188 339.456054688 m 4x1e4f
 646.842773438 339.456054688 640.58203125 332.814453125 640.58203125 319.534179688 c 4
 640.58203125 307.7578125 646.842773438 301.8671875 659.370117188 301.8671875 c 4
 671.8984375 301.8671875 678.165039062 308.133789062 678.165039062 320.662109375 c 4
 678.165039062 333.189453125 671.8984375 339.456054688 659.370117188 339.456054688 c 4x1e4f
901.7890625 339.456054688 m 4
 888.759765625 339.456054688 882.249023438 333.189453125 882.249023438 320.662109375 c 4
 882.249023438 308.133789062 888.759765625 301.8671875 901.7890625 301.8671875 c 4
 913.81640625 301.8671875 919.83203125 308.133789062 919.83203125 320.662109375 c 4x1e4780
 919.83203125 333.189453125 913.81640625 339.456054688 901.7890625 339.456054688 c 4
301.104492188 308.908203125 m 5
 260.67578125 296.470703125 l 5
 229.580078125 280.922851562 l 5
 195.366210938 249.8203125 l 5
 164.270507812 215.61328125 l 5
 130.063476562 172.07421875 l 5
 102.071289062 116.096679688 l 5
 77.19140625 63.23046875 l 5
 52.31640625 13.4755859375 l 5
 33.6572265625 -36.28515625 l 5
 27.435546875 -76.71484375 l 5
 14.9990234375 -117.143554688 l 5
 14.9990234375 -182.446289062 l 5
 36.7685546875 -219.764648438 l 5
 70.9755859375 -266.415039062 l 5
 130.063476562 -285.07421875 l 5
 204.69921875 -294.400390625 l 5
 270.001953125 -281.962890625 l 5
 335.311523438 -253.977539062 l 5
 372.629882812 -229.096679688 l 5
 425.49609375 -194.889648438 l 5
 462.813476562 -163.787109375 l 5
 497.02734375 -126.469726562 l 5
 534.344726562 -86.041015625 l 5
 568.551757812 -54.9443359375 l 5
 584.099609375 -30.0634765625 l 5
 618.306640625 16.580078125 l 5
 638.444335938 68.5712890625 l 5
 594.344726562 76.7705078125 l 5
 603.291015625 69.154296875 561.418945312 30.65625 542.759765625 11.9970703125 c 5
 521.901367188 -20.7373046875 l 5
 453.487304688 -101.588867188 l 5
 403.732421875 -142.017578125 l 5
 316.653320312 -197.994140625 l 5
 254.454101562 -219.764648438 l 5
 161.159179688 -229.096679688 l 5
 120.73046875 -216.66015625 l 5
 92.7451171875 -197.994140625 l 5
 83.4130859375 -163.787109375 l 5
 83.4130859375 -117.143554688 l 5
 105.182617188 -73.603515625 l 5
 123.841796875 -45.6123046875 l 5
 139.389648438 -23.841796875 l 5
 164.270507812 7.25390625 l 5
 192.255859375 38.3505859375 l 5
 229.580078125 16.580078125 l 5
 285.556640625 13.4755859375 l 5
 329.08984375 22.8017578125 l 5
 366.408203125 35.2392578125 l 5
 397.510742188 50.7939453125 l 5
 425.49609375 75.66796875 l 5
 453.487304688 103.659179688 l 5
 462.813476562 153.415039062 l 5
 465.924804688 190.732421875 l 5
 453.487304688 234.272460938 l 5
 413.05859375 280.922851562 l 5
 357.08203125 305.796875 l 5
 301.104492188 308.908203125 l 5
622.163085938 283.455078125 m 4
 609.635742188 283.455078125 603.369140625 277.313476562 603.369140625 265.036132812 c 4
 603.369140625 252.256835938 609.885742188 245.865234375 622.915039062 245.865234375 c 4
 634.94140625 245.865234375 640.958007812 252.256835938 640.958007812 265.036132812 c 4x1c57
 640.958007812 277.313476562 634.69140625 283.455078125 622.163085938 283.455078125 c 4
938.620117188 283.455078125 m 4
 925.841796875 283.455078125 919.456054688 277.313476562 919.456054688 265.036132812 c 4
 919.456054688 252.256835938 925.590820312 245.865234375 937.869140625 245.865234375 c 4
 950.647460938 245.865234375 957.0390625 252.256835938 957.0390625 265.036132812 c 4x1c4740
 957.0390625 277.313476562 950.897460938 283.455078125 938.620117188 283.455078125 c 4
336.31640625 233.693359375 m 5
 357.205078125 232.596679688 l 5
 375.900390625 222.697265625 l 5
 386.890625 189.716796875 l 5
 382.4921875 171.020507812 l 5
 368.200195312 142.4375 l 5
 337.412109375 116.047851562 l 5
 297.833984375 100.653320312 l 5
 264.846679688 90.7607421875 l 5
 250.5546875 87.458984375 l 5
 235.161132812 96.2548828125 l 5
 227.466796875 109.450195312 l 5
 219.766601562 120.446289062 l 5
 219.766601562 138.0390625 l 5
 228.563476562 158.927734375 l 5
 230.762695312 165.525390625 l 5
 248.35546875 182.016601562 l 6
 261.1171875 196.040039062 273.930664062 207.766601562 285.741210938 223.799804688 c 5
 298.930664062 229.294921875 l 5
 323.12109375 232.596679688 l 5
 336.31640625 233.693359375 l 5
609.387695312 218.434570312 m 4
 596.358398438 218.434570312 589.840820312 212.16796875 589.840820312 199.640625 c 4
 589.840820312 187.112304688 596.358398438 180.845703125 609.387695312 180.845703125 c 4
 621.665039062 180.845703125 627.674804688 187.112304688 627.423828125 199.640625 c 4x1c67
 627.674804688 212.16796875 621.665039062 218.434570312 609.387695312 218.434570312 c 4
952.530273438 218.434570312 m 4
 939.500976562 218.434570312 932.983398438 212.16796875 932.983398438 199.640625 c 4
 932.983398438 187.112304688 939.500976562 180.845703125 952.530273438 180.845703125 c 4
 964.556640625 180.845703125 970.56640625 187.112304688 970.56640625 199.640625 c 4x1c4720
 970.56640625 212.16796875 964.556640625 218.434570312 952.530273438 218.434570312 c 4
622.163085938 153.408203125 m 4
 609.635742188 153.408203125 603.369140625 147.0234375 603.369140625 134.244140625 c 4
 603.369140625 121.966796875 609.635742188 115.826171875 622.163085938 115.826171875 c 4
 634.69140625 115.826171875 640.958007812 121.966796875 640.958007812 134.244140625 c 4x1c57
 640.958007812 147.0234375 634.69140625 153.408203125 622.163085938 153.408203125 c 4
937.869140625 153.408203125 m 4
 925.590820312 153.408203125 919.456054688 147.0234375 919.456054688 134.244140625 c 4
 919.456054688 121.966796875 925.590820312 115.826171875 937.869140625 115.826171875 c 4
 950.647460938 115.826171875 957.0390625 121.966796875 957.0390625 134.244140625 c 4x1c4740
 957.0390625 147.0234375 950.647460938 153.408203125 937.869140625 153.408203125 c 4
659.370117188 97.037109375 m 4x3c4f
 646.842773438 97.037109375 640.58203125 90.6455078125 640.58203125 77.8671875 c 4
 640.58203125 65.58984375 646.842773438 59.4482421875 659.370117188 59.4482421875 c 4
 671.8984375 59.4482421875 678.165039062 65.58984375 678.165039062 77.8671875 c 4
 678.165039062 90.6455078125 671.8984375 97.037109375 659.370117188 97.037109375 c 4x3c4f
901.7890625 97.037109375 m 4
 888.759765625 97.037109375 882.249023438 90.6455078125 882.249023438 77.8671875 c 4
 882.249023438 65.58984375 888.759765625 59.4482421875 901.7890625 59.4482421875 c 4
 913.81640625 59.4482421875 919.83203125 65.58984375 919.83203125 77.8671875 c 4x3c4780
 919.83203125 90.6455078125 913.81640625 97.037109375 901.7890625 97.037109375 c 4
714.620117188 60.576171875 m 4x5c47
 702.342773438 60.576171875 696.201171875 54.0654296875 696.201171875 41.0361328125 c 4
 696.201171875 29.0087890625 702.342773438 22.9931640625 714.620117188 22.9931640625 c 4
 727.399414062 22.9931640625 733.791015625 29.509765625 733.791015625 42.5390625 c 4
 733.791015625 54.56640625 727.399414062 60.576171875 714.620117188 60.576171875 c 4x5c47
846.163085938 60.576171875 m 4
 833.133789062 60.576171875 826.623046875 54.0654296875 826.623046875 41.0361328125 c 4
 826.623046875 29.0087890625 833.133789062 22.9931640625 846.163085938 22.9931640625 c 4
 858.190429688 22.9931640625 864.206054688 29.0087890625 864.206054688 41.0361328125 c 4
 864.206054688 54.0654296875 858.190429688 60.576171875 846.163085938 60.576171875 c 4
780.015625 47.0478515625 m 4x9c47
 767.48828125 47.0478515625 761.227539062 40.9072265625 761.227539062 28.6298828125 c 4
 761.227539062 15.8505859375 767.48828125 9.4658203125 780.015625 9.4658203125 c 4
 792.543945312 9.4658203125 798.810546875 15.8505859375 798.810546875 28.6298828125 c 4
 798.810546875 40.9072265625 792.543945312 47.0478515625 780.015625 47.0478515625 c 4x9c47
EndSplineSet
EndChar

StartChar: uniE069
Encoding: 2 57449 2
Width: 880
VWidth: 924
Flags: W
VStem: 11.1885 66.584<-94.749 -31.1953>
LayerCount: 2
Fore
SplineSet
289.6328125 383.44921875 m 1
 250.288085938 371.348632812 l 1
 220.0234375 356.216796875 l 1
 186.728515625 325.946289062 l 1
 156.463867188 292.651367188 l 1
 123.168945312 250.280273438 l 1
 95.9296875 195.802734375 l 1
 71.716796875 144.350585938 l 1
 47.5087890625 95.9287109375 l 1
 29.345703125 47.4951171875 l 1
 23.2890625 8.1494140625 l 1
 11.1884765625 -31.1953125 l 1
 11.1884765625 -94.7490234375 l 1
 32.376953125 -131.069335938 l 1
 65.666015625 -176.471679688 l 1
 123.168945312 -194.62890625 l 1
 195.809570312 -203.7109375 l 1
 259.36328125 -191.603515625 l 1
 322.928710938 -164.365234375 l 1
 359.243164062 -140.151367188 l 1
 410.6953125 -106.862304688 l 1
 447.015625 -76.591796875 l 1
 480.311523438 -40.271484375 l 1
 503.712890625 -14.923828125 l 1
 518.274414062 -3.787109375 l 1
 556.529296875 17.6376953125 l 1
 576.426757812 32.939453125 l 1
 588.666015625 48.2412109375 l 1
 611.619140625 75.7890625 l 1
 610.091796875 54.3642578125 l 1
 620.803710938 34.4736328125 l 1
 645.290039062 14.576171875 l 1
 660.591796875 5.3974609375 l 1
 678.955078125 -6.8486328125 l 1
 703.44140625 -12.9658203125 l 1
 726.39453125 -16.02734375 l 1
 755.470703125 -19.0888671875 l 1
 802.909179688 -14.5 l 1
 830.451171875 -8.376953125 l 1
 862.588867188 3.86328125 l 1
 884.013671875 13.048828125 l 1
 891.6640625 29.8779296875 l 1
 891.6640625 51.302734375 l 1
 880.952148438 66.6103515625 l 1
 867.184570312 74.26171875 l 1
 848.814453125 74.26171875 l 1
 830.451171875 68.138671875 l 1
 815.149414062 68.138671875 l 1
 783.012695312 62.015625 l 1
 746.28515625 55.8984375 l 1
 723.333007812 62.015625 l 1
 708.03125 74.26171875 l 1
 692.729492188 88.029296875 l 1
 688.133789062 115.577148438 l 1
 686.606445312 143.119140625 l 1
 689.66796875 166.078125 l 1
 700.379882812 187.502929688 l 1
 715.681640625 211.983398438 l 1
 737.107421875 264.017578125 l 1
 744.7578125 280.84765625 l 1
 752.409179688 314.512695312 l 1
 753.936523438 349.711914062 l 1
 744.7578125 369.608398438 l 1
 724.8671875 378.787109375 l 1
 709.55859375 377.259765625 l 1
 683.544921875 368.075195312 l 1
 668.243164062 338.999023438 l 1
 649.879882812 293.09375 l 1
 634.578125 247.182617188 l 1
 593.255859375 185.969726562 l 1
 577.245117188 151.946289062 l 1
 576.098632812 154.83203125 l 1
 576.606445312 143.594726562 541.3828125 111.046875 524.822265625 94.486328125 c 1
 504.518554688 62.6279296875 l 1
 437.940429688 -16.0576171875 l 1
 389.512695312 -55.4033203125 l 1
 304.765625 -109.880859375 l 1
 244.231445312 -131.069335938 l 1
 153.432617188 -140.151367188 l 1
 114.086914062 -128.05078125 l 1
 86.8544921875 -109.880859375 l 1
 77.7724609375 -76.591796875 l 1
 77.7724609375 -31.1953125 l 1
 98.955078125 11.1806640625 l 1
 117.118164062 38.419921875 l 1
 132.250976562 59.6083984375 l 1
 156.463867188 89.8720703125 l 1
 183.697265625 120.13671875 l 1
 220.0234375 98.9482421875 l 1
 274.500976562 95.9287109375 l 1
 316.872070312 105.004882812 l 1
 353.192382812 117.10546875 l 1
 383.45703125 132.243164062 l 1
 410.6953125 156.45703125 l 1
 437.940429688 183.696289062 l 1
 447.015625 232.1171875 l 1
 450.041015625 268.4375 l 1
 437.940429688 310.814453125 l 1
 398.588867188 356.216796875 l 1
 344.111328125 380.423828125 l 1
 289.6328125 383.44921875 l 1
576.098632812 154.83203125 m 1
 576.049804688 155.916992188 575.791992188 156.876953125 575.025390625 157.530273438 c 1
 576.098632812 154.83203125 l 1
323.904296875 310.250976562 m 1
 344.232421875 309.18359375 l 1
 362.42578125 299.55078125 l 1
 373.125976562 267.44921875 l 1
 368.845703125 249.255859375 l 1
 354.932617188 221.434570312 l 1
 324.971679688 195.75390625 l 1
 286.450195312 180.767578125 l 1
 254.349609375 171.140625 l 1
 240.436523438 167.927734375 l 1
 225.456054688 176.487304688 l 1
 217.96875 189.333984375 l 1
 210.475585938 200.034179688 l 1
 210.475585938 217.155273438 l 1
 219.03515625 237.482421875 l 1
 221.17578125 243.908203125 l 1
 238.295898438 259.956054688 l 2
 250.715820312 273.604492188 263.188476562 285.01953125 274.68359375 300.623046875 c 1
 287.517578125 305.970703125 l 1
 311.064453125 309.18359375 l 1
 323.904296875 310.250976562 l 1
EndSplineSet
Ligature2: "'liga' +A5oDvwO5A70DrAAA +A8ADvwO7A7sDsQPAA7sDrAAA +A8MDxAO/A7kDxwO1A68DsQAA lookup 0 subtable" uniE04B iota
EndChar

StartChar: anoteleia
Encoding: 3 903 3
Width: 175
VWidth: 924
Flags: W
LayerCount: 2
Fore
SplineSet
70.744140625 436.298828125 m 1
 51.2353515625 425.969726562 l 1
 44.349609375 411.05078125 l 1
 43.2021484375 404.166015625 l 1
 47.79296875 392.689453125 l 1
 52.3828125 377.770507812 l 1
 56.9736328125 372.033203125 l 1
 74.1875 364 l 1
 99.4345703125 354.819335938 l 1
 112.057617188 355.966796875 l 1
 132.71484375 361.705078125 l 1
 143.04296875 372.033203125 l 1
 143.04296875 388.099609375 l 1
 144.190429688 404.166015625 l 1
 130.419921875 424.822265625 l 1
 118.943359375 444.331054688 l 1
 99.4345703125 446.626953125 l 1
 83.3681640625 446.626953125 l 1
 70.744140625 436.298828125 l 1
EndSplineSet
EndChar

StartChar: uniE06A
Encoding: 4 57450 4
Width: 818
VWidth: 924
Flags: W
VStem: 5.32129 63.7656<-166.387 -105.525>
LayerCount: 2
Fore
SplineSet
271.97265625 291.561523438 m 1
 234.294921875 279.97265625 l 1
 205.310546875 265.48046875 l 1
 173.42578125 236.4921875 l 1
 144.444335938 204.607421875 l 1
 112.559570312 164.030273438 l 1
 86.4755859375 111.860351562 l 1
 63.287109375 62.5869140625 l 1
 40.1015625 16.2177734375 l 1
 22.708984375 -30.1669921875 l 1
 16.9091796875 -67.84375 l 1
 5.3212890625 -105.525390625 l 1
 5.3212890625 -166.38671875 l 1
 25.61328125 -201.16796875 l 1
 57.490234375 -244.649414062 l 1
 112.559570312 -262.038085938 l 1
 182.122070312 -270.734375 l 1
 242.984375 -259.137695312 l 1
 303.857421875 -233.052734375 l 1
 338.634765625 -209.864257812 l 1
 387.908203125 -177.987304688 l 1
 422.688476562 -148.999023438 l 1
 454.577148438 -114.217773438 l 1
 470.184570312 -97.306640625 l 1
 491.358398438 -81.4873046875 l 1
 507.598632812 -60.5107421875 l 1
 532.630859375 -36.8271484375 l 1
 542.104492188 -21.9443359375 l 1
 561.05078125 -5.705078125 l 1
 578.643554688 6.4755859375 l 1
 598.940429688 10.53515625 l 1
 620.59375 7.828125 l 1
 646.302734375 9.181640625 l 1
 659.8359375 7.828125 l 1
 684.196289062 7.828125 l 1
 705.845703125 6.4755859375 l 1
 732.912109375 7.828125 l 1
 754.561523438 15.9482421875 l 1
 766.7421875 22.7109375 l 1
 776.21484375 29.478515625 l 1
 784.334960938 51.130859375 l 1
 788.395507812 64.6650390625 l 1
 793.80859375 84.9609375 l 1
 799.217773438 118.793945312 l 1
 797.864257812 140.443359375 l 1
 793.80859375 164.803710938 l 1
 788.395507812 197.279296875 l 1
 777.568359375 212.166015625 l 1
 761.328125 233.819335938 l 1
 727.499023438 247.348632812 l 1
 686.903320312 244.642578125 l 1
 647.65625 237.875976562 l 1
 612.473632812 229.759765625 l 1
 567.817382812 201.33984375 l 1
 548.87109375 176.983398438 l 1
 538.043945312 141.796875 l 1
 532.630859375 112.02734375 l 1
 543.45703125 74.1337890625 l 1
 538.043945312 53.837890625 l 1
 496.659179688 6.7060546875 l 1
 477.758789062 -15.6748046875 l 1
 414 -91.029296875 l 1
 367.623046875 -128.706054688 l 1
 286.46484375 -180.879882812 l 1
 228.495117188 -201.16796875 l 1
 141.541015625 -209.864257812 l 1
 103.860351562 -198.275390625 l 1
 77.783203125 -180.879882812 l 1
 69.0869140625 -148.999023438 l 1
 69.0869140625 -105.525390625 l 1
 89.37109375 -64.9443359375 l 1
 106.763671875 -38.85546875 l 1
 121.255859375 -18.5673828125 l 1
 144.444335938 10.41796875 l 1
 170.521484375 39.3984375 l 1
 205.310546875 19.1064453125 l 1
 257.484375 16.2177734375 l 1
 298.057617188 24.90625 l 1
 332.841796875 36.4951171875 l 1
 361.823242188 50.9912109375 l 1
 387.908203125 74.1796875 l 1
 414 100.264648438 l 1
 422.688476562 146.637695312 l 1
 425.588867188 181.418945312 l 1
 414 222 l 1
 376.315429688 265.48046875 l 1
 324.141601562 288.662109375 l 1
 271.97265625 291.561523438 l 1
304.793945312 221.461914062 m 1
 324.259765625 220.4375 l 1
 341.682617188 211.21484375 l 1
 351.928710938 180.470703125 l 1
 347.831054688 163.048828125 l 1
 334.505859375 136.40625 l 1
 305.813476562 111.815429688 l 1
 268.924804688 97.462890625 l 1
 238.184570312 88.244140625 l 1
 224.860351562 85.1650390625 l 1
 210.51171875 93.361328125 l 1
 203.342773438 105.666015625 l 1
 196.166992188 115.913085938 l 1
 196.166992188 132.30859375 l 1
 204.366210938 151.774414062 l 1
 206.4140625 157.926757812 l 1
 222.80859375 173.294921875 l 2
 234.703125 186.365234375 246.646484375 197.298828125 257.654296875 212.2421875 c 1
 269.948242188 217.36328125 l 1
 292.49609375 220.4375 l 1
 304.793945312 221.461914062 l 1
675.993164062 172.513671875 m 1
 693.21484375 171.55859375 l 1
 699.673828125 169.405273438 l 1
 705.65625 162.229492188 l 1
 708.047851562 152.418945312 l 1
 708.764648438 140.219726562 l 1
 710.201171875 133.999023438 l 1
 711.395507812 122.278320312 l 1
 712.116210938 116.538085938 l 1
 711.395507812 109.120117188 l 1
 711.15625 102.6640625 l 1
 709.00390625 95.0068359375 l 1
 705.89453125 91.8984375 l 1
 694.890625 86.6328125 l 1
 686.0390625 86.3935546875 l 1
 672.1640625 88.30859375 l 1
 658.767578125 90.7001953125 l 1
 648.959960938 92.6142578125 l 1
 634.126953125 95.2451171875 l 1
 628.625976562 95.9658203125 l 1
 624.3203125 100.029296875 l 1
 622.405273438 106.01171875 l 1
 624.55859375 116.056640625 l 1
 625.279296875 127.782226562 l 1
 624.55859375 133.999023438 l 1
 629.58203125 142.134765625 l 1
 637.239257812 150.026367188 l 1
 643.216796875 155.291992188 l 1
 651.590820312 161.748046875 l 1
 656.852539062 167.013671875 l 1
 665.2265625 172.036132812 l 1
 675.993164062 172.513671875 l 1
EndSplineSet
Ligature2: "'liga' +A5oDvwO5A70DrAAA +A8ADvwO7A7sDsQPAA7sDrAAA +A8MDxAO/A7kDxwO1A68DsQAA lookup 0 subtable" uniE04B omicron
EndChar

StartChar: uni0313
Encoding: 5 787 5
Width: 253
VWidth: 924
Flags: W
HStem: 517.701 105.623
VStem: 68.9023 107.616
AnchorPoint: "topbreating" 139 562 mark 0
LayerCount: 2
Fore
SplineSet
83.283203125 549.629882812 m 1
 93.7822265625 556.677734375 l 1
 116.606445312 571.77734375 l 1
 98.0146484375 590.411132812 l 1
 97.0078125 609.107421875 l 1
 112.74609375 617.345703125 l 1
 128.688476562 623.32421875 l 1
 150.610351562 621.33203125 l 1
 166.553710938 601.403320312 l 1
 176.518554688 575.495117188 l 1
 176.518554688 557.559570312 l 1
 162.568359375 533.64453125 l 1
 128.688476562 517.701171875 l 1
 108.759765625 515.708984375 l 1
 86.837890625 517.701171875 l 1
 68.90234375 525.672851562 l 1
 68.90234375 547.594726562 l 1
 83.283203125 549.629882812 l 1
EndSplineSet
EndChar

StartChar: uni0314
Encoding: 6 788 6
Width: 237
VWidth: 924
Flags: W
AnchorPoint: "topbreating" 110 545 mark 0
LayerCount: 2
Fore
SplineSet
162.137695312 549.629882812 m 1
 151.638671875 556.677734375 l 1
 128.814453125 571.77734375 l 1
 147.40625 590.411132812 l 1
 148.413085938 609.107421875 l 1
 132.674804688 617.345703125 l 1
 116.731445312 623.32421875 l 1
 94.8095703125 621.33203125 l 1
 78.8671875 601.403320312 l 1
 68.90234375 575.495117188 l 1
 68.90234375 557.559570312 l 1
 82.8525390625 533.64453125 l 1
 116.731445312 517.701171875 l 1
 136.66015625 515.708984375 l 1
 158.58203125 517.701171875 l 1
 176.518554688 525.672851562 l 1
 176.518554688 547.594726562 l 1
 162.137695312 549.629882812 l 1
EndSplineSet
EndChar

StartChar: acutecomb
Encoding: 7 769 7
Width: 352
VWidth: 924
Flags: W
AnchorPoint: "topaccent" 161 575 mark 0
LayerCount: 2
Fore
SplineSet
95.509765625 516.3828125 m 1
 141.03515625 536.176757812 l 1
 222.188476562 599.516601562 l 1
 265.734375 635.14453125 l 1
 265.734375 650.979492188 l 1
 240.002929688 660.876953125 l 1
 224.16796875 658.897460938 l 1
 162.807617188 607.43359375 l 1
 117.282226562 581.702148438 l 1
 85.6123046875 559.928710938 l 1
 69.77734375 540.135742188 l 1
 61.8603515625 526.280273438 l 1
 65.8193359375 510.4453125 l 1
 81.654296875 504.506835938 l 1
 95.509765625 516.3828125 l 1
EndSplineSet
LCarets2: 5 0 0 0 0 0
Ligature2: "'liga' +A5oDvwO5A70DrAAA +A8ADvwO7A7sDsQPAA7sDrAAA +A8MDxAO/A7kDxwO1A68DsQAA lookup 0 subtable" A
EndChar

StartChar: gravecomb
Encoding: 8 768 8
Width: 318
VWidth: 924
Flags: W
HStem: 499.98 156.369
VStem: 60.0293 203.874
AnchorPoint: "topaccent" 154 581 mark 0
LayerCount: 2
Fore
SplineSet
93.677734375 644.473632812 m 1
 139.203125 624.6796875 l 1
 220.357421875 561.340820312 l 1
 263.903320312 525.711914062 l 1
 263.903320312 509.876953125 l 1
 238.171875 499.98046875 l 1
 222.336914062 501.958984375 l 1
 160.9765625 553.422851562 l 1
 115.451171875 579.154296875 l 1
 83.78125 600.927734375 l 1
 67.9462890625 620.721679688 l 1
 60.029296875 634.577148438 l 1
 63.9873046875 650.412109375 l 1
 79.822265625 656.349609375 l 1
 93.677734375 644.473632812 l 1
EndSplineSet
EndChar

StartChar: tildecomb
Encoding: 9 771 9
Width: 333
VWidth: 924
Flags: W
AnchorPoint: "topaccent" 187 536 mark 0
LayerCount: 2
Fore
SplineSet
104.982421875 535.34765625 m 1
 111.650390625 558.686523438 l 1
 124.986328125 568.688476562 l 1
 128.3203125 572.022460938 l 1
 143.32421875 578.690429688 l 1
 166.663085938 578.690429688 l 1
 190.000976562 575.356445312 l 1
 203.337890625 567.021484375 l 1
 213.33984375 553.684570312 l 1
 225.009765625 542.015625 l 1
 236.678710938 530.346679688 l 1
 250.014648438 518.676757812 l 1
 265.018554688 515.342773438 l 1
 278.354492188 520.34375 l 1
 283.356445312 535.34765625 l 1
 280.021484375 570.35546875 l 1
 266.685546875 587.025390625 l 1
 246.680664062 610.364257812 l 1
 226.676757812 622.034179688 l 1
 201.670898438 630.369140625 l 1
 185 628.702148438 l 1
 156.66015625 628.702148438 l 1
 129.987304688 628.702148438 l 1
 116.651367188 623.701171875 l 1
 99.98046875 617.033203125 l 1
 81.6435546875 605.36328125 l 1
 69.9736328125 593.694335938 l 1
 56.6376953125 575.356445312 l 1
 54.970703125 567.021484375 l 1
 54.970703125 557.01953125 l 1
 54.76171875 550.350585938 l 1
 60.1796875 535.34765625 l 1
 65.806640625 523.88671875 l 1
 78.3095703125 512.008789062 l 1
 86.64453125 512.008789062 l 1
 99.98046875 518.676757812 l 1
 104.982421875 535.34765625 l 1
EndSplineSet
EndChar

StartChar: iota
Encoding: 10 953 10
Width: 258
VWidth: 924
Flags: W
AnchorPoint: "topbreating" 75 402 basechar 0
AnchorPoint: "topaccent" 169 445 basechar 0
LayerCount: 2
Fore
SplineSet
125 350 m 1
 84.80859375 341.068359375 l 1
 49.08203125 289.712890625 l 1
 31.21875 240.58984375 l 1
 17.822265625 189.234375 l 1
 17.822265625 131.1796875 l 1
 20.0546875 77.58984375 l 1
 28.986328125 53.029296875 l 1
 62.478515625 28.466796875 l 1
 107.13671875 19.53515625 l 1
 171.890625 8.37109375 l 1
 214.314453125 21.76953125 l 1
 241.107421875 44.09765625 l 1
 238.875 79.82421875 l 1
 203.150390625 86.521484375 l 1
 158.4921875 90.98828125 l 1
 140.62890625 115.548828125 l 1
 154.02734375 151.275390625 l 1
 171.890625 189.234375 l 1
 189.751953125 220.494140625 l 1
 189.751953125 276.314453125 l 1
 180.8203125 318.740234375 l 1
 162.958984375 336.6015625 l 1
 125 350 l 1
EndSplineSet
EndChar

StartChar: omicron
Encoding: 11 959 11
Width: 324
VWidth: 924
Flags: W
AnchorPoint: "topaccent" 195 398 basechar 0
AnchorPoint: "topbreating" 81 399 basechar 0
LayerCount: 2
Fore
SplineSet
93.2841796875 330.428710938 m 5
 60.3056640625 319.436523438 l 5
 30.0771484375 289.206054688 l 5
 19.0830078125 258.977539062 l 5
 16.3349609375 206.762695312 l 5
 16.3349609375 162.791992188 l 5
 21.8330078125 102.333007812 l 5
 35.5732421875 74.8525390625 l 5
 76.7939453125 39.1259765625 l 5
 104.276367188 22.6376953125 l 5
 148.247070312 6.1494140625 l 5
 192.215820312 8.8974609375 l 5
 230.690429688 28.1337890625 l 5
 260.920898438 61.1103515625 l 5
 293.897460938 102.333007812 l 5
 307.637695312 140.807617188 l 5
 313.133789062 184.778320312 l 5
 304.889648438 242.489257812 l 5
 280.157226562 278.213867188 l 5
 249.926757812 305.696289062 l 5
 208.706054688 327.680664062 l 5
 145.499023438 330.428710938 l 5
 93.2841796875 330.428710938 l 5
181.223632812 258.977539062 m 5
 200.461914062 234.243164062 l 5
 216.950195312 206.762695312 l 5
 216.950195312 173.784179688 l 5
 208.706054688 149.051757812 l 5
 194.963867188 124.319335938 l 5
 172.979492188 105.081054688 l 5
 142.750976562 102.333007812 l 5
 123.512695312 107.829101562 l 5
 120.764648438 135.311523438 l 5
 120.764648438 157.295898438 l 5
 126.260742188 190.274414062 l 5
 140.002929688 239.739257812 l 5
 159.239257812 256.229492188 l 5
 181.223632812 258.977539062 l 5
93.2841796875 330.428710938 m 1
 60.3056640625 319.436523438 l 1
 30.0771484375 289.206054688 l 1
 19.0830078125 258.977539062 l 1
 16.3349609375 206.762695312 l 1
 16.3349609375 162.791992188 l 1
 21.8330078125 102.333007812 l 1
 35.5732421875 74.8525390625 l 1
 76.7939453125 39.1259765625 l 1
 104.276367188 22.6376953125 l 1
 148.247070312 6.1494140625 l 1
 192.215820312 8.8974609375 l 1
 230.690429688 28.1337890625 l 1
 260.920898438 61.1103515625 l 1
 293.897460938 102.333007812 l 1
 307.637695312 140.807617188 l 1
 313.133789062 184.778320312 l 1
 304.889648438 242.489257812 l 1
 280.157226562 278.213867188 l 1
 249.926757812 305.696289062 l 1
 208.706054688 327.680664062 l 1
 145.499023438 330.428710938 l 1
 93.2841796875 330.428710938 l 1
181.223632812 258.977539062 m 1
 200.461914062 234.243164062 l 1
 216.950195312 206.762695312 l 1
 216.950195312 173.784179688 l 1
 208.706054688 149.051757812 l 1
 194.963867188 124.319335938 l 1
 172.979492188 105.081054688 l 1
 142.750976562 102.333007812 l 1
 123.512695312 107.829101562 l 1
 120.764648438 135.311523438 l 1
 120.764648438 157.295898438 l 1
 126.260742188 190.274414062 l 1
 140.002929688 239.739257812 l 1
 159.239257812 256.229492188 l 1
 181.223632812 258.977539062 l 1
EndSplineSet
EndChar

StartChar: uniE044
Encoding: 12 57412 12
Width: 1145
VWidth: 924
Flags: W
HStem: 65.5488 39.6338<891.188 930.813> 79.8174 39.6338<822.638 862.233 960.165 999.76> 118.262 39.6318<763.968 803.591 1018.81 1058.43> 177.71 39.6338<724.73 764.355 1058.04 1097.66> 246.275 39.6318<710.463 750.085 1072.31 1111.93> 314.839 39.6338<724.731 764.355 1058.04 1097.66> 373.894 39.6309<763.982 803.591 1018.81 1058.43> 413.129 39.6338<822.624 862.248 960.15 999.774> 427 39.6328<891.188 930.813>
VStem: 710.458 39.6338<246.295 285.888> 724.726 39.6338<177.715 217.339 314.859 354.468> 763.963 39.6328<118.266 157.889 373.898 413.519> 822.619 39.6338<79.8224 119.446 413.134 452.758> 891.184 39.6338<65.5538 105.178 427.005 466.628> 960.145 39.6338<79.836 119.431 413.148 452.743> 1018.8 39.6338<118.281 157.874 373.913 413.505> 1058.04 39.6318<177.715 217.339 314.844 354.468> 1072.31 39.6309<246.295 285.888>
LayerCount: 2
Fore
SplineSet
911 466.6328125 m 0x1c8e
 897.7890625 466.6328125 891.18359375 460.161132812 891.18359375 447.213867188 c 0
 891.18359375 433.739257812 897.7890625 427 911 427 c 0
 924.2109375 427 930.817382812 433.739257812 930.817382812 447.213867188 c 0
 930.817382812 460.161132812 924.2109375 466.6328125 911 466.6328125 c 0x1c8e
842.0390625 452.762695312 m 0x1d0e
 829.092773438 452.762695312 822.619140625 446.0234375 822.619140625 432.548828125 c 0
 822.619140625 419.6015625 829.092773438 413.12890625 842.0390625 413.12890625 c 0
 855.514648438 413.12890625 862.252929688 419.6015625 862.252929688 432.548828125 c 0
 862.252929688 446.0234375 855.514648438 452.762695312 842.0390625 452.762695312 c 0x1d0e
980.754882812 452.762695312 m 0
 967.015625 452.762695312 960.14453125 446.0234375 960.14453125 432.548828125 c 0
 960.14453125 419.6015625 967.015625 413.12890625 980.754882812 413.12890625 c 0
 993.4375 413.12890625 999.778320312 419.6015625 999.778320312 432.548828125 c 0
 999.778320312 446.0234375 993.4375 452.762695312 980.754882812 452.762695312 c 0
675.4765625 437.770507812 m 1
 633.14453125 420.643554688 l 1
 604.04296875 383.534179688 l 1
 564.356445312 306.461914062 l 1
 503.504882812 220.827148438 l 1
 466.466796875 169.4453125 l 1
 405.61328125 89.5185546875 l 1
 336.825195312 18.1533203125 l 1
 305.078125 -4.681640625 l 1
 291.849609375 15.2998046875 l 1
 283.911132812 52.4091796875 l 1
 257.455078125 152.318359375 l 1
 212.477539062 255.080078125 l 1
 191.3125 317.879882812 l 1
 154.271484375 369.26171875 l 1
 104.002929688 394.952148438 l 1
 53.734375 377.825195312 l 1
 35.21484375 363.552734375 l 1
 24.6328125 315.025390625 l 1
 35.21484375 280.772460938 l 1
 64.3193359375 249.37109375 l 1
 85.4833984375 220.827148438 l 1
 93.4208984375 206.552734375 l 1
 104.002929688 212.26171875 l 1
 130.4609375 209.407226562 l 1
 148.98046875 183.716796875 l 1
 178.083984375 129.48046875 l 1
 207.186523438 46.7001953125 l 1
 207.186523438 3.8818359375 l 1
 215.123046875 -87.462890625 l 1
 204.541015625 -141.69921875 l 1
 186.021484375 -170.245117188 l 1
 156.91796875 -201.643554688 l 1
 135.752929688 -255.879882812 l 1
 135.752929688 -304.408203125 l 1
 148.98046875 -341.515625 l 1
 201.89453125 -358.64453125 l 1
 252.1640625 -315.825195312 l 1
 273.328125 -273.006835938 l 1
 291.849609375 -221.626953125 l 1
 328.888671875 -164.536132812 l 1
 355.346679688 -116.008789062 l 1
 453.236328125 -16.099609375 l 1
 511.442382812 72.390625 l 1
 559.065429688 146.607421875 l 1
 617.270507812 160.881835938 l 1
 683.413085938 197.989257812 l 1
 704.580078125 263.643554688 l 1
 723.099609375 380.6796875 l 1
 717.807617188 429.20703125 l 1
 675.4765625 437.770507812 l 1
783.779296875 413.524414062 m 0x1e1e
 770.568359375 413.524414062 763.962890625 406.522460938 763.962890625 392.51953125 c 0
 763.962890625 380.100585938 770.568359375 373.893554688 783.779296875 373.893554688 c 0
 796.990234375 373.893554688 803.595703125 380.497070312 803.595703125 393.708007812 c 0
 803.595703125 406.918945312 796.990234375 413.524414062 783.779296875 413.524414062 c 0x1e1e
1039.41015625 413.524414062 m 0
 1025.67089844 413.524414062 1018.80175781 406.918945312 1018.80175781 393.708007812 c 0
 1018.80175781 380.497070312 1025.67089844 373.893554688 1039.41015625 373.893554688 c 0
 1052.09277344 373.893554688 1058.43554688 380.497070312 1058.43554688 393.708007812 c 0x1e0f
 1058.43554688 406.918945312 1052.09277344 413.524414062 1039.41015625 413.524414062 c 0
744.54296875 354.47265625 m 0
 731.33203125 354.47265625 724.725585938 348 724.725585938 335.052734375 c 0
 724.725585938 321.578125 731.596679688 314.838867188 745.3359375 314.838867188 c 0
 758.018554688 314.838867188 764.359375 321.578125 764.359375 335.052734375 c 0x1c2e
 764.359375 348 757.75390625 354.47265625 744.54296875 354.47265625 c 0
1078.25 354.47265625 m 0
 1064.77441406 354.47265625 1058.03808594 348 1058.03808594 335.052734375 c 0
 1058.03808594 321.578125 1064.51171875 314.838867188 1077.45800781 314.838867188 c 0
 1090.93359375 314.838867188 1097.66992188 321.578125 1097.66992188 335.052734375 c 0x1c0e80
 1097.66992188 348 1091.19628906 354.47265625 1078.25 354.47265625 c 0
731.068359375 285.907226562 m 0
 717.329101562 285.907226562 710.458007812 279.302734375 710.458007812 266.091796875 c 0
 710.458007812 252.881835938 717.329101562 246.275390625 731.068359375 246.275390625 c 0
 744.014648438 246.275390625 750.35546875 252.881835938 750.091796875 266.091796875 c 0x1c4e
 750.35546875 279.302734375 744.014648438 285.907226562 731.068359375 285.907226562 c 0
1092.91503906 285.907226562 m 0
 1079.17480469 285.907226562 1072.30664062 279.302734375 1072.30664062 266.091796875 c 0
 1072.30664062 252.881835938 1079.17480469 246.275390625 1092.91503906 246.275390625 c 0
 1105.59667969 246.275390625 1111.9375 252.881835938 1111.9375 266.091796875 c 0x1c0e40
 1111.9375 279.302734375 1105.59667969 285.907226562 1092.91503906 285.907226562 c 0
744.54296875 217.34375 m 0
 731.33203125 217.34375 724.725585938 210.606445312 724.725585938 197.130859375 c 0
 724.725585938 184.184570312 731.33203125 177.709960938 744.54296875 177.709960938 c 0
 757.75390625 177.709960938 764.359375 184.184570312 764.359375 197.130859375 c 0x1c2e
 764.359375 210.606445312 757.75390625 217.34375 744.54296875 217.34375 c 0
1077.45800781 217.34375 m 0
 1064.51171875 217.34375 1058.03808594 210.606445312 1058.03808594 197.130859375 c 0
 1058.03808594 184.184570312 1064.51171875 177.709960938 1077.45800781 177.709960938 c 0
 1090.93359375 177.709960938 1097.66992188 184.184570312 1097.66992188 197.130859375 c 0x1c0e80
 1097.66992188 210.606445312 1090.93359375 217.34375 1077.45800781 217.34375 c 0
783.779296875 157.893554688 m 0x3c1e
 770.568359375 157.893554688 763.962890625 151.15625 763.962890625 137.680664062 c 0
 763.962890625 124.734375 770.568359375 118.26171875 783.779296875 118.26171875 c 0
 796.990234375 118.26171875 803.595703125 124.734375 803.595703125 137.680664062 c 0
 803.595703125 151.15625 796.990234375 157.893554688 783.779296875 157.893554688 c 0x3c1e
1039.41015625 157.893554688 m 0
 1025.67089844 157.893554688 1018.80175781 151.15625 1018.80175781 137.680664062 c 0
 1018.80175781 124.734375 1025.67089844 118.26171875 1039.41015625 118.26171875 c 0
 1052.09277344 118.26171875 1058.43554688 124.734375 1058.43554688 137.680664062 c 0x3c0f
 1058.43554688 151.15625 1052.09277344 157.893554688 1039.41015625 157.893554688 c 0
842.0390625 119.451171875 m 0x5c0e
 829.092773438 119.451171875 822.619140625 112.580078125 822.619140625 98.8408203125 c 0
 822.619140625 86.158203125 829.092773438 79.8173828125 842.0390625 79.8173828125 c 0
 855.514648438 79.8173828125 862.252929688 86.6884765625 862.252929688 100.427734375 c 0
 862.252929688 113.109375 855.514648438 119.451171875 842.0390625 119.451171875 c 0x5c0e
980.754882812 119.451171875 m 0
 967.015625 119.451171875 960.14453125 112.580078125 960.14453125 98.8408203125 c 0
 960.14453125 86.158203125 967.015625 79.8173828125 980.754882812 79.8173828125 c 0
 993.4375 79.8173828125 999.778320312 86.158203125 999.778320312 98.8408203125 c 0
 999.778320312 112.580078125 993.4375 119.451171875 980.754882812 119.451171875 c 0
911 105.182617188 m 0x9c0e
 897.7890625 105.182617188 891.18359375 98.7080078125 891.18359375 85.76171875 c 0
 891.18359375 72.2861328125 897.7890625 65.548828125 911 65.548828125 c 0
 924.2109375 65.548828125 930.817382812 72.2861328125 930.817382812 85.76171875 c 0
 930.817382812 98.7080078125 924.2109375 105.182617188 911 105.182617188 c 0x9c0e
EndSplineSet
EndChar

StartChar: uniE045
Encoding: 13 57413 13
Width: 1246
VWidth: 924
Flags: W
HStem: -60.9229 39.6338<1002.65 1042.27> -46.6543 39.6328<934.096 973.691 1071.62 1111.22> -8.20996 39.6318<875.425 915.049 1130.26 1169.89> 51.2383 39.6338<836.188 875.813 1169.5 1209.12> 119.804 39.6309<821.923 861.543 1183.77 1223.39> 188.367 39.6328<836.189 875.813 1169.5 1209.12> 247.422 39.6309<875.439 915.049 1130.26 1169.89> 286.657 39.6318<934.082 973.706 1071.61 1111.23> 300.527 39.6338<1002.65 1042.27> 787.798 20G<170.645 246.804>
VStem: 821.918 39.6309<119.823 159.415> 836.184 39.6338<51.243 90.8671 188.387 227.995> 875.42 39.6338<-8.20522 31.4169 247.427 287.048> 934.077 39.6338<-46.6493 -7.02652 286.662 326.284> 1002.64 39.6338<-60.9179 -21.2938 300.532 340.156> 1071.6 39.6338<-46.6357 -7.04161 286.676 326.269> 1130.26 39.6328<-8.191 31.4021 247.441 287.033> 1169.5 39.6338<51.243 90.8671 188.372 227.995> 1183.76 39.6318<119.823 159.415>
LayerCount: 2
Fore
SplineSet
99.4013671875 908.522460938 m 1x1c47
 74.8330078125 903.221679688 l 1
 42.8955078125 882.015625 l 1
 20.7841796875 834.303710938 l 1
 23.2421875 783.94140625 l 1
 37.9814453125 752.134765625 l 1
 65.005859375 712.375976562 l 1
 99.4013671875 677.916015625 l 1
 146.078125 624.905273438 l 1
 178.015625 582.494140625 l 1
 222.237304688 532.1328125 l 1
 259.087890625 492.37109375 l 1
 281.198242188 463.213867188 l 1
 310.678710938 426.106445312 l 1
 322.962890625 394.297851562 l 1
 335.247070312 351.888671875 l 1
 335.247070312 328.033203125 l 1
 335.247070312 309.478515625 l 1
 313.135742188 301.525390625 l 1
 271.372070312 301.525390625 l 1
 227.150390625 293.575195312 l 1
 192.755859375 256.46484375 l 1
 160.818359375 216.706054688 l 1
 148.536132812 171.645507812 l 1
 148.536132812 126.584960938 l 1
 158.362304688 76.2216796875 l 1
 187.841796875 31.1611328125 l 1
 229.606445312 -3.296875 l 1
 271.372070312 -3.296875 l 1
 315.591796875 12.6064453125 l 1
 374.552734375 49.716796875 l 1
 416.319335938 89.4755859375 l 1
 428.6015625 129.234375 l 1
 443.342773438 190.200195312 l 1
 443.342773438 240.561523438 l 1
 443.342773438 314.779296875 l 1
 421.232421875 362.491210938 l 1
 381.923828125 444.661132812 l 1
 342.615234375 497.674804688 l 1
 293.482421875 553.336914062 l 1
 249.260742188 608.999023438 l 1
 217.32421875 638.15625 l 1
 168.189453125 699.122070312 l 1
 128.880859375 749.483398438 l 1
 128.880859375 773.33984375 l 1
 136.251953125 794.543945312 l 1
 170.64453125 805.1484375 l 1
 209.953125 807.797851562 l 1
 246.803710938 794.543945312 l 1
 281.198242188 752.134765625 l 1
 335.247070312 677.916015625 l 1
 374.552734375 635.506835938 l 1
 423.6875 569.240234375 l 1
 470.3671875 521.528320312 l 1
 497.391601562 484.420898438 l 1
 536.697265625 434.059570312 l 1
 576.005859375 383.6953125 l 1
 610.400390625 346.587890625 l 1
 661.991210938 304.176757812 l 1
 696.38671875 282.97265625 l 1
 760.260742188 243.211914062 l 1
 826.591796875 235.260742188 l 1
 856.073242188 243.211914062 l 1
 858.528320312 261.766601562 l 1
 816.764648438 285.622070312 l 1
 782.372070312 312.129882812 l 1
 747.9765625 335.983398438 l 1
 706.212890625 367.791992188 l 1
 661.991210938 415.50390625 l 1
 625.140625 449.962890625 l 1
 578.462890625 497.674804688 l 1
 546.524414062 534.782226562 l 1
 504.759765625 585.143554688 l 1
 480.193359375 619.603515625 l 1
 438.4296875 667.313476562 l 1
 413.861328125 709.724609375 l 1
 394.208007812 746.833984375 l 1
 362.270507812 805.1484375 l 1
 335.247070312 847.556640625 l 1
 298.396484375 874.064453125 l 1
 244.34765625 895.268554688 l 1
 187.841796875 905.87109375 l 1
 131.337890625 908.522460938 l 1
 99.4013671875 908.522460938 l 1x1c47
1022.45800781 340.161132812 m 0x1cc7
 1009.24707031 340.161132812 1002.64160156 333.686523438 1002.64160156 320.740234375 c 0
 1002.64160156 307.264648438 1009.24707031 300.52734375 1022.45800781 300.52734375 c 0
 1035.66894531 300.52734375 1042.27539062 307.264648438 1042.27539062 320.740234375 c 0
 1042.27539062 333.686523438 1035.66894531 340.161132812 1022.45800781 340.161132812 c 0x1cc7
953.497070312 326.2890625 m 0x1d47
 940.55078125 326.2890625 934.077148438 319.551757812 934.077148438 306.076171875 c 0
 934.077148438 293.129882812 940.55078125 286.657226562 953.497070312 286.657226562 c 0
 966.97265625 286.657226562 973.7109375 293.129882812 973.7109375 306.076171875 c 0
 973.7109375 319.551757812 966.97265625 326.2890625 953.497070312 326.2890625 c 0x1d47
1092.21289062 326.2890625 m 0
 1078.47363281 326.2890625 1071.60253906 319.551757812 1071.60253906 306.076171875 c 0
 1071.60253906 293.129882812 1078.47363281 286.657226562 1092.21289062 286.657226562 c 0
 1104.89550781 286.657226562 1111.23632812 293.129882812 1111.23632812 306.076171875 c 0
 1111.23632812 319.551757812 1104.89550781 326.2890625 1092.21289062 326.2890625 c 0
895.237304688 287.052734375 m 0x1e4f
 882.026367188 287.052734375 875.419921875 280.05078125 875.419921875 266.046875 c 0
 875.419921875 253.62890625 882.026367188 247.421875 895.237304688 247.421875 c 0
 908.448242188 247.421875 915.053710938 254.025390625 915.053710938 267.236328125 c 0
 915.053710938 280.447265625 908.448242188 287.052734375 895.237304688 287.052734375 c 0x1e4f
1150.86816406 287.052734375 m 0
 1137.12792969 287.052734375 1130.25976562 280.447265625 1130.25976562 267.236328125 c 0
 1130.25976562 254.025390625 1137.12792969 247.421875 1150.86816406 247.421875 c 0
 1163.54980469 247.421875 1169.89257812 254.025390625 1169.89257812 267.236328125 c 0x1e4780
 1169.89257812 280.447265625 1163.54980469 287.052734375 1150.86816406 287.052734375 c 0
305.764648438 198.151367188 m 1
 345.073242188 198.151367188 l 1
 357.357421875 176.946289062 l 1
 342.615234375 147.790039062 l 1
 313.135742188 121.282226562 l 1
 276.28515625 94.7763671875 l 1
 249.260742188 94.7763671875 l 1
 241.890625 121.282226562 l 1
 244.34765625 142.48828125 l 1
 261.544921875 176.946289062 l 1
 305.764648438 198.151367188 l 1
856 228 m 0
 842.7890625 228 836.18359375 221.528320312 836.18359375 208.581054688 c 0
 836.18359375 195.106445312 843.0546875 188.3671875 856.793945312 188.3671875 c 0
 869.4765625 188.3671875 875.817382812 195.106445312 875.817382812 208.581054688 c 0x1c57
 875.817382812 221.528320312 869.2109375 228 856 228 c 0
1189.70996094 228 m 0
 1176.234375 228 1169.49609375 221.528320312 1169.49609375 208.581054688 c 0
 1169.49609375 195.106445312 1175.96972656 188.3671875 1188.91601562 188.3671875 c 0
 1202.39160156 188.3671875 1209.12988281 195.106445312 1209.12988281 208.581054688 c 0x1c4740
 1209.12988281 221.528320312 1202.65625 228 1189.70996094 228 c 0
842.526367188 159.434570312 m 0
 828.786132812 159.434570312 821.91796875 152.831054688 821.91796875 139.620117188 c 0
 821.91796875 126.409179688 828.786132812 119.803710938 842.526367188 119.803710938 c 0
 855.47265625 119.803710938 861.813476562 126.409179688 861.548828125 139.620117188 c 0x1c67
 861.813476562 152.831054688 855.47265625 159.434570312 842.526367188 159.434570312 c 0
1204.37207031 159.434570312 m 0
 1190.6328125 159.434570312 1183.76367188 152.831054688 1183.76367188 139.620117188 c 0
 1183.76367188 126.409179688 1190.6328125 119.803710938 1204.37207031 119.803710938 c 0
 1217.0546875 119.803710938 1223.39550781 126.409179688 1223.39550781 139.620117188 c 0x1c4720
 1223.39550781 152.831054688 1217.0546875 159.434570312 1204.37207031 159.434570312 c 0
856 90.8720703125 m 0
 842.7890625 90.8720703125 836.18359375 84.134765625 836.18359375 70.6591796875 c 0
 836.18359375 57.712890625 842.7890625 51.23828125 856 51.23828125 c 0
 869.2109375 51.23828125 875.817382812 57.712890625 875.817382812 70.6591796875 c 0x1c57
 875.817382812 84.134765625 869.2109375 90.8720703125 856 90.8720703125 c 0
1188.91601562 90.8720703125 m 0
 1175.96972656 90.8720703125 1169.49609375 84.134765625 1169.49609375 70.6591796875 c 0
 1169.49609375 57.712890625 1175.96972656 51.23828125 1188.91601562 51.23828125 c 0
 1202.39160156 51.23828125 1209.12988281 57.712890625 1209.12988281 70.6591796875 c 0x1c4740
 1209.12988281 84.134765625 1202.39160156 90.8720703125 1188.91601562 90.8720703125 c 0
895.237304688 31.421875 m 0x3c4f
 882.026367188 31.421875 875.419921875 24.6845703125 875.419921875 11.208984375 c 0
 875.419921875 -1.7373046875 882.026367188 -8.2099609375 895.237304688 -8.2099609375 c 0
 908.448242188 -8.2099609375 915.053710938 -1.7373046875 915.053710938 11.208984375 c 0
 915.053710938 24.6845703125 908.448242188 31.421875 895.237304688 31.421875 c 0x3c4f
1150.86816406 31.421875 m 0
 1137.12792969 31.421875 1130.25976562 24.6845703125 1130.25976562 11.208984375 c 0
 1130.25976562 -1.7373046875 1137.12792969 -8.2099609375 1150.86816406 -8.2099609375 c 0
 1163.54980469 -8.2099609375 1169.89257812 -1.7373046875 1169.89257812 11.208984375 c 0x3c4780
 1169.89257812 24.6845703125 1163.54980469 31.421875 1150.86816406 31.421875 c 0
953.497070312 -7.021484375 m 0x5c47
 940.55078125 -7.021484375 934.077148438 -13.8916015625 934.077148438 -27.630859375 c 0
 934.077148438 -40.3134765625 940.55078125 -46.654296875 953.497070312 -46.654296875 c 0
 966.97265625 -46.654296875 973.7109375 -39.7841796875 973.7109375 -26.044921875 c 0
 973.7109375 -13.3623046875 966.97265625 -7.021484375 953.497070312 -7.021484375 c 0x5c47
1092.21289062 -7.021484375 m 0
 1078.47363281 -7.021484375 1071.60253906 -13.8916015625 1071.60253906 -27.630859375 c 0
 1071.60253906 -40.3134765625 1078.47363281 -46.654296875 1092.21289062 -46.654296875 c 0
 1104.89550781 -46.654296875 1111.23632812 -40.3134765625 1111.23632812 -27.630859375 c 0
 1111.23632812 -13.8916015625 1104.89550781 -7.021484375 1092.21289062 -7.021484375 c 0
1022.45800781 -21.2890625 m 0x9c47
 1009.24707031 -21.2890625 1002.64160156 -27.763671875 1002.64160156 -40.7099609375 c 0
 1002.64160156 -54.185546875 1009.24707031 -60.9228515625 1022.45800781 -60.9228515625 c 0
 1035.66894531 -60.9228515625 1042.27539062 -54.185546875 1042.27539062 -40.7099609375 c 0
 1042.27539062 -27.763671875 1035.66894531 -21.2890625 1022.45800781 -21.2890625 c 0x9c47
EndSplineSet
EndChar

StartChar: uniE046
Encoding: 14 57414 14
Width: 636
VWidth: 924
Flags: W
HStem: 1.40625 39.6338<396.758 436.382> 15.6748 39.6309<328.207 367.803 465.734 505.329> 54.1172 39.6338<269.536 309.16 524.376 563.999> 113.567 39.6338<230.3 269.924 563.612 603.236> 182.133 39.6309<216.034 255.654 577.88 617.502> 250.696 39.6328<230.3 269.924 563.612 603.236> 309.748 39.6338<269.551 309.16 524.376 563.999> 348.986 39.6318<328.193 367.817 465.719 505.343> 362.856 39.6338<396.758 436.382>
VStem: 216.029 39.6309<182.152 221.744> 230.295 39.6338<113.572 153.196 250.716 290.324> 269.531 39.6338<54.1219 93.746 309.753 349.377> 328.188 39.6338<15.6798 55.3006 348.991 388.613> 396.753 39.6338<1.41118 41.0353 362.861 402.485> 465.714 39.6338<15.6934 55.2855 349.005 388.598> 524.371 39.6328<54.1362 93.7312 309.767 349.362> 563.607 39.6338<113.572 153.196 250.701 290.324> 577.875 39.6318<182.152 221.744>
LayerCount: 2
Fore
SplineSet
62.2646484375 443.811523438 m 1x1c0e
 19.4521484375 349.41015625 l 1
 0.287109375 224.508789062 l 1
 0.287109375 113.181640625 l 1
 24.263671875 46.7119140625 l 1
 53.0703125 12.0791015625 l 1
 127.28125 -2.42578125 l 1
 181.791992188 24.57421875 l 1
 192.810546875 59.58203125 l 1
 174.016601562 86.203125 l 1
 129.686523438 81.5458984375 l 1
 92.2412109375 98.294921875 l 1
 97.2373046875 143.154296875 l 1
 163 156 l 1
 206.653320312 181.690429688 l 1
 198.716796875 241.635742188 l 1
 170.936523438 254.481445312 l 1
 119.344726562 254.481445312 l 1
 115.376953125 310.14453125 l 1
 135.219726562 348.6796875 l 1
 181.46484375 353.91796875 l 1
 226.30859375 363.767578125 l 1
 226.473632812 415.52734375 l 1
 194.209960938 429.657226562 l 1
 131.250976562 442.880859375 l 1
 62.2646484375 443.811523438 l 1x1c0e
416.569335938 402.490234375 m 0x1c8e
 403.358398438 402.490234375 396.752929688 396.015625 396.752929688 383.069335938 c 0
 396.752929688 369.59375 403.358398438 362.856445312 416.569335938 362.856445312 c 0
 429.780273438 362.856445312 436.38671875 369.59375 436.38671875 383.069335938 c 0
 436.38671875 396.015625 429.780273438 402.490234375 416.569335938 402.490234375 c 0x1c8e
347.608398438 388.618164062 m 0x1d0e
 334.662109375 388.618164062 328.188476562 381.880859375 328.188476562 368.405273438 c 0
 328.188476562 355.458984375 334.662109375 348.986328125 347.608398438 348.986328125 c 0
 361.083984375 348.986328125 367.822265625 355.458984375 367.822265625 368.405273438 c 0
 367.822265625 381.880859375 361.083984375 388.618164062 347.608398438 388.618164062 c 0x1d0e
486.32421875 388.618164062 m 0
 472.584960938 388.618164062 465.713867188 381.880859375 465.713867188 368.405273438 c 0
 465.713867188 355.458984375 472.584960938 348.986328125 486.32421875 348.986328125 c 0
 499.006835938 348.986328125 505.34765625 355.458984375 505.34765625 368.405273438 c 0
 505.34765625 381.880859375 499.006835938 388.618164062 486.32421875 388.618164062 c 0
289.348632812 349.381835938 m 0x1e1e
 276.137695312 349.381835938 269.53125 342.379882812 269.53125 328.375976562 c 0
 269.53125 315.958007812 276.137695312 309.748046875 289.348632812 309.748046875 c 0
 302.559570312 309.748046875 309.165039062 316.354492188 309.165039062 329.565429688 c 0
 309.165039062 342.776367188 302.559570312 349.381835938 289.348632812 349.381835938 c 0x1e1e
544.979492188 349.381835938 m 0
 531.239257812 349.381835938 524.37109375 342.776367188 524.37109375 329.565429688 c 0
 524.37109375 316.354492188 531.239257812 309.748046875 544.979492188 309.748046875 c 0
 557.661132812 309.748046875 564.00390625 316.354492188 564.00390625 329.565429688 c 0x1e0f
 564.00390625 342.776367188 557.661132812 349.381835938 544.979492188 349.381835938 c 0
250.111328125 290.329101562 m 0
 236.900390625 290.329101562 230.294921875 283.854492188 230.294921875 270.908203125 c 0
 230.294921875 257.43359375 237.166015625 250.696289062 250.905273438 250.696289062 c 0
 263.587890625 250.696289062 269.928710938 257.43359375 269.928710938 270.908203125 c 0x1c2e
 269.928710938 283.854492188 263.322265625 290.329101562 250.111328125 290.329101562 c 0
583.819335938 290.329101562 m 0
 570.34375 290.329101562 563.607421875 283.854492188 563.607421875 270.908203125 c 0
 563.607421875 257.43359375 570.081054688 250.696289062 583.02734375 250.696289062 c 0
 596.502929688 250.696289062 603.241210938 257.43359375 603.241210938 270.908203125 c 0x1c0e80
 603.241210938 283.854492188 596.765625 290.329101562 583.819335938 290.329101562 c 0
236.637695312 221.763671875 m 0
 222.897460938 221.763671875 216.029296875 215.158203125 216.029296875 201.947265625 c 0
 216.029296875 188.736328125 222.897460938 182.1328125 236.637695312 182.1328125 c 0
 249.583984375 182.1328125 255.924804688 188.736328125 255.66015625 201.947265625 c 0x1c4e
 255.924804688 215.158203125 249.583984375 221.763671875 236.637695312 221.763671875 c 0
598.483398438 221.763671875 m 0
 584.744140625 221.763671875 577.875 215.158203125 577.875 201.947265625 c 0
 577.875 188.736328125 584.744140625 182.1328125 598.483398438 182.1328125 c 0
 611.166015625 182.1328125 617.506835938 188.736328125 617.506835938 201.947265625 c 0x1c0e40
 617.506835938 215.158203125 611.166015625 221.763671875 598.483398438 221.763671875 c 0
250.111328125 153.201171875 m 0
 236.900390625 153.201171875 230.294921875 146.461914062 230.294921875 132.986328125 c 0
 230.294921875 120.040039062 236.900390625 113.567382812 250.111328125 113.567382812 c 0
 263.322265625 113.567382812 269.928710938 120.040039062 269.928710938 132.986328125 c 0x1c2e
 269.928710938 146.461914062 263.322265625 153.201171875 250.111328125 153.201171875 c 0
583.02734375 153.201171875 m 0
 570.081054688 153.201171875 563.607421875 146.461914062 563.607421875 132.986328125 c 0
 563.607421875 120.040039062 570.081054688 113.567382812 583.02734375 113.567382812 c 0
 596.502929688 113.567382812 603.241210938 120.040039062 603.241210938 132.986328125 c 0x1c0e80
 603.241210938 146.461914062 596.502929688 153.201171875 583.02734375 153.201171875 c 0
289.348632812 93.7509765625 m 0x3c1e
 276.137695312 93.7509765625 269.53125 87.013671875 269.53125 73.5380859375 c 0
 269.53125 60.591796875 276.137695312 54.1171875 289.348632812 54.1171875 c 0
 302.559570312 54.1171875 309.165039062 60.591796875 309.165039062 73.5380859375 c 0
 309.165039062 87.013671875 302.559570312 93.7509765625 289.348632812 93.7509765625 c 0x3c1e
544.979492188 93.7509765625 m 0
 531.239257812 93.7509765625 524.37109375 87.013671875 524.37109375 73.5380859375 c 0
 524.37109375 60.591796875 531.239257812 54.1171875 544.979492188 54.1171875 c 0
 557.661132812 54.1171875 564.00390625 60.591796875 564.00390625 73.5380859375 c 0x3c0f
 564.00390625 87.013671875 557.661132812 93.7509765625 544.979492188 93.7509765625 c 0
347.608398438 55.3056640625 m 0x5c0e
 334.662109375 55.3056640625 328.188476562 48.4375 328.188476562 34.6982421875 c 0
 328.188476562 22.015625 334.662109375 15.6748046875 347.608398438 15.6748046875 c 0
 361.083984375 15.6748046875 367.822265625 22.54296875 367.822265625 36.2822265625 c 0
 367.822265625 48.96484375 361.083984375 55.3056640625 347.608398438 55.3056640625 c 0x5c0e
486.32421875 55.3056640625 m 0
 472.584960938 55.3056640625 465.713867188 48.4375 465.713867188 34.6982421875 c 0
 465.713867188 22.015625 472.584960938 15.6748046875 486.32421875 15.6748046875 c 0
 499.006835938 15.6748046875 505.34765625 22.015625 505.34765625 34.6982421875 c 0
 505.34765625 48.4375 499.006835938 55.3056640625 486.32421875 55.3056640625 c 0
416.569335938 41.0400390625 m 0x9c0e
 403.358398438 41.0400390625 396.752929688 34.5654296875 396.752929688 21.619140625 c 0
 396.752929688 8.1435546875 403.358398438 1.40625 416.569335938 1.40625 c 0
 429.780273438 1.40625 436.38671875 8.1435546875 436.38671875 21.619140625 c 0
 436.38671875 34.5654296875 429.780273438 41.0400390625 416.569335938 41.0400390625 c 0x9c0e
EndSplineSet
EndChar

StartChar: uniE047
Encoding: 15 57415 15
Width: 1054
VWidth: 924
HStem: 27.8125 39.6328<785.667 825.289> 42.0801 39.6318<717.117 756.71 854.643 894.236> 80.5225 39.6338<658.445 698.067 913.284 952.906> 139.973 39.6338<619.209 658.833 952.519 992.144> 208.538 39.6318<604.942 644.563 966.787 1006.41> 277.102 39.6338<619.209 658.833 952.52 992.144> 336.154 39.6338<658.46 698.067 913.284 952.906> 375.392 39.6318<717.102 756.725 854.628 894.25> 389.263 39.6338<785.667 825.289>
VStem: 604.937 39.6328<208.557 248.151> 619.204 39.6338<139.977 179.602 277.121 316.731> 658.44 39.6318<80.5272 120.151 336.159 375.783> 717.098 39.6318<42.0851 81.7069 375.396 415.019> 785.662 39.6318<27.8174 67.4406 389.268 428.892> 854.623 39.6318<42.0987 81.6918 375.411 415.004> 913.279 39.6318<80.5414 120.137 336.174 375.769> 952.515 39.6338<139.977 179.602 277.106 316.731> 966.782 39.6338<208.557 248.151>
LayerCount: 2
Fore
SplineSet
86.4013671875 699.78515625 m 1x1c0e
 58.2216796875 695.985351562 l 1
 44.1298828125 661.779296875 l 1
 52.9375 618.07421875 l 1
 72.310546875 599.071289062 l 1
 102.252929688 581.966796875 l 1
 98.7314453125 551.561523438 l 1
 95.20703125 524.958984375 l 1
 114.58203125 515.456054688 l 1
 146.284179688 504.0546875 l 1
 172.705078125 513.555664062 l 1
 199.124023438 505.956054688 l 1
 237.872070312 464.147460938 l 1
 304.801757812 403.337890625 l 1
 336.50390625 353.9296875 l 1
 340.434570312 348.681640625 l 1
 318.891601562 342.528320312 l 1
 160.375976562 222.810546875 l 1
 123.387695312 171.501953125 l 1
 65.2666015625 129.6953125 l 1
 14.189453125 93.58984375 l 1
 -72.11328125 4.2744140625 l 1
 -109.1015625 -26.1298828125 l 1
 -103.817382812 -66.037109375 l 1
 -87.966796875 -100.2421875 l 1
 -66.830078125 -111.643554688 l 1
 -38.6494140625 -109.745117188 l 1
 10.666015625 -94.541015625 l 1
 31.80078125 -73.63671875 l 1
 68.7890625 -28.03125 l 1
 86.4013671875 19.4775390625 l 1
 107.537109375 51.78125 l 1
 165.659179688 91.6884765625 l 1
 218.499023438 137.294921875 l 1
 287.188476562 190.504882812 l 1
 348.833984375 239.913085938 l 1
 387.581054688 257.014648438 l 1
 403.265625 264.750976562 l 1
 410.478515625 255.114257812 l 1
 463.317382812 188.603515625 l 1
 502.065429688 131.594726562 l 1
 537.291015625 82.1865234375 l 1
 584.846679688 9.9755859375 l 1
 628.877929688 -85.041015625 l 1
 699.330078125 -208.55859375 l 1
 734.556640625 -246.565429688 l 1
 776.826171875 -263.668945312 l 1
 801.485351562 -256.067382812 l 1
 812.052734375 -233.262695312 l 1
 813.814453125 -212.360351562 l 1
 797.9609375 -199.057617188 l 1
 782.110351562 -191.456054688 l 1
 743.362304688 -104.041992188 l 1
 704.614257812 -18.5283203125 l 1
 674.671875 25.1787109375 l 1
 597.17578125 146.797851562 l 1
 517.916015625 257.014648438 l 1
 476.424804688 318.161132812 l 1
 486.213867188 329.225585938 l 1
 482.692382812 363.432617188 l 1
 435.13671875 376.735351562 l 1
 433.529296875 376.248046875 l 1
 373.4921875 439.443359375 l 1
 287.188476562 540.16015625 l 1
 211.453125 621.874023438 l 1
 151.5703125 671.282226562 l 1
 86.4013671875 699.78515625 l 1x1c0e
805.478515625 428.896484375 m 0x1c8e
 792.267578125 428.896484375 785.662109375 422.421875 785.662109375 409.474609375 c 0
 785.662109375 396 792.267578125 389.262695312 805.478515625 389.262695312 c 0
 818.689453125 389.262695312 825.293945312 396 825.293945312 409.474609375 c 0
 825.293945312 422.421875 818.689453125 428.896484375 805.478515625 428.896484375 c 0x1c8e
736.517578125 415.0234375 m 0x1d0e
 723.571289062 415.0234375 717.09765625 408.286132812 717.09765625 394.811523438 c 0
 717.09765625 381.864257812 723.571289062 375.391601562 736.517578125 375.391601562 c 0
 749.993164062 375.391601562 756.729492188 381.864257812 756.729492188 394.811523438 c 0
 756.729492188 408.286132812 749.993164062 415.0234375 736.517578125 415.0234375 c 0x1d0e
875.231445312 415.0234375 m 0
 861.4921875 415.0234375 854.623046875 408.286132812 854.623046875 394.811523438 c 0
 854.623046875 381.864257812 861.4921875 375.391601562 875.231445312 375.391601562 c 0
 887.9140625 375.391601562 894.254882812 381.864257812 894.254882812 394.811523438 c 0
 894.254882812 408.286132812 887.9140625 415.0234375 875.231445312 415.0234375 c 0
678.2578125 375.788085938 m 0x1e1e
 665.046875 375.788085938 658.440429688 368.786132812 658.440429688 354.782226562 c 0
 658.440429688 342.364257812 665.046875 336.154296875 678.2578125 336.154296875 c 0
 691.46875 336.154296875 698.072265625 342.759765625 698.072265625 355.970703125 c 0
 698.072265625 369.181640625 691.46875 375.788085938 678.2578125 375.788085938 c 0x1e1e
933.887695312 375.788085938 m 0
 920.1484375 375.788085938 913.279296875 369.181640625 913.279296875 355.970703125 c 0
 913.279296875 342.759765625 920.1484375 336.154296875 933.887695312 336.154296875 c 0
 946.5703125 336.154296875 952.911132812 342.759765625 952.911132812 355.970703125 c 0x1e0f
 952.911132812 369.181640625 946.5703125 375.788085938 933.887695312 375.788085938 c 0
639.020507812 316.735351562 m 0
 625.809570312 316.735351562 619.204101562 310.260742188 619.204101562 297.313476562 c 0
 619.204101562 283.838867188 626.073242188 277.1015625 639.8125 277.1015625 c 0
 652.495117188 277.1015625 658.837890625 283.838867188 658.837890625 297.313476562 c 0x1c2e
 658.837890625 310.260742188 652.231445312 316.735351562 639.020507812 316.735351562 c 0
972.728515625 316.735351562 m 0
 959.252929688 316.735351562 952.514648438 310.260742188 952.514648438 297.313476562 c 0
 952.514648438 283.838867188 958.98828125 277.1015625 971.934570312 277.1015625 c 0
 985.41015625 277.1015625 992.1484375 283.838867188 992.1484375 297.313476562 c 0x1c0e80
 992.1484375 310.260742188 985.674804688 316.735351562 972.728515625 316.735351562 c 0
625.544921875 248.169921875 m 0
 611.8046875 248.169921875 604.936523438 241.563476562 604.936523438 228.352539062 c 0
 604.936523438 215.142578125 611.8046875 208.538085938 625.544921875 208.538085938 c 0
 638.491210938 208.538085938 644.833984375 215.142578125 644.569335938 228.352539062 c 0x1c4e
 644.833984375 241.563476562 638.491210938 248.169921875 625.544921875 248.169921875 c 0
987.392578125 248.169921875 m 0
 973.653320312 248.169921875 966.782226562 241.563476562 966.782226562 228.352539062 c 0
 966.782226562 215.142578125 973.653320312 208.538085938 987.392578125 208.538085938 c 0
 1000.07519531 208.538085938 1006.41601562 215.142578125 1006.41601562 228.352539062 c 0x1c0e40
 1006.41601562 241.563476562 1000.07519531 248.169921875 987.392578125 248.169921875 c 0
639.020507812 179.606445312 m 0
 625.809570312 179.606445312 619.204101562 172.8671875 619.204101562 159.391601562 c 0
 619.204101562 146.4453125 625.809570312 139.97265625 639.020507812 139.97265625 c 0
 652.231445312 139.97265625 658.837890625 146.4453125 658.837890625 159.391601562 c 0x1c2e
 658.837890625 172.8671875 652.231445312 179.606445312 639.020507812 179.606445312 c 0
971.934570312 179.606445312 m 0
 958.98828125 179.606445312 952.514648438 172.8671875 952.514648438 159.391601562 c 0
 952.514648438 146.4453125 958.98828125 139.97265625 971.934570312 139.97265625 c 0
 985.41015625 139.97265625 992.1484375 146.4453125 992.1484375 159.391601562 c 0x1c0e80
 992.1484375 172.8671875 985.41015625 179.606445312 971.934570312 179.606445312 c 0
678.2578125 120.15625 m 0x3c1e
 665.046875 120.15625 658.440429688 113.418945312 658.440429688 99.9443359375 c 0
 658.440429688 86.9970703125 665.046875 80.5224609375 678.2578125 80.5224609375 c 0
 691.46875 80.5224609375 698.072265625 86.9970703125 698.072265625 99.9443359375 c 0
 698.072265625 113.418945312 691.46875 120.15625 678.2578125 120.15625 c 0x3c1e
933.887695312 120.15625 m 0
 920.1484375 120.15625 913.279296875 113.418945312 913.279296875 99.9443359375 c 0
 913.279296875 86.9970703125 920.1484375 80.5224609375 933.887695312 80.5224609375 c 0
 946.5703125 80.5224609375 952.911132812 86.9970703125 952.911132812 99.9443359375 c 0x3c0f
 952.911132812 113.418945312 946.5703125 120.15625 933.887695312 120.15625 c 0
736.517578125 81.7119140625 m 0x5c0e
 723.571289062 81.7119140625 717.09765625 74.8427734375 717.09765625 61.103515625 c 0
 717.09765625 48.4208984375 723.571289062 42.080078125 736.517578125 42.080078125 c 0
 749.993164062 42.080078125 756.729492188 48.94921875 756.729492188 62.6884765625 c 0
 756.729492188 75.3701171875 749.993164062 81.7119140625 736.517578125 81.7119140625 c 0x5c0e
875.231445312 81.7119140625 m 0
 861.4921875 81.7119140625 854.623046875 74.8427734375 854.623046875 61.103515625 c 0
 854.623046875 48.4208984375 861.4921875 42.080078125 875.231445312 42.080078125 c 0
 887.9140625 42.080078125 894.254882812 48.4208984375 894.254882812 61.103515625 c 0
 894.254882812 74.8427734375 887.9140625 81.7119140625 875.231445312 81.7119140625 c 0
805.478515625 67.4453125 m 0x9c0e
 792.267578125 67.4453125 785.662109375 60.970703125 785.662109375 48.0244140625 c 0
 785.662109375 34.548828125 792.267578125 27.8125 805.478515625 27.8125 c 0
 818.689453125 27.8125 825.293945312 34.548828125 825.293945312 48.0244140625 c 0
 825.293945312 60.970703125 818.689453125 67.4453125 805.478515625 67.4453125 c 0x9c0e
EndSplineSet
EndChar

StartChar: uniE048
Encoding: 16 57416 16
Width: 450
VWidth: 924
Flags: W
HStem: 323.756 38.1543<276.167 317.293> 360.766 38.1562<72.3742 113.53 337.079 378.235> 418 38.1543<31.6183 72.7762 377.833 418.991> 484.008 38.1562<16.7982 57.9544 392.654 433.812> 550.018 38.1562<31.6185 72.7762 377.833 418.991> 606.869 38.1562<72.3892 113.53 337.079 378.235> 644.643 38.1562<133.302 174.458 276.152 317.308> 657.998 38.1543<204.521 245.677>
VStem: 16.793 41.168<484.026 522.145> 31.6133 41.168<418.005 456.15 550.037 588.169> 72.3691 41.166<360.77 398.917 606.874 645.02> 133.297 41.166<325.541 361.905 644.647 682.794> 204.516 41.166<325.412 348.169 658.003 696.148> 276.146 41.166<323.774 361.891 644.661 682.78> 337.074 41.166<360.784 398.903 606.888 645.007> 377.828 41.168<418.005 456.15 550.022 588.169> 392.648 41.168<484.026 522.145>
LayerCount: 2
Fore
SplineSet
225.099609375 696.15234375 m 4x391c
 211.377929688 696.15234375 204.515625 689.920898438 204.515625 677.45703125 c 4
 204.515625 664.484375 211.377929688 657.998046875 225.099609375 657.998046875 c 4
 238.822265625 657.998046875 245.681640625 664.484375 245.681640625 677.45703125 c 4
 245.681640625 689.920898438 238.822265625 696.15234375 225.099609375 696.15234375 c 4x391c
153.46875 682.798828125 m 4x3a1c
 140.021484375 682.798828125 133.296875 676.3125 133.296875 663.33984375 c 4
 133.296875 650.875 140.021484375 644.642578125 153.46875 644.642578125 c 4
 167.465820312 644.642578125 174.462890625 650.875 174.462890625 663.33984375 c 4
 174.462890625 676.3125 167.465820312 682.798828125 153.46875 682.798828125 c 4x3a1c
297.552734375 682.798828125 m 4
 283.282226562 682.798828125 276.146484375 676.3125 276.146484375 663.33984375 c 4
 276.146484375 650.875 283.282226562 644.642578125 297.552734375 644.642578125 c 4
 310.7265625 644.642578125 317.3125 650.875 317.3125 663.33984375 c 4
 317.3125 676.3125 310.7265625 682.798828125 297.552734375 682.798828125 c 4
92.953125 645.025390625 m 4x3c3c
 79.2314453125 645.025390625 72.369140625 638.284179688 72.369140625 624.802734375 c 4
 72.369140625 612.846679688 79.2314453125 606.869140625 92.953125 606.869140625 c 4
 106.67578125 606.869140625 113.53515625 613.228515625 113.53515625 625.947265625 c 4
 113.53515625 638.666015625 106.67578125 645.025390625 92.953125 645.025390625 c 4x3c3c
358.48046875 645.025390625 m 4
 344.209960938 645.025390625 337.07421875 638.666015625 337.07421875 625.947265625 c 4
 337.07421875 613.228515625 344.209960938 606.869140625 358.48046875 606.869140625 c 4
 371.654296875 606.869140625 378.240234375 613.228515625 378.240234375 625.947265625 c 4x3c1e
 378.240234375 638.666015625 371.654296875 645.025390625 358.48046875 645.025390625 c 4
52.197265625 588.173828125 m 4
 38.4755859375 588.173828125 31.61328125 581.940429688 31.61328125 569.4765625 c 4
 31.61328125 556.50390625 38.7490234375 550.017578125 53.01953125 550.017578125 c 4
 66.193359375 550.017578125 72.78125 556.50390625 72.78125 569.4765625 c 4x385c
 72.78125 581.940429688 65.919921875 588.173828125 52.197265625 588.173828125 c 4
398.82421875 588.173828125 m 4
 384.828125 588.173828125 377.828125 581.940429688 377.828125 569.4765625 c 4
 377.828125 556.50390625 384.552734375 550.017578125 398 550.017578125 c 4
 411.997070312 550.017578125 418.99609375 556.50390625 418.99609375 569.4765625 c 4x381d
 418.99609375 581.940429688 412.272460938 588.173828125 398.82421875 588.173828125 c 4
38.19921875 522.1640625 m 4
 23.9287109375 522.1640625 16.79296875 515.8046875 16.79296875 503.0859375 c 4
 16.79296875 490.3671875 23.9287109375 484.0078125 38.19921875 484.0078125 c 4
 51.6474609375 484.0078125 58.236328125 490.3671875 57.9609375 503.0859375 c 4x389c
 58.236328125 515.8046875 51.6474609375 522.1640625 38.19921875 522.1640625 c 4
414.056640625 522.1640625 m 4
 399.786132812 522.1640625 392.6484375 515.8046875 392.6484375 503.0859375 c 4
 392.6484375 490.3671875 399.786132812 484.0078125 414.056640625 484.0078125 c 4
 427.23046875 484.0078125 433.81640625 490.3671875 433.81640625 503.0859375 c 4x381c80
 433.81640625 515.8046875 427.23046875 522.1640625 414.056640625 522.1640625 c 4
52.197265625 456.154296875 m 4
 38.4755859375 456.154296875 31.61328125 449.66796875 31.61328125 436.6953125 c 4
 31.61328125 424.231445312 38.4755859375 418 52.197265625 418 c 4
 65.919921875 418 72.78125 424.231445312 72.78125 436.6953125 c 4x385c
 72.78125 449.66796875 65.919921875 456.154296875 52.197265625 456.154296875 c 4
398 456.154296875 m 4
 384.552734375 456.154296875 377.828125 449.66796875 377.828125 436.6953125 c 4
 377.828125 424.231445312 384.552734375 418 398 418 c 4
 411.997070312 418 418.99609375 424.231445312 418.99609375 436.6953125 c 4x381d
 418.99609375 449.66796875 411.997070312 456.154296875 398 456.154296875 c 4
92.953125 398.921875 m 4x783c
 79.2314453125 398.921875 72.369140625 392.435546875 72.369140625 379.462890625 c 4
 72.369140625 366.999023438 79.2314453125 360.765625 92.953125 360.765625 c 4
 106.67578125 360.765625 113.53515625 366.999023438 113.53515625 379.462890625 c 4
 113.53515625 392.435546875 106.67578125 398.921875 92.953125 398.921875 c 4x783c
358.48046875 398.921875 m 4
 344.209960938 398.921875 337.07421875 392.435546875 337.07421875 379.462890625 c 4
 337.07421875 366.999023438 344.209960938 360.765625 358.48046875 360.765625 c 4
 371.654296875 360.765625 378.240234375 366.999023438 378.240234375 379.462890625 c 4x781e
 378.240234375 392.435546875 371.654296875 398.921875 358.48046875 398.921875 c 4
153.46875 361.91015625 m 4xb81c
 140.021484375 361.91015625 133.296875 355.296875 133.296875 342.0703125 c 4
 133.296875 331.27734375 138.572265625 325.2734375 149.080078125 324.021484375 c 5
 120.27734375 314.419921875 l 5
 90.048828125 284.189453125 l 5
 79.0546875 253.9609375 l 5
 76.306640625 201.74609375 l 5
 76.306640625 157.775390625 l 5
 81.8046875 97.31640625 l 5
 95.544921875 69.8359375 l 5
 136.765625 34.109375 l 5
 164.248046875 17.62109375 l 5
 208.21875 1.1328125 l 5
 252.1875 3.880859375 l 5
 290.662109375 23.1171875 l 5
 320.890625 56.09375 l 5
 353.869140625 97.31640625 l 5
 367.609375 135.791015625 l 5
 373.103515625 179.76171875 l 5
 364.859375 237.47265625 l 5
 340.12890625 273.197265625 l 5
 309.896484375 300.6796875 l 5
 268.677734375 322.6640625 l 5
 245.0625 323.69140625 l 5
 245.430664062 325.467773438 245.681640625 327.353515625 245.681640625 329.478515625 c 4
 245.681640625 341.942382812 238.822265625 348.173828125 225.099609375 348.173828125 c 4
 211.377929688 348.173828125 204.515625 341.942382812 204.515625 329.478515625 c 4
 204.515625 328.032226562 204.630859375 326.696289062 204.80078125 325.412109375 c 5
 163.626953125 325.412109375 l 5
 170.80859375 328.099609375 174.462890625 334.12109375 174.462890625 343.595703125 c 4
 174.462890625 355.805664062 167.465820312 361.91015625 153.46875 361.91015625 c 4xb81c
297.552734375 361.91015625 m 4
 283.282226562 361.91015625 276.146484375 355.296875 276.146484375 342.0703125 c 4
 276.146484375 329.860351562 283.282226562 323.755859375 297.552734375 323.755859375 c 4
 310.7265625 323.755859375 317.3125 329.860351562 317.3125 342.0703125 c 4
 317.3125 355.296875 310.7265625 361.91015625 297.552734375 361.91015625 c 4
241.1953125 253.9609375 m 5
 260.43359375 229.2265625 l 5
 276.921875 201.74609375 l 5
 276.921875 168.767578125 l 5
 268.677734375 144.03515625 l 5
 254.935546875 119.302734375 l 5
 232.951171875 100.064453125 l 5
 202.72265625 97.31640625 l 5
 183.484375 102.8125 l 5
 180.734375 130.294921875 l 5
 180.734375 152.279296875 l 5
 186.232421875 185.2578125 l 5
 199.974609375 234.72265625 l 5
 219.208984375 251.212890625 l 5
 241.1953125 253.9609375 l 5
EndSplineSet
EndChar

StartChar: uniE049
Encoding: 17 57417 17
Width: 1208
VWidth: 924
Flags: W
HStem: -135.773 39.6338<976.604 1016.23> -121.505 39.6309<908.052 947.647 1045.58 1085.17> -83.0625 39.6338<849.382 889.006 1104.22 1143.84> -23.6123 39.6318<810.146 849.769 1143.46 1183.08> 44.9512 39.6328<795.879 835.499 1157.73 1197.35> 113.517 39.6328<810.147 849.769 1143.46 1183.08> 172.569 39.6328<849.396 889.006 1104.22 1143.84> 199.393 102.3<161.6 213.503> 211.807 39.6318<1045.57 1085.19> 225.678 39.6328<976.604 1016.23> 255.926 45.7666<945.205 969.535>
VStem: 795.874 39.6318<44.9705 84.5646> 810.142 39.6318<-23.6076 16.0146 113.536 153.145> 849.377 39.6338<-83.0578 -43.4336 172.574 212.197> 908.033 39.6338<-121.5 -81.8791 211.811 238.379> 976.6 39.6318<-135.769 -96.1444 225.683 265.306> 1045.56 39.6318<-121.486 -81.8941 211.826 251.419> 1104.22 39.6338<-83.0435 -43.4484 172.589 212.183> 1143.45 39.6338<-23.6076 16.0146 113.522 153.145> 1157.72 39.6338<44.9705 84.5646>
LayerCount: 2
Fore
SplineSet
360.716796875 304.384765625 m 1x1ca380
 268.396484375 301.692382812 l 1x1ca380
 193.54296875 301.692382812 l 1x1d0380
 133.658203125 301.692382812 l 1
 86.2490234375 285.5390625 l 1
 48.8232421875 266.694335938 l 1
 13.890625 255.92578125 l 1x1c2380
 11.3955078125 226.314453125 l 1
 33.8525390625 199.392578125 l 1
 58.8046875 172.471679688 l 1
 91.240234375 156.318359375 l 1
 118.686523438 164.395507812 l 1
 153.620117188 191.31640625 l 1
 213.502929688 199.392578125 l 1
 248.435546875 199.392578125 l 1x1d0380
 233.463867188 153.626953125 l 1
 225.978515625 107.862304688 l 1
 235.958984375 51.3271484375 l 1
 265.901367188 27.09765625 l 1
 318.30078125 -5.2080078125 l 1
 373.193359375 2.869140625 l 1
 423.096679688 27.09765625 l 1
 463.018554688 37.8662109375 l 1
 500.446289062 2.869140625 l 1
 535.37890625 -18.66796875 l 1
 585.283203125 -42.8955078125 l 1
 637.6796875 -53.6640625 l 1
 682.59375 -40.203125 l 1
 725.009765625 -10.591796875 l 1
 752.45703125 29.7900390625 l 1
 769.923828125 72.8642578125 l 1
 769.923828125 118.62890625 l 1
 764.93359375 169.779296875 l 1
 759.942382812 196.701171875 l 1
 759.942382812 223.622070312 l 1
 799.866210938 234.390625 l 1
 849.767578125 231.698242188 l 1
 894.681640625 234.390625 l 1
 908.896484375 238.48046875 l 1
 908.370117188 236.311523438 908.033203125 233.943359375 908.033203125 231.225585938 c 0
 908.033203125 218.279296875 914.506835938 211.806640625 927.454101562 211.806640625 c 0
 940.928710938 211.806640625 947.666992188 218.279296875 947.666992188 231.225585938 c 0
 947.666992188 238.961914062 945.369140625 244.400390625 940.927734375 247.6953125 c 1
 969.53515625 255.92578125 l 1
 984.506835938 282.84765625 l 1
 984.506835938 301.692382812 l 1
 934.604492188 304.384765625 l 1
 882.205078125 301.692382812 l 1
 812.341796875 299 l 1
 730 299 l 1
 642.670898438 290.923828125 l 1
 562.826171875 290.923828125 l 1
 458.029296875 290.923828125 l 1
 360.716796875 304.384765625 l 1x1ca380
996.415039062 265.310546875 m 0x1c4380
 983.204101562 265.310546875 976.599609375 258.8359375 976.599609375 245.889648438 c 0
 976.599609375 232.4140625 983.204101562 225.677734375 996.415039062 225.677734375 c 0
 1009.62597656 225.677734375 1016.23144531 232.4140625 1016.23144531 245.889648438 c 0
 1016.23144531 258.8359375 1009.62597656 265.310546875 996.415039062 265.310546875 c 0x1c4380
1066.16894531 251.438476562 m 0x1c8380
 1052.4296875 251.438476562 1045.56054688 244.701171875 1045.56054688 231.225585938 c 0
 1045.56054688 218.279296875 1052.4296875 211.806640625 1066.16894531 211.806640625 c 0
 1078.8515625 211.806640625 1085.19238281 218.279296875 1085.19238281 231.225585938 c 0
 1085.19238281 244.701171875 1078.8515625 251.438476562 1066.16894531 251.438476562 c 0x1c8380
575.301757812 218.23828125 m 1
 602.747070312 210.161132812 l 1
 627.69921875 191.31640625 l 1
 657.641601562 159.010742188 l 1
 665.126953125 137.473632812 l 1
 670.1171875 118.62890625 l 1
 670.1171875 86.3251953125 l 1
 665.126953125 64.7880859375 l 1
 652.651367188 43.2509765625 l 1
 627.69921875 32.482421875 l 1
 607.737304688 32.482421875 l 1
 577.796875 45.943359375 l 1
 555.340820312 70.171875 l 1
 550.350585938 94.4013671875 l 1
 547.854492188 126.705078125 l 1
 550.350585938 159.010742188 l 1
 555.340820312 199.392578125 l 1x1d0380
 575.301757812 218.23828125 l 1
403.135742188 215.545898438 m 1
 425.591796875 215.545898438 l 1
 440.563476562 204.77734375 l 1
 440.563476562 172.471679688 l 1
 428.087890625 137.473632812 l 1
 405.630859375 107.862304688 l 1
 363.211914062 99.7861328125 l 1
 348.241210938 110.5546875 l 1
 348.241210938 129.397460938 l 1
 360.716796875 159.010742188 l 1
 375.688476562 196.701171875 l 1
 403.135742188 215.545898438 l 1
869.193359375 212.202148438 m 0x1e0780
 855.982421875 212.202148438 849.376953125 205.200195312 849.376953125 191.197265625 c 0
 849.376953125 178.778320312 855.982421875 172.569335938 869.193359375 172.569335938 c 0
 882.404296875 172.569335938 889.010742188 179.174804688 889.010742188 192.385742188 c 0
 889.010742188 205.596679688 882.404296875 212.202148438 869.193359375 212.202148438 c 0x1e0780
1124.82617188 212.202148438 m 0
 1111.08691406 212.202148438 1104.21582031 205.596679688 1104.21582031 192.385742188 c 0
 1104.21582031 179.174804688 1111.08691406 172.569335938 1124.82617188 172.569335938 c 0
 1137.50878906 172.569335938 1143.84960938 179.174804688 1143.84960938 192.385742188 c 0x1e03c0
 1143.84960938 205.596679688 1137.50878906 212.202148438 1124.82617188 212.202148438 c 0
829.95703125 153.149414062 m 0
 816.74609375 153.149414062 810.141601562 146.67578125 810.141601562 133.728515625 c 0
 810.141601562 120.25390625 817.010742188 113.516601562 830.75 113.516601562 c 0
 843.432617188 113.516601562 849.7734375 120.25390625 849.7734375 133.728515625 c 0x1c0b80
 849.7734375 146.67578125 843.16796875 153.149414062 829.95703125 153.149414062 c 0
1163.66601562 153.149414062 m 0
 1150.19140625 153.149414062 1143.45214844 146.67578125 1143.45214844 133.728515625 c 0
 1143.45214844 120.25390625 1149.92578125 113.516601562 1162.87304688 113.516601562 c 0
 1176.34765625 113.516601562 1183.0859375 120.25390625 1183.0859375 133.728515625 c 0x1c03a0
 1183.0859375 146.67578125 1176.61230469 153.149414062 1163.66601562 153.149414062 c 0
816.482421875 84.583984375 m 0
 802.743164062 84.583984375 795.874023438 77.978515625 795.874023438 64.767578125 c 0
 795.874023438 51.556640625 802.743164062 44.951171875 816.482421875 44.951171875 c 0
 829.428710938 44.951171875 835.76953125 51.556640625 835.505859375 64.767578125 c 0x1c1380
 835.76953125 77.978515625 829.428710938 84.583984375 816.482421875 84.583984375 c 0
1178.32910156 84.583984375 m 0
 1164.58984375 84.583984375 1157.72070312 77.978515625 1157.72070312 64.767578125 c 0
 1157.72070312 51.556640625 1164.58984375 44.951171875 1178.32910156 44.951171875 c 0
 1191.01171875 44.951171875 1197.35449219 51.556640625 1197.35449219 64.767578125 c 0x1c0390
 1197.35449219 77.978515625 1191.01171875 84.583984375 1178.32910156 84.583984375 c 0
829.95703125 16.01953125 m 0
 816.74609375 16.01953125 810.141601562 9.2822265625 810.141601562 -4.193359375 c 0
 810.141601562 -17.1396484375 816.74609375 -23.6123046875 829.95703125 -23.6123046875 c 0
 843.16796875 -23.6123046875 849.7734375 -17.1396484375 849.7734375 -4.193359375 c 0x1c0b80
 849.7734375 9.2822265625 843.16796875 16.01953125 829.95703125 16.01953125 c 0
1162.87304688 16.01953125 m 0
 1149.92578125 16.01953125 1143.45214844 9.2822265625 1143.45214844 -4.193359375 c 0
 1143.45214844 -17.1396484375 1149.92578125 -23.6123046875 1162.87304688 -23.6123046875 c 0
 1176.34765625 -23.6123046875 1183.0859375 -17.1396484375 1183.0859375 -4.193359375 c 0x1c03a0
 1183.0859375 9.2822265625 1176.34765625 16.01953125 1162.87304688 16.01953125 c 0
869.193359375 -43.4287109375 m 0x3c0780
 855.982421875 -43.4287109375 849.376953125 -50.166015625 849.376953125 -63.6416015625 c 0
 849.376953125 -76.587890625 855.982421875 -83.0625 869.193359375 -83.0625 c 0
 882.404296875 -83.0625 889.010742188 -76.587890625 889.010742188 -63.6416015625 c 0
 889.010742188 -50.166015625 882.404296875 -43.4287109375 869.193359375 -43.4287109375 c 0x3c0780
1124.82617188 -43.4287109375 m 0
 1111.08691406 -43.4287109375 1104.21582031 -50.166015625 1104.21582031 -63.6416015625 c 0
 1104.21582031 -76.587890625 1111.08691406 -83.0625 1124.82617188 -83.0625 c 0
 1137.50878906 -83.0625 1143.84960938 -76.587890625 1143.84960938 -63.6416015625 c 0x3c03c0
 1143.84960938 -50.166015625 1137.50878906 -43.4287109375 1124.82617188 -43.4287109375 c 0
927.454101562 -81.8740234375 m 0x5c0380
 914.506835938 -81.8740234375 908.033203125 -88.7421875 908.033203125 -102.481445312 c 0
 908.033203125 -115.1640625 914.506835938 -121.504882812 927.454101562 -121.504882812 c 0
 940.928710938 -121.504882812 947.666992188 -114.63671875 947.666992188 -100.897460938 c 0
 947.666992188 -88.21484375 940.928710938 -81.8740234375 927.454101562 -81.8740234375 c 0x5c0380
1066.16894531 -81.8740234375 m 0
 1052.4296875 -81.8740234375 1045.56054688 -88.7421875 1045.56054688 -102.481445312 c 0
 1045.56054688 -115.1640625 1052.4296875 -121.504882812 1066.16894531 -121.504882812 c 0
 1078.8515625 -121.504882812 1085.19238281 -115.1640625 1085.19238281 -102.481445312 c 0
 1085.19238281 -88.7421875 1078.8515625 -81.8740234375 1066.16894531 -81.8740234375 c 0
996.415039062 -96.1396484375 m 0x9c0380
 983.204101562 -96.1396484375 976.599609375 -102.614257812 976.599609375 -115.560546875 c 0
 976.599609375 -129.036132812 983.204101562 -135.7734375 996.415039062 -135.7734375 c 0
 1009.62597656 -135.7734375 1016.23144531 -129.036132812 1016.23144531 -115.560546875 c 0
 1016.23144531 -102.614257812 1009.62597656 -96.1396484375 996.415039062 -96.1396484375 c 0x9c0380
EndSplineSet
EndChar

StartChar: uniE050
Encoding: 18 57424 18
Width: 752
VWidth: 924
Flags: W
HStem: -188.932 39.6338<513.999 553.623> -174.664 39.6338<445.449 485.042 582.975 622.57> -136.221 39.6328<386.777 426.401 641.617 681.239> -76.7705 39.6328<347.541 387.165 680.853 720.476> -8.20508 39.6309<333.274 372.895 695.121 734.743> 60.3574 39.6338<347.541 387.165 680.854 720.476> 119.41 39.6338<386.792 426.401 641.617 681.239> 158.648 39.6309<445.434 485.057 582.96 622.584>
VStem: 333.269 39.6328<-8.18573 31.4064> 347.536 39.6338<-76.7658 -37.1426 60.3772 99.9865> 386.772 39.6338<-136.216 -96.5928 119.415 159.039> 445.43 39.6318<-174.659 -135.035 158.653 198.274> 513.994 39.6338<-188.927 -149.303 172.523 205.961> 582.955 39.6338<-174.645 -135.05 158.667 198.26> 641.612 39.6309<-136.202 -96.6076 119.43 159.025> 680.849 39.6318<-76.7658 -37.1426 60.3624 99.9865> 695.116 39.6318<-8.18573 31.4064>
LayerCount: 2
Fore
SplineSet
117.779296875 304.701171875 m 1x1c1c
 68.3076171875 287.92578125 l 1
 34.384765625 229.9765625 l 1
 18.8359375 178.124023438 l 1
 11.76953125 121.69921875 l 1
 24.490234375 71.3740234375 l 1
 49.9326171875 30.1982421875 l 1
 88.6376953125 16.4072265625 l 1
 128.21484375 1.1572265625 l 1
 174.858398438 -6.46875 l 1
 221.501953125 4.2060546875 l 1
 257.7109375 10.3720703125 l 1
 295.874023438 51.546875 l 1
 315.663085938 88.1494140625 l 1
 315.663085938 129.325195312 l 1
 310.008789062 179.649414062 l 1
 324.142578125 188.799804688 l 1
 351 201 l 1
 413.19140625 204.049804688 l 1
 509.306640625 207.100585938 l 1
 518.612304688 206.87109375 l 1
 515.561523438 203.639648438 513.994140625 198.952148438 513.994140625 192.731445312 c 0
 513.994140625 179.255859375 520.599609375 172.518554688 533.810546875 172.518554688 c 0
 547.021484375 172.518554688 553.627929688 179.255859375 553.627929688 192.731445312 c 0
 553.627929688 198.501953125 552.239257812 202.9140625 549.615234375 206.112304688 c 1
 571.5 205.575195312 l 1
 581.39453125 220.825195312 l 1
 585.634765625 245.2265625 l 1
 572.912109375 278.776367188 l 1
 543.229492188 277.252929688 l 1
 485.27734375 275.7265625 l 1
 386.336914062 274.201171875 l 1
 294.461914062 272.67578125 l 1
 232.268554688 272.67578125 l 1
 209.653320312 294.026367188 l 1
 160.182617188 303.177734375 l 1
 117.779296875 304.701171875 l 1x1c1c
155.942382812 207.100585938 m 1
 185.625 201 l 1
 203.999023438 188.799804688 l 1
 222.374023438 173.549804688 l 1
 232.268554688 144.575195312 l 1
 229.442382812 117.124023438 l 1
 211.067382812 98.8232421875 l 1
 192.69140625 78.998046875 l 1
 168.662109375 65.2734375 l 1
 143.221679688 65.2734375 l 1
 123.432617188 68.322265625 l 1
 110.7109375 75.94921875 l 1
 96.576171875 107.974609375 l 1
 92.3359375 127.798828125 l 1
 102.23046875 161.350585938 l 1
 117.779296875 187.276367188 l 1
 136.153320312 196.42578125 l 1
 155.942382812 207.100585938 l 1
464.849609375 198.279296875 m 0x1d1c
 451.903320312 198.279296875 445.4296875 191.54296875 445.4296875 178.067382812 c 0
 445.4296875 165.12109375 451.903320312 158.6484375 464.849609375 158.6484375 c 0
 478.325195312 158.6484375 485.061523438 165.12109375 485.061523438 178.067382812 c 0
 485.061523438 191.54296875 478.325195312 198.279296875 464.849609375 198.279296875 c 0x1d1c
603.563476562 198.279296875 m 0
 589.82421875 198.279296875 582.955078125 191.54296875 582.955078125 178.067382812 c 0
 582.955078125 165.12109375 589.82421875 158.6484375 603.563476562 158.6484375 c 0
 616.24609375 158.6484375 622.588867188 165.12109375 622.588867188 178.067382812 c 0
 622.588867188 191.54296875 616.24609375 198.279296875 603.563476562 198.279296875 c 0
406.58984375 159.043945312 m 0x1e3c
 393.37890625 159.043945312 386.772460938 152.041992188 386.772460938 138.038085938 c 0
 386.772460938 125.620117188 393.37890625 119.41015625 406.58984375 119.41015625 c 0
 419.80078125 119.41015625 426.40625 126.016601562 426.40625 139.227539062 c 0
 426.40625 152.438476562 419.80078125 159.043945312 406.58984375 159.043945312 c 0x1e3c
662.220703125 159.043945312 m 0
 648.48046875 159.043945312 641.612304688 152.438476562 641.612304688 139.227539062 c 0
 641.612304688 126.016601562 648.48046875 119.41015625 662.220703125 119.41015625 c 0
 674.90234375 119.41015625 681.243164062 126.016601562 681.243164062 139.227539062 c 0x1e1e
 681.243164062 152.438476562 674.90234375 159.043945312 662.220703125 159.043945312 c 0
367.352539062 99.9912109375 m 0
 354.141601562 99.9912109375 347.536132812 93.5166015625 347.536132812 80.5703125 c 0
 347.536132812 67.0947265625 354.407226562 60.357421875 368.146484375 60.357421875 c 0
 380.829101562 60.357421875 387.169921875 67.0947265625 387.169921875 80.5703125 c 0x1c5c
 387.169921875 93.5166015625 380.563476562 99.9912109375 367.352539062 99.9912109375 c 0
701.060546875 99.9912109375 m 0
 687.584960938 99.9912109375 680.848632812 93.5166015625 680.848632812 80.5703125 c 0
 680.848632812 67.0947265625 687.322265625 60.357421875 700.268554688 60.357421875 c 0
 713.744140625 60.357421875 720.48046875 67.0947265625 720.48046875 80.5703125 c 0x1c1d
 720.48046875 93.5166015625 714.006835938 99.9912109375 701.060546875 99.9912109375 c 0
353.87890625 31.42578125 m 0
 340.138671875 31.42578125 333.268554688 24.8203125 333.268554688 11.609375 c 0
 333.268554688 -1.6015625 340.138671875 -8.205078125 353.87890625 -8.205078125 c 0
 366.825195312 -8.205078125 373.166015625 -1.6015625 372.901367188 11.609375 c 0x1c9c
 373.166015625 24.8203125 366.825195312 31.42578125 353.87890625 31.42578125 c 0
715.724609375 31.42578125 m 0
 701.985351562 31.42578125 695.116210938 24.8203125 695.116210938 11.609375 c 0
 695.116210938 -1.6015625 701.985351562 -8.205078125 715.724609375 -8.205078125 c 0
 728.407226562 -8.205078125 734.748046875 -1.6015625 734.748046875 11.609375 c 0x1c1c80
 734.748046875 24.8203125 728.407226562 31.42578125 715.724609375 31.42578125 c 0
367.352539062 -37.1376953125 m 0
 354.141601562 -37.1376953125 347.536132812 -43.876953125 347.536132812 -57.3515625 c 0
 347.536132812 -70.298828125 354.141601562 -76.7705078125 367.352539062 -76.7705078125 c 0
 380.563476562 -76.7705078125 387.169921875 -70.298828125 387.169921875 -57.3515625 c 0x1c5c
 387.169921875 -43.876953125 380.563476562 -37.1376953125 367.352539062 -37.1376953125 c 0
700.268554688 -37.1376953125 m 0
 687.322265625 -37.1376953125 680.848632812 -43.876953125 680.848632812 -57.3515625 c 0
 680.848632812 -70.298828125 687.322265625 -76.7705078125 700.268554688 -76.7705078125 c 0
 713.744140625 -76.7705078125 720.48046875 -70.298828125 720.48046875 -57.3515625 c 0x1c1d
 720.48046875 -43.876953125 713.744140625 -37.1376953125 700.268554688 -37.1376953125 c 0
406.58984375 -96.587890625 m 0x3c3c
 393.37890625 -96.587890625 386.772460938 -103.325195312 386.772460938 -116.799804688 c 0
 386.772460938 -129.74609375 393.37890625 -136.220703125 406.58984375 -136.220703125 c 0
 419.80078125 -136.220703125 426.40625 -129.74609375 426.40625 -116.799804688 c 0
 426.40625 -103.325195312 419.80078125 -96.587890625 406.58984375 -96.587890625 c 0x3c3c
662.220703125 -96.587890625 m 0
 648.48046875 -96.587890625 641.612304688 -103.325195312 641.612304688 -116.799804688 c 0
 641.612304688 -129.74609375 648.48046875 -136.220703125 662.220703125 -136.220703125 c 0
 674.90234375 -136.220703125 681.243164062 -129.74609375 681.243164062 -116.799804688 c 0x3c1e
 681.243164062 -103.325195312 674.90234375 -96.587890625 662.220703125 -96.587890625 c 0
464.849609375 -135.030273438 m 0x5c1c
 451.903320312 -135.030273438 445.4296875 -141.900390625 445.4296875 -155.639648438 c 0
 445.4296875 -168.322265625 451.903320312 -174.6640625 464.849609375 -174.6640625 c 0
 478.325195312 -174.6640625 485.061523438 -167.794921875 485.061523438 -154.055664062 c 0
 485.061523438 -141.373046875 478.325195312 -135.030273438 464.849609375 -135.030273438 c 0x5c1c
603.563476562 -135.030273438 m 0
 589.82421875 -135.030273438 582.955078125 -141.900390625 582.955078125 -155.639648438 c 0
 582.955078125 -168.322265625 589.82421875 -174.6640625 603.563476562 -174.6640625 c 0
 616.24609375 -174.6640625 622.588867188 -168.322265625 622.588867188 -155.639648438 c 0
 622.588867188 -141.900390625 616.24609375 -135.030273438 603.563476562 -135.030273438 c 0
533.810546875 -149.297851562 m 0x9c1c
 520.599609375 -149.297851562 513.994140625 -155.772460938 513.994140625 -168.719726562 c 0
 513.994140625 -182.194335938 520.599609375 -188.931640625 533.810546875 -188.931640625 c 0
 547.021484375 -188.931640625 553.627929688 -182.194335938 553.627929688 -168.719726562 c 0
 553.627929688 -155.772460938 547.021484375 -149.297851562 533.810546875 -149.297851562 c 0x9c1c
EndSplineSet
EndChar

StartChar: uniE051
Encoding: 19 57425 19
Width: 817
VWidth: 924
Flags: W
HStem: 1.1875 90.2988<155.035 198.579> 12.498 39.6328<582.829 622.451> 26.7656 39.6318<514.279 553.872 651.805 691.398> 65.209 39.6328<455.608 495.231 710.447 750.07> 124.659 39.6309<416.371 455.995 749.682 789.306> 193.224 39.6318<402.104 441.726 763.95 803.574> 261.787 39.6338<416.371 455.995 749.683 789.306> 320.84 39.6338<455.623 495.231 710.447 750.07> 360.078 39.6309<514.265 553.887 651.79 691.412> 373.948 39.6338<582.829 622.451>
VStem: 402.099 39.6338<193.243 232.836> 416.366 39.6338<124.664 164.285 261.807 301.416> 455.604 39.6318<65.2137 104.837 320.845 360.469> 514.26 39.6318<26.7707 66.3924 360.083 399.704> 582.824 39.6318<12.503 52.1261 373.953 413.577> 651.785 39.6318<26.7842 66.3773 360.097 399.689> 710.442 39.6318<65.228 104.822 320.859 360.454> 749.678 39.6328<124.664 164.285 261.792 301.416> 763.945 39.6338<193.243 232.836>
LayerCount: 2
Fore
SplineSet
602.641601562 413.58203125 m 0x0e47
 589.430664062 413.58203125 582.82421875 407.107421875 582.82421875 394.16015625 c 0
 582.82421875 380.685546875 589.430664062 373.948242188 602.641601562 373.948242188 c 0
 615.852539062 373.948242188 622.456054688 380.685546875 622.456054688 394.16015625 c 0
 622.456054688 407.107421875 615.852539062 413.58203125 602.641601562 413.58203125 c 0x0e47
533.680664062 399.708984375 m 0x0e87
 520.733398438 399.708984375 514.259765625 392.971679688 514.259765625 379.497070312 c 0
 514.259765625 366.549804688 520.733398438 360.078125 533.680664062 360.078125 c 0
 547.155273438 360.078125 553.891601562 366.549804688 553.891601562 379.497070312 c 0
 553.891601562 392.971679688 547.155273438 399.708984375 533.680664062 399.708984375 c 0x0e87
672.393554688 399.708984375 m 0
 658.654296875 399.708984375 651.78515625 392.971679688 651.78515625 379.497070312 c 0
 651.78515625 366.549804688 658.654296875 360.078125 672.393554688 360.078125 c 0
 685.076171875 360.078125 691.416992188 366.549804688 691.416992188 379.497070312 c 0
 691.416992188 392.971679688 685.076171875 399.708984375 672.393554688 399.708984375 c 0
475.419921875 360.473632812 m 0x0f0f
 462.208984375 360.473632812 455.603515625 353.471679688 455.603515625 339.467773438 c 0
 455.603515625 327.049804688 462.208984375 320.83984375 475.419921875 320.83984375 c 0
 488.630859375 320.83984375 495.235351562 327.4453125 495.235351562 340.65625 c 0
 495.235351562 353.8671875 488.630859375 360.473632812 475.419921875 360.473632812 c 0x0f0f
731.05078125 360.473632812 m 0
 717.311523438 360.473632812 710.442382812 353.8671875 710.442382812 340.65625 c 0
 710.442382812 327.4453125 717.311523438 320.83984375 731.05078125 320.83984375 c 0
 743.733398438 320.83984375 750.07421875 327.4453125 750.07421875 340.65625 c 0x0f0780
 750.07421875 353.8671875 743.733398438 360.473632812 731.05078125 360.473632812 c 0
99.998046875 346.30078125 m 2
 79.361328125 335.168945312 l 1
 48.4072265625 303.006835938 l 1
 32.3544921875 278.266601562 l 1
 17.451171875 263.424804688 l 1
 12.865234375 247.342773438 l 1
 12.865234375 227.552734375 l 1
 18.5986328125 210.235351562 l 1
 28.916015625 207.759765625 l 1
 40.3798828125 211.47265625 l 1
 51.8466796875 220.130859375 l 1
 57.5771484375 200.338867188 l 1
 55.28515625 163.231445312 l 1
 52.9912109375 132.306640625 l 1
 55.28515625 95.197265625 l 1
 56.4326171875 71.6943359375 l 1
 67.896484375 54.376953125 l 1
 83.947265625 39.53515625 l 1
 113.755859375 20.9794921875 l 1
 143.5625 7.373046875 l 1
 173.372070312 1.1875 l 1
 204.326171875 -0.0498046875 l 1
 237.573242188 2.4248046875 l 1
 270.821289062 13.556640625 l 1
 299.483398438 23.453125 l 1
 326.998046875 35.822265625 l 1
 344.196289062 39.53515625 l 1
 368.271484375 70.458984375 l 1
 382.030273438 91.486328125 l 1
 384.322265625 128.594726562 l 1
 384.322265625 128.594726562 383.176757812 150.861328125 383.176757812 158.283203125 c 0
 383.176757812 165.705078125 393.494140625 186.732421875 393.494140625 186.732421875 c 1
 404.958984375 246.107421875 l 1
 407.252929688 280.7421875 l 1
 410.69140625 305.48046875 l 1
 410.69140625 305.48046875 404.959960938 315.375976562 400.374023438 322.797851562 c 0
 395.788085938 330.219726562 382.030273438 324.03515625 382.030273438 324.03515625 c 1
 340.756835938 316.614257812 l 1
 320.120117188 309.190429688 l 1
 310.948242188 284.452148438 l 1
 300.630859375 257.239257812 l 1
 290.311523438 213.9453125 l 1
 278.846679688 163.231445312 l 1
 259.357421875 126.12109375 l 1
 242.16015625 105.09375 l 1
 219.231445312 91.486328125 l 1
 198.594726562 89.01171875 l 2
 198.594726562 89.01171875 176.8125 91.486328125 171.080078125 91.486328125 c 0x8e07
 165.34765625 91.486328125 155.02734375 93.9599609375 155.02734375 93.9599609375 c 1
 149.295898438 129.83203125 l 1
 152.735351562 159.518554688 l 1
 156.174804688 207.759765625 l 1
 167.638671875 220.130859375 l 1
 166.493164062 263.424804688 l 1
 166.493164062 305.48046875 l 1
 166.493164062 336.404296875 l 1
 166.493164062 336.404296875 156.17578125 342.58984375 150.443359375 342.58984375 c 0
 144.7109375 342.58984375 130.951171875 345.063476562 126.365234375 345.063476562 c 0
 121.779296875 345.063476562 99.998046875 346.30078125 99.998046875 346.30078125 c 2
436.18359375 301.420898438 m 0
 422.97265625 301.420898438 416.366210938 294.946289062 416.366210938 282 c 0
 416.366210938 268.524414062 423.235351562 261.787109375 436.974609375 261.787109375 c 0
 449.657226562 261.787109375 456 268.524414062 456 282 c 0x0e17
 456 294.946289062 449.39453125 301.420898438 436.18359375 301.420898438 c 0
769.890625 301.420898438 m 0
 756.416015625 301.420898438 749.677734375 294.946289062 749.677734375 282 c 0
 749.677734375 268.524414062 756.15234375 261.787109375 769.099609375 261.787109375 c 0
 782.57421875 261.787109375 789.310546875 268.524414062 789.310546875 282 c 0x0e0740
 789.310546875 294.946289062 782.837890625 301.420898438 769.890625 301.420898438 c 0
422.70703125 232.85546875 m 0
 408.967773438 232.85546875 402.098632812 226.25 402.098632812 213.0390625 c 0
 402.098632812 199.828125 408.967773438 193.223632812 422.70703125 193.223632812 c 0
 435.653320312 193.223632812 441.99609375 199.828125 441.732421875 213.0390625 c 0x0e27
 441.99609375 226.25 435.653320312 232.85546875 422.70703125 232.85546875 c 0
784.555664062 232.85546875 m 0
 770.81640625 232.85546875 763.9453125 226.25 763.9453125 213.0390625 c 0
 763.9453125 199.828125 770.81640625 193.223632812 784.555664062 193.223632812 c 0
 797.23828125 193.223632812 803.579101562 199.828125 803.579101562 213.0390625 c 0x0e0720
 803.579101562 226.25 797.23828125 232.85546875 784.555664062 232.85546875 c 0
436.18359375 164.290039062 m 0
 422.97265625 164.290039062 416.366210938 157.552734375 416.366210938 144.078125 c 0
 416.366210938 131.130859375 422.97265625 124.659179688 436.18359375 124.659179688 c 0
 449.39453125 124.659179688 456 131.130859375 456 144.078125 c 0x0e17
 456 157.552734375 449.39453125 164.290039062 436.18359375 164.290039062 c 0
769.099609375 164.290039062 m 0
 756.15234375 164.290039062 749.677734375 157.552734375 749.677734375 144.078125 c 0
 749.677734375 131.130859375 756.15234375 124.659179688 769.099609375 124.659179688 c 0
 782.57421875 124.659179688 789.310546875 131.130859375 789.310546875 144.078125 c 0x0e0740
 789.310546875 157.552734375 782.57421875 164.290039062 769.099609375 164.290039062 c 0
475.419921875 104.841796875 m 0x1e0f
 462.208984375 104.841796875 455.603515625 98.1044921875 455.603515625 84.6298828125 c 0
 455.603515625 71.6826171875 462.208984375 65.208984375 475.419921875 65.208984375 c 0
 488.630859375 65.208984375 495.235351562 71.6826171875 495.235351562 84.6298828125 c 0
 495.235351562 98.1044921875 488.630859375 104.841796875 475.419921875 104.841796875 c 0x1e0f
731.05078125 104.841796875 m 0
 717.311523438 104.841796875 710.442382812 98.1044921875 710.442382812 84.6298828125 c 0
 710.442382812 71.6826171875 717.311523438 65.208984375 731.05078125 65.208984375 c 0
 743.733398438 65.208984375 750.07421875 71.6826171875 750.07421875 84.6298828125 c 0x1e0780
 750.07421875 98.1044921875 743.733398438 104.841796875 731.05078125 104.841796875 c 0
533.680664062 66.3974609375 m 0x2e07
 520.733398438 66.3974609375 514.259765625 59.5283203125 514.259765625 45.7890625 c 0
 514.259765625 33.1064453125 520.733398438 26.765625 533.680664062 26.765625 c 0
 547.155273438 26.765625 553.891601562 33.634765625 553.891601562 47.3740234375 c 0
 553.891601562 60.056640625 547.155273438 66.3974609375 533.680664062 66.3974609375 c 0x2e07
672.393554688 66.3974609375 m 0
 658.654296875 66.3974609375 651.78515625 59.5283203125 651.78515625 45.7890625 c 0
 651.78515625 33.1064453125 658.654296875 26.765625 672.393554688 26.765625 c 0
 685.076171875 26.765625 691.416992188 33.1064453125 691.416992188 45.7890625 c 0
 691.416992188 59.5283203125 685.076171875 66.3974609375 672.393554688 66.3974609375 c 0
602.641601562 52.130859375 m 0x4e07
 589.430664062 52.130859375 582.82421875 45.6572265625 582.82421875 32.7099609375 c 0
 582.82421875 19.2353515625 589.430664062 12.498046875 602.641601562 12.498046875 c 0
 615.852539062 12.498046875 622.456054688 19.2353515625 622.456054688 32.7099609375 c 0
 622.456054688 45.6572265625 615.852539062 52.130859375 602.641601562 52.130859375 c 0x4e07
EndSplineSet
EndChar

StartChar: .notdef
Encoding: 20 -1 20
Width: 500
GlyphClass: 1
Flags: MW
HStem: 0 50<100 400 100 450> 483 50<100 400 100 100>
VStem: 50 50<50 50 50 483> 400 50<50 483 483 483>
LayerCount: 2
Fore
SplineSet
50 0 m 1
 50 533 l 1
 450 533 l 1
 450 0 l 1
 50 0 l 1
100 50 m 1
 400 50 l 1
 400 483 l 1
 100 483 l 1
 100 50 l 1
EndSplineSet
EndChar

StartChar: comma
Encoding: 21 44 21
Width: 158
VWidth: 924
GlyphClass: 1
Flags: W
LayerCount: 2
Fore
SplineSet
109.34375 45.46875 m 1
 67.876953125 42.876953125 l 1
 21.224609375 35.1015625 l 1
 29 4 l 1
 21.224609375 -19.32421875 l 1
 5.673828125 -37.466796875 l 1
 -9.876953125 -50.42578125 l 1
 -35.79296875 -55.609375 l 1
 -48.751953125 -71.16015625 l 1
 -48.751953125 -89.302734375 l 1
 -28.01953125 -107.4453125 l 1
 -12.46875 -115.220703125 l 1
 39.3671875 -120.404296875 l 1
 73.060546875 -107.4453125 l 1
 117.119140625 -84.119140625 l 1
 132.669921875 -65.9765625 l 1
 135.26171875 -21.916015625 l 1
 130.078125 24.734375 l 1
 109.34375 45.46875 l 1
EndSplineSet
EndChar

StartChar: hyphen
Encoding: 22 45 22
Width: 557
VWidth: 924
GlyphClass: 1
Flags: MW
HStem: 254.993 70.0068 260.909 75.9229
LayerCount: 2
Fore
SplineSet
34.978515625 338.8046875 m 1x80
 162.174804688 336.83203125 l 1x40
 293.314453125 330.916015625 l 1
 386 325 l 1
 530.944335938 319.083984375 l 1
 542.776367188 313.16796875 l 1
 553.622070312 303.307617188 l 1
 553.622070312 283.587890625 l 1
 552.635742188 276.685546875 l 1
 544.748046875 264.853515625 l 1
 529.958007812 256.96484375 l 1
 496.43359375 254.006835938 l 1
 399.803710938 254.993164062 l 1x80
 257.818359375 259.922851562 l 1
 118.790039062 260.909179688 l 1x40
 94.1396484375 251.048828125 l 1
 88.2236328125 241.188476562 l 1
 77.3779296875 228.37109375 l 1
 61.6015625 220.482421875 l 1
 44.8388671875 220.482421875 l 1
 29.0625 223.440429688 l 1
 16.244140625 230.342773438 l 1
 5.3984375 242.174804688 l 1
 0.46875 254.993164062 l 1
 1.4541015625 265.838867188 l 1
 0.46875 274.713867188 l 1
 -5.447265625 287.53125 l 1
 -5.447265625 299.36328125 l 1
 0.46875 316.125976562 l 1
 12.30078125 327.958007812 l 1
 25.119140625 338.8046875 l 1
 34.978515625 338.8046875 l 1x80
EndSplineSet
EndChar

StartChar: period
Encoding: 23 46 23
Width: 198
VWidth: 924
GlyphClass: 1
Flags: W
LayerCount: 2
Fore
SplineSet
55.0859375 121.52734375 m 1
 26.09765625 112.46875 l 1
 12.509765625 97.974609375 l 1
 4.357421875 76.234375 l 1
 11.60546875 41.810546875 l 1
 40.591796875 15.541015625 l 1
 79.544921875 -3.482421875 l 1
 119.40234375 2.859375 l 1
 156.54296875 16.447265625 l 1
 181 40 l 1
 193.681640625 66.26953125 l 1
 192.775390625 88.916015625 l 1
 180.09375 101.59765625 l 1
 160.166015625 100.69140625 l 1
 134.80078125 98.880859375 l 1
 115.779296875 102.50390625 l 1
 104.908203125 115.185546875 l 1
 86.791015625 120.62109375 l 1
 55.0859375 121.52734375 l 1
EndSplineSet
EndChar

StartChar: colon
Encoding: 24 58 24
Width: 168
VWidth: 924
GlyphClass: 1
Flags: W
LayerCount: 2
Fore
SplineSet
84.943359375 417.83984375 m 1
 69.16796875 416.853515625 l 1
 57.3359375 412.908203125 l 1
 50.43359375 406.0078125 l 1
 49.447265625 392.203125 l 1
 49.447265625 385.30078125 l 1
 54.376953125 377.412109375 l 1
 59.30859375 367.552734375 l 1
 74.09765625 354.734375 l 1
 87.90234375 349.8046875 l 1
 107.623046875 347.83203125 l 1
 126.357421875 346.845703125 l 1
 143.119140625 351.775390625 l 1
 144.10546875 360.650390625 l 1
 146.076171875 384.314453125 l 1
 136.216796875 398.119140625 l 1
 127.341796875 407.978515625 l 1
 109.59375 415.8671875 l 1
 84.943359375 417.83984375 l 1
50.2421875 171.197265625 m 1
 34.46484375 170.2109375 l 1
 22.6328125 166.267578125 l 1
 15.732421875 159.365234375 l 1
 14.74609375 145.560546875 l 1
 14.74609375 138.658203125 l 1
 19.67578125 130.771484375 l 1
 24.60546875 120.91015625 l 1
 39.396484375 108.091796875 l 1
 53.19921875 103.162109375 l 1
 72.919921875 101.189453125 l 1
 91.654296875 100.205078125 l 1
 108.416015625 105.134765625 l 1
 109.40234375 114.0078125 l 1
 111.375 137.671875 l 1
 101.515625 151.4765625 l 1
 92.640625 161.337890625 l 1
 74.892578125 169.224609375 l 1
 50.2421875 171.197265625 l 1
EndSplineSet
EndChar

StartChar: plus
Encoding: 25 43 25
Width: 730
VWidth: 924
GlyphClass: 1
Flags: MW
HStem: 237.644 90.6387 262.743 83.666 264.138 72.5107
VStem: 238.448 112.949 238.448 121.315 249.604 83.666
LayerCount: 2
Fore
SplineSet
34.861328125 319.915039062 m 1x84
 122.709960938 328.282226562 l 1
 178.487304688 329.676757812 l 1
 220.3203125 339.4375 l 1
 242.631835938 347.803710938 l 1
 245.420898438 378.481445312 l 1
 238.448242188 418.919921875 l 1
 238.448242188 463.541992188 l 1x90
 238.448242188 512.34765625 l 1x88
 249.603515625 555.575195312 l 1x84
 262.153320312 579.280273438 l 1
 277.4921875 591.830078125 l 1
 302.591796875 609.958007812 l 1
 327.692382812 615.53515625 l 1
 352.791992188 604.379882812 l 1
 359.763671875 575.096679688 l 1
 359.763671875 543.024414062 l 1
 359.763671875 516.530273438 l 1x88
 351.397460938 477.486328125 l 1
 351.397460938 453.78125 l 1
 351.397460938 430.075195312 l 1
 351.397460938 395.21484375 l 1
 352.791992188 371.509765625 l 1
 354.186523438 353.381835938 l 1
 369.525390625 346.409179688 l 1
 402.991210938 345.014648438 l 1
 461.557617188 349.198242188 l 1
 534.068359375 346.409179688 l 1x50
 577.295898438 342.2265625 l 1
 607.973632812 336.6484375 l 1x30
 644.228515625 335.25390625 l 1
 679.08984375 322.704101562 l 1
 698.611328125 310.154296875 l 1
 704.189453125 290.631835938 l 1
 701.400390625 272.504882812 l 1
 688.850585938 265.532226562 l 1
 669.328125 262.743164062 l 1x50
 598.211914062 264.137695312 l 1
 549.407226562 264.137695312 l 1x30
 504.78515625 262.743164062 l 1
 447.61328125 262.743164062 l 1
 409.963867188 261.348632812 l 1
 362.552734375 261.348632812 l 1
 351.397460938 252.982421875 l 1x50
 337.453125 241.827148438 l 1
 334.6640625 225.09375 l 1
 333.26953125 177.682617188 l 1
 326.297851562 153.977539062 l 1
 317.930664062 133.061523438 l 1
 313.748046875 99.5947265625 l 1
 313.748046875 73.1005859375 l 1
 319.325195312 52.18359375 l 1
 319.325195312 27.083984375 l 1
 310.958984375 0.58984375 l 1
 295.620117188 -7.7763671875 l 1
 273.309570312 -11.9599609375 l 1
 255.181640625 0.58984375 l 1
 237.053710938 25.689453125 l 1
 232.870117188 95.4111328125 l 1
 239.842773438 153.977539062 l 1
 244.026367188 167.921875 l 1
 249.603515625 193.021484375 l 1
 249.603515625 212.543945312 l 1
 249.603515625 225.09375 l 1
 241.237304688 237.643554688 l 1
 216.137695312 244.616210938 l 1
 198.009765625 241.827148438 l 1
 160.360351562 237.643554688 l 1
 143.626953125 237.643554688 l 1
 119.920898438 236.249023438 l 1
 75.2998046875 230.671875 l 1
 51.59375 239.038085938 l 1
 39.0439453125 254.376953125 l 1
 37.6494140625 272.504882812 l 1
 33.466796875 296.209960938 l 1
 34.861328125 319.915039062 l 1x84
EndSplineSet
EndChar

StartChar: uniE06B
Encoding: 26 57451 26
Width: 1282
VWidth: 924
GlyphClass: 1
Flags: W
AnchorPoint: "topaccent" 1000 947 basechar 0
AnchorPoint: "topbreating" 553 716 basechar 0
LayerCount: 2
Fore
SplineSet
994.349609375 818.767578125 m 1
 960.82421875 816.796875 l 1
 937.16015625 816.796875 l 1
 885.888671875 747.775390625 l 1
 824.755859375 688.615234375 l 1
 759.677734375 586.068359375 l 1
 706.43359375 461.83203125 l 1
 665.021484375 418.447265625 l 1
 590.083984375 422.390625 l 1
 528.951171875 422.390625 l 1
 479.650390625 422.390625 l 1
 414.572265625 382.951171875 l 1
 410.62890625 331.677734375 l 1
 422.4609375 298.15234375 l 1
 457.95703125 274.48828125 l 1
 515.146484375 262.65625 l 1
 546.69921875 264.62890625 l 1
 562.474609375 288.29296875 l 1
 574.306640625 315.900390625 l 1
 605.859375 317.873046875 l 1
 615.720703125 300.125 l 1
 592.056640625 270.544921875 l 1
 556.55859375 211.384765625 l 1
 499.37109375 164.0546875 l 1
 404.712890625 118.69921875 l 1
 347.5234375 102.921875 l 1
 331.748046875 98.978515625 l 1
 308.083984375 95.03515625 l 1
 270.615234375 97.005859375 l 1
 209.482421875 100.951171875 l 1
 142.43359375 132.501953125 l 1
 120.740234375 158.138671875 l 1
 97.076171875 209.412109375 l 1
 77.35546875 258.712890625 l 1
 67.49609375 294.208984375 l 1
 53.69140625 343.509765625 l 1
 49.748046875 380.978515625 l 1
 32 406.615234375 l 1
 -21.244140625 406.615234375 l 1
 -42.9375 406.615234375 l 1
 -74.490234375 380.978515625 l 1
 -92.23828125 361.2578125 l 1
 -90.265625 323.7890625 l 1
 -78.43359375 302.09765625 l 1
 -25.189453125 306.041015625 l 1
 -5.46875 278.43359375 l 1
 6.36328125 242.935546875 l 1
 12.279296875 207.439453125 l 1
 20.16796875 152.22265625 l 1
 30.02734375 102.921875 l 1
 49.748046875 53.62109375 l 1
 71.439453125 16.15234375 l 1
 108.908203125 -3.56640625 l 1
 166.09765625 -5.5390625 l 1
 294.279296875 4.3203125 l 1
 317.943359375 6.29296875 l 1
 373.16015625 20.09765625 l 1
 499.37109375 53.62109375 l 1
 548.671875 85.173828125 l 1
 584.16796875 112.783203125 l 1
 653.189453125 187.71875 l 1
 698.544921875 242.935546875 l 1
 724.181640625 288.29296875 l 1
 745.873046875 329.705078125 l 1
 795.173828125 335.62109375 l 1
 824.755859375 315.900390625 l 1
 840.53125 286.3203125 l 1
 828.69921875 231.103515625 l 1
 803.0625 160.111328125 l 1
 765.59375 91.08984375 l 1
 736.013671875 24.041015625 l 1
 718.265625 -33.1484375 l 1
 739.95703125 -66.671875 l 1
 773.482421875 -88.365234375 l 1
 812.921875 -100.197265625 l 1
 844.474609375 -92.30859375 l 1
 868.138671875 -82.44921875 l 1
 897.720703125 -52.8671875 l 1
 921.384765625 -31.17578125 l 1
 948.9921875 0.376953125 l 1
 972.65625 33.900390625 l 1
 974.62890625 55.59375 l 1
 966.740234375 87.146484375 l 1
 954.908203125 102.921875 l 1
 941.10546875 106.8671875 l 1
 915.46875 93.0625 l 1
 891.8046875 75.314453125 l 1
 874.056640625 77.28515625 l 1
 874.056640625 98.978515625 l 1
 881.943359375 132.501953125 l 1
 891.8046875 171.943359375 l 1
 903.63671875 231.103515625 l 1
 917.439453125 284.349609375 l 1
 933.216796875 309.984375 l 1
 954.908203125 317.873046875 l 1
 1008.15429688 304.068359375 l 1
 1077.17382812 288.29296875 l 1
 1154.08398438 268.572265625 l 1
 1270.43359375 258.712890625 l 1
 1313.81835938 274.48828125 l 1
 1323.67773438 306.041015625 l 1
 1329.59375 323.7890625 l 1
 1309.87304688 367.173828125 l 1
 1278.32226562 379.005859375 l 1
 1240.85351562 347.453125 l 1
 1201.41210938 343.509765625 l 1
 1136.3359375 349.42578125 l 1
 1063.37109375 359.28515625 l 1
 1006.18164062 373.08984375 l 1
 978.572265625 390.837890625 l 1
 982.517578125 446.0546875 l 1
 996.322265625 520.9921875 l 1
 1014.0703125 564.376953125 l 1
 1027.87304688 607.76171875 l 1
 1037.734375 643.2578125 l 1
 1045.62304688 686.642578125 l 1
 1041.67773438 767.49609375 l 1
 1018.01367188 804.96484375 l 1
 994.349609375 818.767578125 l 1
864.1953125 515.076171875 m 1
 868.138671875 505.216796875 l 1
 874.056640625 481.55078125 l 1
 878 450 l 1
 868.138671875 414.501953125 l 1
 858.279296875 398.7265625 l 1
 807.005859375 404.642578125 l 1
 810.951171875 422.390625 l 1
 834.615234375 473.6640625 l 1
 848.419921875 499.30078125 l 1
 864.1953125 515.076171875 l 1
EndSplineSet
Ligature2: "'liga' +A5oDvwO5A70DrAAA +A8ADvwO7A7sDsQPAA7sDrAAA +A8MDxAO/A7kDxwO1A68DsQAA lookup 0 subtable" uniE051 psi
EndChar

StartChar: Gamma
Encoding: 27 915 27
Width: 1000
VWidth: 924
GlyphClass: 1
Flags: MW
HStem: 715.436 20G 735.436 21G
LayerCount: 2
Fore
SplineSet
945.236328125 880.890625 m 1x80
 910.78515625 861.751953125 l 1
 887.818359375 819.646484375 l 1
 826.57421875 777.541015625 l 1
 750.01953125 739.263671875 l 1
 639.013671875 735.435546875 l 1x40
 570.115234375 750.748046875 l 1
 485.904296875 769.88671875 l 1
 405.521484375 789.025390625 l 1
 355.759765625 800.5078125 l 1
 263.89453125 819.646484375 l 1
 191.166015625 804.3359375 l 1
 133.75 792.853515625 l 1
 83.98828125 750.748046875 l 1
 95.47265625 716.296875 l 1
 122.265625 655.052734375 l 1
 118.439453125 582.326171875 l 1
 68.677734375 333.521484375 l 1
 38.056640625 188.06640625 l 1
 11.26171875 92.373046875 l 1
 3.60546875 38.783203125 l 1
 15.08984375 -18.6328125 l 1
 41.8828125 -60.73828125 l 1
 126.09375 -56.91015625 l 1
 202.650390625 -37.771484375 l 1
 286.859375 -7.150390625 l 1
 279.205078125 31.12890625 l 1
 256.23828125 42.611328125 l 1
 210.3046875 38.783203125 l 1
 145.232421875 38.783203125 l 1
 122.265625 54.09375 l 1
 110.783203125 88.544921875 l 1
 129.921875 188.06640625 l 1
 164.37109375 310.5546875 l 1
 175.85546875 413.904296875 l 1
 214.1328125 582.326171875 l 1
 214.1328125 674.19140625 l 1
 221.7890625 700.986328125 l 1
 244.755859375 723.953125 l 1
 290.6875 735.435546875 l 1
 363.416015625 727.78125 l 1
 443.798828125 712.470703125 l 1
 524.181640625 681.84765625 l 1
 612.220703125 662.708984375 l 1
 681.119140625 647.3984375 l 1
 788.296875 655.052734375 l 1
 876.3359375 678.01953125 l 1
 937.580078125 727.78125 l 1
 998.82421875 827.302734375 l 1
 979.685546875 880.890625 l 1
 945.236328125 880.890625 l 1x80
EndSplineSet
EndChar

StartChar: uni0394
Encoding: 28 916 28
Width: 1060
VWidth: 924
GlyphClass: 1
Flags: MW
HStem: 136.743 93.0742 156.485 84.6133
LayerCount: 2
Fore
SplineSet
309.850585938 737.499023438 m 1x80
 239.338867188 729.038085938 l 1
 188.569335938 712.116210938 l 1
 154.725585938 695.192382812 l 1
 137.801757812 669.809570312 l 1
 109.596679688 613.399414062 l 1
 98.3154296875 576.733398438 l 1
 103.956054688 514.684570312 l 1
 134.981445312 506.221679688 l 1
 174.467773438 517.504882812 l 1
 205.493164062 548.528320312 l 1
 236.518554688 604.938476562 l 1
 256.260742188 638.784179688 l 1
 284.465820312 652.885742188 l 1
 340.874023438 650.065429688 l 1
 402.924804688 638.784179688 l 1
 467.795898438 621.860351562 l 1
 527.024414062 571.092773438 l 1
 558.049804688 511.862304688 l 1
 541.127929688 486.479492188 l 1
 510.102539062 466.735351562 l 1
 473.436523438 424.428710938 l 1
 448.051757812 387.762695312 l 1
 402.924804688 322.891601562 l 1
 391.643554688 277.764648438 l 1
 383.182617188 243.918945312 l 1
 352.157226562 241.098632812 l 1
 315.491210938 241.098632812 l 1x40
 236.518554688 249.561523438 l 1
 -48.3466796875 272.124023438 l 1
 -99.1162109375 280.584960938 l 1
 -116.038085938 252.381835938 l 1
 -121.678710938 229.817382812 l 1x80
 -124.499023438 207.252929688 l 1
 -107.577148438 195.971679688 l 1
 -87.8330078125 179.049804688 l 1
 -51.1689453125 179.049804688 l 1
 307.030273438 167.766601562 l 1
 388.823242188 159.305664062 l 1
 510.102539062 156.485351562 l 1x40
 639.842773438 150.844726562 l 1
 780.866210938 139.563476562 l 1
 862.659179688 145.204101562 l 1
 958.555664062 136.743164062 l 1
 1065.73144531 136.743164062 l 1
 1099.57714844 136.743164062 l 1
 1119.32128906 164.946289062 l 1
 1119.32128906 201.612304688 l 1
 1088.29589844 204.432617188 l 1
 1060.09082031 207.252929688 l 1
 1012.14355469 212.895507812 l 1
 950.092773438 226.997070312 l 1
 862.659179688 229.817382812 l 1
 811.891601562 229.817382812 l 1
 786.506835938 246.741210938 l 1
 769.584960938 289.047851562 l 1
 744.200195312 339.815429688 l 1
 718.815429688 370.840820312 l 1
 696.252929688 418.788085938 l 1
 679.329101562 480.838867188 l 1
 637.022460938 562.631835938 l 1
 594.715820312 621.860351562 l 1
 527.024414062 683.911132812 l 1
 456.512695312 717.756835938 l 1
 386.002929688 729.038085938 l 1
 309.850585938 737.499023438 l 1x80
639.842773438 390.583007812 m 1
 651.125976562 359.557617188 l 1
 665.227539062 331.354492188 l 1
 673.688476562 277.764648438 l 1
 690.612304688 229.817382812 l 1x80
 662.407226562 226.997070312 l 1
 614.459960938 226.997070312 l 1
 574.973632812 232.637695312 l 1
 524.204101562 235.458007812 l 1
 493.178710938 243.918945312 l 1
 495.999023438 269.303710938 l 1
 507.282226562 286.227539062 l 1
 538.307617188 328.534179688 l 1
 597.536132812 387.762695312 l 1
 639.842773438 390.583007812 l 1
EndSplineSet
EndChar

StartChar: Epsilon
Encoding: 29 917 29
Width: 506
VWidth: 924
GlyphClass: 1
Flags: MW
HStem: 225.607 64.5938 424.176 88.5176
AnchorPoint: "topaccent" 220 700 basechar 0
AnchorPoint: "topbreating" -27 491 basechar 0
LayerCount: 2
Fore
SplineSet
234.556640625 512.693359375 m 1
 181.923828125 503.125 l 1
 131.68359375 488.76953125 l 1
 83.8359375 460.060546875 l 1
 52.736328125 414.60546875 l 1
 24.02734375 361.97265625 l 1
 14.45703125 314.125 l 1
 14.45703125 268.669921875 l 1
 14.45703125 216.037109375 l 1
 19.2421875 187.328125 l 1
 31.203125 149.05078125 l 1
 40.7734375 117.94921875 l 1
 62.3046875 79.669921875 l 1
 81.443359375 58.138671875 l 1
 117.330078125 36.607421875 l 1
 148.431640625 12.68359375 l 1
 196.279296875 3.11328125 l 1
 248.912109375 7.8984375 l 1
 303.9375 22.25390625 l 1
 347 39 l 1
 397.240234375 58.138671875 l 1
 406.80859375 74.88671875 l 1
 394.84765625 94.025390625 l 1
 368.53125 101.203125 l 1
 313.505859375 91.6328125 l 1
 272.8359375 77.27734375 l 1
 222.595703125 70.1015625 l 1
 196.279296875 77.27734375 l 1
 165.177734375 89.240234375 l 1
 136.46875 105.986328125 l 1
 117.330078125 139.48046875 l 1
 105.3671875 170.58203125 l 1
 105.3671875 194.505859375 l 1
 112.544921875 220.822265625 l 1
 134.076171875 237.568359375 l 1
 177.140625 232.783203125 l 1
 227.380859375 225.607421875 l 1
 313.505859375 225.607421875 l 1
 351.78515625 213.64453125 l 1
 387.669921875 218.4296875 l 1
 413.986328125 232.783203125 l 1
 425.94921875 259.099609375 l 1
 411.59375 280.630859375 l 1
 363.74609375 290.201171875 l 1
 308.720703125 290.201171875 l 1
 253.697265625 297.37890625 l 1
 208.240234375 302.1640625 l 1
 165.177734375 299.771484375 l 1
 129.291015625 304.5546875 l 1
 122.115234375 321.302734375 l 1
 126.900390625 354.794921875 l 1
 172.35546875 400.251953125 l 1
 220.203125 424.17578125 l 1
 270.443359375 426.568359375 l 1
 320.68359375 409.8203125 l 1
 373.31640625 388.2890625 l 1
 425.94921875 373.935546875 l 1
 457.048828125 357.1875 l 1
 478.58203125 361.97265625 l 1
 495.328125 383.50390625 l 1
 485.7578125 419.390625 l 1
 440.302734375 464.845703125 l 1
 392.455078125 483.984375 l 1
 339.822265625 498.33984375 l 1
 289.58203125 510.30078125 l 1
 234.556640625 512.693359375 l 1
EndSplineSet
EndChar

StartChar: Eta
Encoding: 30 919 30
Width: 411
VWidth: 924
GlyphClass: 1
Flags: W
AnchorPoint: "topaccent" 17 300 basechar 0
AnchorPoint: "topbreating" 9 346 basechar 0
LayerCount: 2
Fore
SplineSet
307.873046875 330.072265625 m 1
 278.642578125 324.2265625 l 1
 259.15625 314.482421875 l 1
 251.361328125 277.45703125 l 1
 245.515625 250.17578125 l 1
 224.080078125 240.431640625 l 1
 181.208984375 242.380859375 l 1
 177.3125 267.71484375 l 1
 171.46484375 312.533203125 l 1
 148.08203125 324.2265625 l 1
 95.466796875 320.328125 l 1
 58.44140625 312.533203125 l 1
 40.904296875 293.046875 l 1
 33.109375 277.45703125 l 1
 25.314453125 257.970703125 l 1
 35.05859375 215.099609375 l 1
 35.05859375 185.869140625 l 1
 17.51953125 142.998046875 l 1
 3.87890625 109.87109375 l 1
 3.87890625 80.640625 l 1
 -0.017578125 49.462890625 l 1
 13.623046875 26.078125 l 1
 33.109375 12.4375 l 1
 72.083984375 20.232421875 l 1
 97.416015625 43.615234375 l 1
 103.26171875 65.05078125 l 1
 113.005859375 100.126953125 l 1
 138.337890625 127.408203125 l 1
 173.4140625 133.255859375 l 1
 183.158203125 131.306640625 l 1
 196.798828125 102.076171875 l 1
 198.748046875 61.154296875 l 1
 214.3359375 28.02734375 l 1
 237.720703125 10.48828125 l 1
 280.591796875 0.744140625 l 1
 323.462890625 -1.203125 l 1
 344.8984375 14.384765625 l 1
 352.693359375 43.615234375 l 1
 341 67 l 1
 321.513671875 88.435546875 l 1
 323.462890625 115.716796875 l 1
 344.8984375 164.43359375 l 1
 362.435546875 193.6640625 l 1
 395.564453125 254.07421875 l 1
 385.8203125 298.892578125 l 1
 356.58984375 326.173828125 l 1
 307.873046875 330.072265625 l 1
EndSplineSet
EndChar

StartChar: Theta
Encoding: 31 920 31
Width: 566
VWidth: 924
GlyphClass: 1
Flags: MW
HStem: 282 84.2109
VStem: 63.1758 89.3145
LayerCount: 2
Fore
SplineSet
208.630859375 651.376953125 m 1
 167.802734375 623.306640625 l 1
 124.419921875 556.958984375 l 1
 101.455078125 477.853515625 l 1
 88.734375 419.359375 l 1
 78.568359375 381.521484375 l 1
 78.466796875 380.43359375 l 1
 55.6015625 381.521484375 l 1
 -13.298828125 381.521484375 l 1
 -18.40234375 297.310546875 l 1
 22.427734375 297.310546875 l 1
 70.435546875 292.947265625 l 1
 60.625 184.390625 l 1
 63.17578125 107.8359375 l 1
 81.0390625 49.142578125 l 1
 137.1796875 -6.998046875 l 1
 193.3203125 8.314453125 l 1
 264.771484375 51.6953125 l 1
 308.15234375 125.69921875 l 1
 343.958984375 253.9296875 l 1
 349.943359375 290.69140625 l 1
 382.236328125 287.103515625 l 1
 469 282 l 1
 543.001953125 279.447265625 l 1
 571.072265625 276.896484375 l 1
 578.728515625 304.966796875 l 1
 568.521484375 353.451171875 l 1
 548.10546875 361.107421875 l 1
 479.20703125 366.2109375 l 1
 425.6171875 368.76171875 l 1
 377.1328125 373.8671875 l 1
 359.18359375 375.08984375 l 1
 354.166015625 396.83203125 l 1
 331.119140625 421.712890625 l 1
 320.912109375 477.853515625 l 1
 303.048828125 546.751953125 l 1
 297.9453125 602.892578125 l 1
 295.39453125 643.72265625 l 1
 257.1171875 651.376953125 l 1
 208.630859375 651.376953125 l 1
229.046875 485.5078125 m 1
 241.8046875 470.197265625 l 1
 246.908203125 431.919921875 l 1
 262.30078125 401.9375 l 1
 254.64453125 381.521484375 l 1
 250.81640625 378.970703125 l 1
 208.7109375 371.314453125 l 1
 197.654296875 372.166015625 l 1
 180.640625 376.41796875 l 1
 180.640625 391.728515625 l 1
 178.048828125 393.841796875 l 1
 183.11328125 431.919921875 l 1
 195.873046875 470.197265625 l 1
 229.046875 485.5078125 l 1
167.8828125 302.4140625 m 1
 239.333984375 302.4140625 l 1
 264.8515625 294.759765625 l 1
 241.8046875 199.701171875 l 1
 216.287109375 148.6640625 l 1
 188.216796875 112.939453125 l 1
 162.69921875 102.732421875 l 1
 152.490234375 128.25 l 1
 149.939453125 186.943359375 l 1
 167.8828125 302.4140625 l 1
EndSplineSet
EndChar

StartChar: Iota
Encoding: 32 921 32
Width: 294
VWidth: 924
GlyphClass: 1
Flags: W
AnchorPoint: "topaccent" 285 799 basechar 0
AnchorPoint: "topbreating" 201 768 basechar 0
LayerCount: 2
Fore
SplineSet
222.65234375 714.927734375 m 1
 186.765625 682.62890625 l 1
 168.822265625 635.978515625 l 1
 150.880859375 571.3828125 l 1
 104.228515625 399.130859375 l 1
 64.75390625 277.119140625 l 1
 21.69140625 151.51953125 l 1
 -7.017578125 72.5703125 l 1
 -7.017578125 40.2734375 l 1
 18.1015625 7.974609375 l 1
 71.931640625 -13.556640625 l 1
 129.34765625 -9.966796875 l 1
 168.822265625 7.974609375 l 1
 183.177734375 33.095703125 l 1
 176 68.98046875 l 1
 129.34765625 86.923828125 l 1
 118.58203125 79.74609375 l 1
 132.9375 140.75390625 l 1
 176 252 l 1
 219.0625 359.65625 l 1
 247.771484375 460.13671875 l 1
 251.361328125 506.7890625 l 1
 283.658203125 600.091796875 l 1
 294.423828125 650.33203125 l 1
 283.658203125 704.162109375 l 1
 222.65234375 714.927734375 l 1
EndSplineSet
EndChar

StartChar: Lambda
Encoding: 33 923 33
Width: 595
VWidth: 924
GlyphClass: 1
Flags: MW
HStem: 102.061 87.9395 115.801 79.6953
LayerCount: 2
Fore
SplineSet
385.8671875 536.265625 m 1x80
 352.888671875 525.2734375 l 1
 328.15625 484.05078125 l 1
 297.92578125 437.33203125 l 1
 284.185546875 376.873046875 l 1
 262.201171875 341.1484375 l 1
 218.23046875 277.94140625 l 1
 152.275390625 165.267578125 l 1
 75.328125 74.578125 l 1
 -7.1171875 -35.34765625 l 1
 -37.345703125 -68.32421875 l 1
 -45.58984375 -93.05859375 l 1
 -45.58984375 -131.53125 l 1
 -26.353515625 -161.76171875 l 1
 28.609375 -167.2578125 l 1
 61.5859375 -153.517578125 l 1
 80.82421875 -104.05078125 l 1
 105.556640625 -46.33984375 l 1
 182.50390625 49.845703125 l 1
 226.474609375 110.3046875 l 1
 275.94140625 110.3046875 l 1
 352.888671875 102.060546875 l 1
 435.333984375 102.060546875 l 1x80
 523.2734375 104.80859375 l 1
 613.962890625 115.80078125 l 1
 622.20703125 140.533203125 l 1
 622.20703125 176.259765625 l 1
 602.96875 195.49609375 l 1x40
 559 190 l 1
 506.78515625 190 l 1
 449.07421875 190 l 1
 391.36328125 184.50390625 l 1
 344.64453125 176.259765625 l 1
 308.91796875 190 l 1
 325.408203125 231.22265625 l 1
 352.888671875 277.94140625 l 1
 377.623046875 319.162109375 l 1
 416.095703125 374.125 l 1
 462.814453125 437.33203125 l 1
 487.546875 495.04296875 l 1
 465.5625 519.77734375 l 1
 427.087890625 530.76953125 l 1
 385.8671875 536.265625 l 1x80
EndSplineSet
EndChar

StartChar: Nu
Encoding: 34 925 34
Width: 483
VWidth: 924
GlyphClass: 1
Flags: W
LayerCount: 2
Fore
SplineSet
402.09765625 351.513671875 m 1
 373.50390625 339.474609375 l 1
 365.98046875 325.9296875 l 1
 367.484375 297.337890625 l 1
 362.970703125 252.189453125 l 1
 346.416015625 232.626953125 l 1
 305.783203125 234.130859375 l 1
 278.6953125 249.1796875 l 1
 250.103515625 261.21875 l 1
 224.51953125 268.744140625 l 1
 198.9375 270.248046875 l 1
 180.87890625 267.23828125 l 1
 177.869140625 289.8125 l 1
 177.869140625 328.939453125 l 1
 153.791015625 343.98828125 l 1
 116.16796875 348.50390625 l 1
 72.525390625 343.98828125 l 1
 37.9140625 324.42578125 l 1
 24.369140625 309.376953125 l 1
 19.85546875 288.30859375 l 1
 22.865234375 255.19921875 l 1
 37.9140625 238.646484375 l 1
 55.97265625 240.150390625 l 1
 71.021484375 232.626953125 l 1
 68.01171875 211.55859375 l 1
 52.962890625 193.5 l 1
 43.93359375 175.44140625 l 2
 34.904296875 157.3828125 16.845703125 128.7890625 16.845703125 128.7890625 c 1
 3.30078125 103.205078125 l 1
 4.806640625 83.642578125 l 1
 9.3203125 65.583984375 l 1
 19.85546875 46.01953125 l 1
 39.41796875 26.45703125 l 1
 61.9921875 5.388671875 l 1
 89.080078125 2.37890625 l 1
 116.16796875 12.912109375 l 1
 153.791015625 32.4765625 l 1
 176.36328125 44.515625 l 1
 182.3828125 65.583984375 l 1
 170.34375 79.126953125 l 1
 161.314453125 85.146484375 l 1
 146.265625 92.671875 l 1
 132.720703125 110.73046875 l 1
 137.236328125 145.34375 l 1
 146.265625 164.90625 l 1
 170.34375 196.509765625 l 1
 185.392578125 196.509765625 l 1
 216.99609375 187.48046875 l 1
 239.568359375 173.935546875 l 1
 266.65625 166.412109375 l 1
 293.744140625 154.373046875 l 1
 314.814453125 145.34375 l 1
 313.30859375 110.73046875 l 1
 317.82421875 92.671875 l 1
 325.34765625 65.583984375 l 1
 347.921875 47.525390625 l 1
 372 40 l 1
 415.640625 27.9609375 l 1
 441.224609375 35.486328125 l 1
 453.263671875 52.0390625 l 1
 453.263671875 70.09765625 l 1
 447.244140625 91.166015625 l 1
 427.6796875 112.234375 l 1
 435.205078125 131.798828125 l 1
 448.748046875 148.353515625 l 1
 453.263671875 164.90625 l 1
 450.25390625 187.48046875 l 1
 465.302734375 222.091796875 l 1
 484.8671875 250.685546875 l 1
 486.37109375 276.267578125 l 1
 486.37109375 316.900390625 l 1
 472.828125 340.978515625 l 1
 442.728515625 350.0078125 l 1
 402.09765625 351.513671875 l 1
EndSplineSet
EndChar

StartChar: Omicron
Encoding: 35 927 35
Width: 430
VWidth: 924
GlyphClass: 1
Flags: MW
HStem: -2.07227 129.574 62.8711 0.927734<407 407> 113.158 0.824219
VStem: -3.80176 128.928
AnchorPoint: "topaccent" 180 520 basechar 0
AnchorPoint: "topbreating" 93 447 basechar 0
LayerCount: 2
Fore
SplineSet
242.120117188 399.736328125 m 2x90
 240.551757812 399.6796875 238.98046875 399.662109375 237.413085938 399.568359375 c 0
 230.680664062 399.166015625 224.029296875 397.966796875 217.409179688 396.73046875 c 0
 215.795898438 396.368164062 214.173828125 396.038085938 212.567382812 395.642578125 c 0
 205.961914062 394.012695312 199.563476562 391.584960938 193.434570312 388.646484375 c 0
 184.1796875 383.958007812 175.227539062 378.604492188 167.407226562 371.724609375 c 0
 159.908203125 365.1328125 152.670898438 358.2265625 146.182617188 350.62109375 c 0
 141.405273438 344.876953125 136.790039062 338.987304688 132.903320312 332.591796875 c 0
 131.125976562 329.697265625 129.723632812 326.829101562 128.596679688 323.99609375 c 0
 125.955078125 324.23828125 110.25 334.069335938 108.446289062 334.0859375 c 1
 112.057617188 333.958984375 123.934570312 326.513671875 123.497070312 328.18359375 c 0
 122.975585938 330.143554688 104.733398438 341.911132812 103.000976562 341.7109375 c 0
 101.961914062 341.590820312 100.671875 340.87890625 99.0888671875 339.333984375 c 0
 95.8388671875 336.155273438 88.5478515625 338.541015625 88.0205078125 332.287109375 c 0
 87.33203125 332.2578125 86.44921875 332.01171875 85.9853515625 332.228515625 c 0
 76.4521484375 336.661132812 64.048828125 302.390625 59.2646484375 297.8828125 c 0
 54.6572265625 293.540039062 49.2080078125 289.9609375 45.1064453125 285.22265625 c 0
 42.9150390625 282.703125 40.4404296875 280.828125 40.6279296875 277.73046875 c 0
 40.791015625 275.014648438 39.43359375 272.690429688 37.6162109375 270.498046875 c 0
 35.2646484375 267.978515625 32.197265625 265.529296875 30.3271484375 262.849609375 c 0
 22.94140625 252.2734375 16.5263671875 239.369140625 9.6494140625 226.37890625 c 0
 4.2431640625 216.153320312 2.359375 204.615234375 1.7958984375 193.966796875 c 0
 1.7099609375 192.331054688 2.544921875 190.270507812 1.9443359375 189.388671875 c 0
 -4.2001953125 180.4765625 -3.9541015625 170.99609375 -4.5576171875 162.02734375 c 0
 -4.701171875 156.57421875 -5.0380859375 151.349609375 -6.8916015625 145.4453125 c 0
 -7.9326171875 142.131835938 -6.828125 139.021484375 -5.9130859375 136.2421875 c 0
 -4.626953125 132.325195312 -3.056640625 128.791015625 -3.8017578125 123.53125 c 0
 -3.9306640625 122.637695312 -4.0048828125 121.072265625 -3.7333984375 120.87890625 c 0
 0.5654296875 117.896484375 1.8623046875 112.864257812 2.8427734375 107.501953125 c 0
 3.8359375 102.0703125 4.513671875 96.353515625 7.0634765625 92.142578125 c 0
 9.1572265625 88.6923828125 12.66015625 86.61328125 9.8818359375 81.27734375 c 0
 9.82421875 81.1650390625 9.9140625 80.849609375 10.0849609375 80.453125 c 0
 10.392578125 79.75390625 10.9404296875 78.837890625 11.3642578125 78.3125 c 0
 13.7509765625 75.328125 16.2724609375 73.02734375 18.5244140625 69.4453125 c 0
 20.5849609375 66.16015625 25.6455078125 66.796875 24.2783203125 60.23046875 c 1
 28.640625 58.1162109375 31.568359375 53.4560546875 35.4931640625 50.830078125 c 0
 36.3369140625 50.26171875 37.2919921875 49.9248046875 38.2041015625 49.626953125 c 0
 42.6025390625 48.1591796875 40.8369140625 41.373046875 44.2958984375 40.8125 c 0
 48.029296875 40.22265625 50.3603515625 40.333984375 52.9111328125 36.15625 c 0
 53.9892578125 34.39453125 56.6513671875 31.0810546875 58.8623046875 31.34765625 c 0
 59.7158203125 31.4521484375 60.4873046875 31.5029296875 61.1787109375 31.48828125 c 0
 64.4931640625 31.4228515625 65.9091796875 29.87109375 65.9658203125 25.509765625 c 0
 65.9658203125 25.126953125 66.7705078125 24.279296875 67.0615234375 24.31640625 c 0
 71.15625 24.8271484375 74.2802734375 22.49609375 77.5107421875 20.3515625 c 0
 80.7412109375 18.2060546875 84.0693359375 16.251953125 87.9853515625 17.556640625 c 0
 88.8515625 17.8447265625 89.7666015625 17.447265625 90.2744140625 16.564453125 c 0
 93.5546875 10.91796875 99.947265625 12.267578125 104.708007812 10.830078125 c 0
 106.044921875 10.42578125 108.083007812 11.3251953125 108.954101562 10.62109375 c 0
 110.428710938 9.4228515625 112.0078125 8.4794921875 113.645507812 7.7265625 c 0
 121.051757812 4.3203125 129.465820312 4.84765625 137.047851562 2.74609375 c 0
 146.373046875 0.1611328125 155.98828125 -0.4697265625 165.362304688 -1.396484375 c 0
 169.827148438 -1.8427734375 174.465820312 -2.9677734375 179.077148438 -2.072265625 c 0x90
 181.767578125 -1.548828125 184.430664062 -1.2236328125 187.040039062 -2.306640625 c 0
 187.768554688 -2.607421875 188.661132812 -2.8662109375 189.403320312 -2.685546875 c 0
 199.91015625 -0.1494140625 210.2421875 -4.580078125 219.911132812 -1.32421875 c 0
 223.084960938 -0.2587890625 225.740234375 -0.94921875 228.477539062 -1.34375 c 0
 229.728515625 -1.5234375 230.986328125 -1.6357421875 232.276367188 -1.4765625 c 0
 240.985351562 -0.3974609375 249.02734375 3.48828125 257.668945312 4.642578125 c 0
 259.106445312 4.8330078125 260.264648438 6.2041015625 261.653320312 4.0234375 c 0
 263.157226562 1.646484375 265.174804688 1.39453125 266.834960938 3.76953125 c 0
 267.9609375 5.376953125 269.259765625 5.3388671875 270.969726562 4.99609375 c 0
 274.467773438 4.30859375 277.618164062 5.9443359375 280.719726562 7.224609375 c 0
 281.916015625 7.7294921875 283.178710938 9.2041015625 284.137695312 8.90625 c 0
 289.125 7.3447265625 293.0546875 11.0849609375 297.428710938 11.474609375 c 0
 305.043945312 12.146484375 311.421875 16.25 318.473632812 18.615234375 c 0
 318.890625 18.7548828125 319.311523438 18.8759765625 319.733398438 18.982421875 c 0
 324.98828125 20.310546875 330.784179688 19.310546875 335.758789062 22.41796875 c 0
 343.258789062 27.109375 352.673828125 27.2734375 361.391601562 29.361328125 c 0
 373.791992188 32.333984375 384.954101562 39.6259765625 398.682617188 41.658203125 c 0
 403.962890625 42.4345703125 404.130859375 48.9404296875 408.942382812 50.5859375 c 0
 410.020507812 50.951171875 409.133789062 53.4423828125 408.473632812 54.662109375 c 0
 406.864257812 57.6484375 404.90625 60.54296875 403.065429688 63.373046875 c 1
 404.624023438 63.1904296875 406.1875 63.0224609375 407.758789062 62.87109375 c 0
 407.799804688 63.1806640625 407.840820312 63.4892578125 407.879882812 63.798828125 c 0
 400.65234375 66.7177734375 393.625 69.76953125 386.676757812 73.15625 c 0
 383.657226562 74.6328125 381.268554688 74.12109375 379.165039062 72.482421875 c 0
 376.682617188 70.55859375 374.169921875 69.982421875 370.434570312 71.392578125 c 0
 366.801757812 72.759765625 363.14453125 71.8525390625 360.274414062 69.92578125 c 0
 357.908203125 68.3388671875 355.296875 67.2900390625 352.245117188 67.05859375 c 0
 350.200195312 66.9033203125 348.622070312 66.6259765625 346.499023438 68.546875 c 0
 344.071289062 70.74609375 341.834960938 71.8427734375 343.053710938 66.888671875 c 0
 344.026367188 62.91796875 341.31640625 63.1640625 339.022460938 64.751953125 c 0
 335.680664062 67.0556640625 333.852539062 66.3330078125 332.260742188 63.970703125 c 1
 332.260742188 64.25390625 l 1
 332.2421875 59.6015625 327.841796875 60.330078125 325.557617188 58.419921875 c 0
 325.326171875 58.2216796875 324.229492188 58.767578125 324.229492188 58.767578125 c 2
 324.251953125 62.3603515625 322.850585938 63.4287109375 321.235351562 63.904296875 c 0
 319.586914062 64.3896484375 317.669921875 64.296875 316.416992188 65.517578125 c 0
 312.833007812 69.0166015625 312.342773438 71.9453125 315.098632812 74.44140625 c 0
 316.7109375 75.8994140625 354.665039062 84.806640625 354.588867188 88.099609375 c 0
 354.549804688 89.775390625 356.276367188 89.544921875 357.502929688 89.78515625 c 0
 359.9453125 90.2578125 362.23046875 91.1376953125 364.733398438 91.578125 c 0
 369.198242188 92.369140625 371.393554688 95.8984375 370.870117188 100.64453125 c 0
 370.439453125 104.498046875 371.9765625 104.895507812 374.657226562 104.69140625 c 0
 378.79296875 104.372070312 381.716796875 106.01953125 383.743164062 108.748046875 c 0
 384.326171875 109.524414062 384.76953125 110.553710938 383.846679688 111.935546875 c 0
 382.67578125 113.69140625 381.047851562 114.03515625 379.733398438 113.982421875 c 0x70
 377.650390625 113.893554688 375.72265625 113.627929688 374.206054688 112.732421875 c 0
 354.637695312 112.9453125 316.270507812 117.282226562 272.418945312 133.359375 c 0
 271.944335938 133.41015625 287.989257812 123.108398438 270.997070312 133.412109375 c 0
 269.516601562 133.350585938 267.776367188 134.458007812 266.643554688 132.833984375 c 0
 264.788085938 130.184570312 264.236328125 137.125976562 262.807617188 133.755859375 c 0
 261.194335938 129.947265625 260.41015625 133.861328125 259.227539062 133.78515625 c 0
 258.451171875 133.745117188 257.73828125 133.29296875 256.971679688 132.93359375 c 0
 255.024414062 132.014648438 252.818359375 130.884765625 251.067382812 131.5078125 c 0
 250.505859375 131.708007812 249.989257812 131.715820312 249.473632812 131.71484375 c 0
 248.661132812 131.450195312 247.961914062 131.224609375 247.081054688 130.9609375 c 0
 245.900390625 130.096679688 244.7734375 128.559570312 243.651367188 126.28515625 c 1
 242.4765625 127.028320312 242.899414062 128.482421875 243.233398438 129.849609375 c 1
 236.34375 128.060546875 229.739257812 127.05859375 223.950195312 126.802734375 c 0
 218.375976562 126.555664062 214.318359375 127.0546875 213.461914062 127.759765625 c 0
 213.017578125 128.125976562 209.084960938 127.639648438 202.430664062 127.501953125 c 0
 195.104492188 127.3828125 180.4765625 111.821289062 167.770507812 115.09765625 c 0
 157.818359375 117.590820312 145.984375 122.37890625 136.688476562 131.359375 c 0
 128.056640625 139.44140625 127.079101562 156.759765625 125.125976562 171.537109375 c 0
 123.384765625 182.735351562 125.522460938 192.243164062 129.584960938 201.5546875 c 1
 146.948242188 211.255859375 l 1
 158.043945312 228.109375 l 1
 163.965820312 251.779296875 l 1
 173.952148438 267.341796875 l 1
 176.236328125 264.450195312 178.450195312 261.505859375 180.579101562 258.49609375 c 0
 186.125 250.317382812 191.541015625 242.051757812 197.069335938 233.861328125 c 0
 201.413085938 227.477539062 205.606445312 220.987304688 210.276367188 214.83203125 c 0
 214.107421875 209.782226562 214.96875 208.907226562 219.053710938 204.11328125 c 0
 226.8203125 195.422851562 235.237304688 187.346679688 243.991210938 179.6640625 c 0
 250.73828125 173.822265625 257.973632812 168.595703125 265.336914062 163.5703125 c 0
 271.830078125 159.104492188 278.592773438 155.063476562 285.538085938 151.34765625 c 0
 290.610351562 148.681640625 295.8671875 146.395507812 301.184570312 144.26953125 c 0
 304.4609375 142.9609375 311.803710938 139.750976562 315.188476562 138.775390625 c 0
 316.223632812 138.90625 316.30859375 138.920898438 317.297851562 139.046875 c 0
 317.8046875 139.044921875 318.47265625 139.137695312 319.252929688 139.298828125 c 0
 319.497070312 139.330078125 319.5546875 139.337890625 319.795898438 139.369140625 c 0
 395.69140625 130.359375 412.001953125 131.60546875 415.426757812 132.47265625 c 0
 419.022460938 131.587890625 422.653320312 130.831054688 426.309570312 130.21484375 c 1
 395.782226562 190.421875 l 2
 392.870117188 192.538085938 390.994140625 195.720703125 388.930664062 198.6015625 c 0
 383.872070312 203.9375 380.888671875 212.442382812 376.584960938 219.19921875 c 0
 371.54296875 227.186523438 366.499023438 235.192382812 360.926757812 242.82421875 c 0
 356.998046875 247.993164062 360.5390625 260.431640625 356.448242188 265.47265625 c 0
 353.73828125 268.852539062 350.987304688 272.212890625 348.543945312 275.794921875 c 0
 345.791015625 280.178710938 343.396484375 284.768554688 341.204101562 289.45703125 c 0
 338.154296875 295.990234375 335.315429688 302.612304688 332.543945312 309.267578125 c 0
 329.322265625 316.62109375 325.893554688 323.879882812 322.377929688 331.09765625 c 0
 319.579101562 336.997070312 316.79296875 342.90625 314.362304688 348.970703125 c 0
 312.83203125 352.54296875 311.846679688 354.990234375 310.008789062 358.55078125 c 0
 305.98046875 366.353515625 300.821289062 373.508789062 294.487304688 379.609375 c 0
 292.669921875 381.153320312 290.903320312 382.760742188 289.034179688 384.2421875 c 0
 283.211914062 388.856445312 276.44140625 392.190429688 269.592773438 394.9609375 c 0
 267.970703125 395.516601562 266.3671875 396.126953125 264.727539062 396.62890625 c 0
 257.409179688 398.866210938 249.760742188 399.8046875 242.122070312 399.736328125 c 2
 242.120117188 399.736328125 l 2x90
124.530273438 319.55078125 m 1
 124.834960938 319.307617188 126.034179688 318.076171875 126.547851562 317.6015625 c 0
 126.546875 317.595703125 126.547851562 317.58984375 126.547851562 317.583984375 c 1
 126.018554688 318.080078125 124.952148438 319.180664062 124.534179688 319.55078125 c 2
 124.530273438 319.55078125 l 1
297.930664062 116.822265625 m 1
 297.598632812 116.432617188 297.287109375 115.987304688 297.022460938 115.404296875 c 0
 296.46484375 114.173828125 295.586914062 115.432617188 294.885742188 116.212890625 c 1
 295.938476562 116.422851562 296.858398438 116.608398438 297.930664062 116.822265625 c 1
283.610351562 113.955078125 m 1
 283.545898438 113.90625 283.469726562 113.892578125 283.405273438 113.841796875 c 0
 282.125976562 112.828125 281.044921875 112.7734375 279.512695312 113.015625 c 0
 279.368164062 113.038085938 279.232421875 113.03125 279.088867188 113.048828125 c 1
 280.385742188 113.314453125 282.219726562 113.671875 283.610351562 113.955078125 c 1
379.860351562 113.158203125 m 0x30
 380.49609375 113.211914062 380.765625 113.186523438 380.618164062 113.07421875 c 0
 380.288085938 112.821289062 378.75390625 112.706054688 376.395507812 112.6875 c 1
 377.892578125 112.916992188 379.166992188 113.099609375 379.860351562 113.158203125 c 0x30
373.493164062 112.193359375 m 1
 373.33984375 112.06640625 373.16015625 111.98046875 373.018554688 111.833984375 c 0
 370.759765625 109.474609375 367.55859375 108.431640625 363.372070312 109.83984375 c 0
 362.779296875 110.040039062 362.28125 110.064453125 361.764648438 110.123046875 c 1
 366.427734375 110.975585938 370.41015625 111.685546875 373.493164062 112.193359375 c 1
269.014648438 110.94921875 m 1
 267.822265625 110.497070312 266.627929688 110.0546875 265.411132812 109.744140625 c 0
 263.912109375 109.365234375 262.471679688 108.887695312 260.874023438 109.046875 c 0
 260.458984375 109.083984375 264.057617188 109.889648438 269.014648438 110.94921875 c 1
312.526367188 104.58203125 m 1
 311.982421875 102.500976562 311.34375 100.4921875 308.584960938 103.8125 c 1
 310.0234375 104.094726562 311.088867188 104.301757812 312.526367188 104.58203125 c 1
306.153320312 103.326171875 m 1
 306.030273438 103.250976562 305.930664062 103.123046875 305.772460938 103.1328125 c 0
 305.631835938 103.142578125 305.4921875 103.15234375 305.350585938 103.1640625 c 1
 305.642578125 103.221679688 305.861328125 103.268554688 306.153320312 103.326171875 c 1
400.182617188 64.0078125 m 0
 401.020507812 63.9453125 401.986328125 63.4365234375 402.823242188 63.4140625 c 1
 402.522460938 61.8818359375 402.510742188 59.9521484375 400.200195312 60.25390625 c 0
 399.005859375 60.4169921875 398.15625 61.826171875 398.557617188 62.841796875 c 0
 398.779296875 63.4150390625 399.064453125 63.7333984375 399.395507812 63.888671875 c 0
 399.637695312 64.0009765625 399.903320312 64.0283203125 400.182617188 64.0078125 c 0
307.567382812 59.71875 m 0
 308.224609375 59.5927734375 308.901367188 58.955078125 309.268554688 58.041015625 c 0
 309.873046875 56.552734375 308.92578125 56.2158203125 308.174804688 55.810546875 c 0
 306.766601562 55.046875 305.317382812 54.36328125 303.600585938 54.056640625 c 0
 302.372070312 53.84375 301 53.822265625 299.418945312 54.111328125 c 1
 300.0078125 56.0439453125 300.864257812 57.140625 301.864257812 57.83203125 c 0
 302.146484375 58.0283203125 302.4375 58.193359375 302.737304688 58.333984375 c 0
 304.098632812 58.9716796875 305.622070312 59.1318359375 306.928710938 59.666015625 c 0
 307.131835938 59.7470703125 307.348632812 59.7607421875 307.567382812 59.71875 c 0
EndSplineSet
EndChar

StartChar: Pi
Encoding: 36 928 36
Width: 666
VWidth: 924
GlyphClass: 1
Flags: MW
HStem: 248.453 84.2188 274.158 56.5273
LayerCount: 2
Fore
SplineSet
-16.103515625 332.671875 m 1x80
 -23.25390625 248.453125 l 1x80
 174.49609375 258.640625 l 1
 184.474609375 254.986328125 l 1
 185.26171875 230.849609375 l 1
 160.10546875 167.634765625 l 1
 140.98828125 123.697265625 l 1
 105.716796875 93.17578125 l 1
 89.541015625 70.607421875 l 1
 84.970703125 43.125 l 1
 93.05859375 14.130859375 l 1
 120.265625 -3.998046875 l 1
 151.251953125 -6.140625 l 1
 177.40625 15.541015625 l 1
 175.779296875 38.6328125 l 1
 190.1171875 65.8515625 l 1
 231.427734375 111.2109375 l 1
 289.62109375 231.05859375 l 1
 304.220703125 244.064453125 l 1
 319.923828125 258.328125 l 1
 357.423828125 255.037109375 l 1
 393.34765625 253.939453125 l 1
 390.984375 202.32421875 l 1
 373.49609375 132.00390625 l 1
 350.806640625 76.310546875 l 1
 339.671875 30.859375 l 1
 344.451171875 -4.302734375 l 1
 370.974609375 -32.619140625 l 1
 407.056640625 -43.8515625 l 1
 455.689453125 -37.947265625 l 1
 488.830078125 -9.630859375 l 1
 498.755859375 16.701171875 l 1
 492.40234375 37.28515625 l 1
 459.103515625 83.46875 l 1
 458 104 l 1
 458 104 475.858398438 131.69140625 476.48828125 135.609375 c 0
 477.119140625 139.528320312 483 182.837890625 483 182.837890625 c 1
 486.78125 221.70703125 l 1
 489.828125 245.791015625 l 1
 497.0234375 246.521484375 l 1
 501.685546875 259.05859375 l 1
 519.75390625 270.1875 l 1
 582.77734375 274.158203125 l 1
 622.955078125 274.2109375 l 1
 666.81640625 267.145507812 l 1
 682.939453125 290.499023438 l 1
 675.00390625 317.990234375 l 1
 676.158203125 330.3203125 l 1
 619.173828125 330.685546875 l 1x40
 425.111328125 328.177734375 l 1
 -16.103515625 332.671875 l 1x80
EndSplineSet
EndChar

StartChar: Upsilon
Encoding: 37 933 37
Width: 465
VWidth: 924
GlyphClass: 1
Flags: W
AnchorPoint: "topaccent" 259 506 basechar 0
AnchorPoint: "topbreating" 119 505 basechar 0
LayerCount: 2
Fore
SplineSet
398.96875 400.84375 m 1
 371.177734375 384.962890625 l 1
 349.33984375 361.140625 l 1
 307.65234375 321.4375 l 1
 269.93359375 283.71875 l 1
 224.2734375 249.970703125 l 1
 188.541015625 246 l 1
 162.734375 287.689453125 l 1
 150.822265625 339.3046875 l 1
 123.029296875 373.052734375 l 1
 75.38671875 394.888671875 l 1
 17.81640625 392.904296875 l 1
 -13.947265625 379.0078125 l 1
 -21.888671875 353.19921875 l 1
 -33.798828125 325.408203125 l 1
 -29.828125 299.599609375 l 1
 -17.91796875 271.80859375 l 1
 -6.005859375 255.92578125 l 1
 29.7265625 265.8515625 l 1
 53.548828125 271.80859375 l 1
 75.38671875 246 l 1
 87.296875 208.283203125 l 1
 91.267578125 158.65234375 l 1
 93.251953125 132.845703125 l 1
 95.23828125 73.291015625 l 1
 105.1640625 31.6015625 l 1
 138.912109375 -0.162109375 l 1
 168.689453125 -0.162109375 l 1
 198.466796875 19.69140625 l 1
 202.4375 55.423828125 l 1
 216.333984375 85.201171875 l 1
 240.15625 109.0234375 l 1
 261.9921875 134.830078125 l 1
 309.63671875 188.4296875 l 1
 329.48828125 208.283203125 l 1
 359.265625 234.08984375 l 1
 395 246 l 1
 426.76171875 224.1640625 l 1
 436.6875 222.177734375 l 1
 478.376953125 234.08984375 l 1
 494.2578125 283.71875 l 1
 496.244140625 319.453125 l 1
 496.244140625 359.15625 l 1
 480.361328125 386.947265625 l 1
 444.62890625 398.859375 l 1
 398.96875 400.84375 l 1
EndSplineSet
EndChar

StartChar: Phi
Encoding: 38 934 38
Width: 624
VWidth: 924
GlyphClass: 1
Flags: MW
VStem: 250.825 93.4375 264.567 90.6875
LayerCount: 2
Fore
SplineSet
369.104492188 906.240234375 m 1x40
 342.446289062 895.1328125 l 1
 331.338867188 855.14453125 l 1
 320.231445312 821.822265625 l 1
 313.567382812 761.841796875 l 1
 295.793945312 697.41796875 l 1
 282.465820312 637.4375 l 1
 264.692382812 581.900390625 l 1
 209.604492188 544.259765625 l 1
 143.649414062 508.53515625 l 1
 91.4345703125 459.068359375 l 1
 55.7080078125 420.59375 l 1
 11.7373046875 371.126953125 l 1
 -2.0029296875 310.66796875 l 1
 8.9892578125 244.712890625 l 1
 61.2041015625 176.009765625 l 1
 127.159179688 132.0390625 l 1
 182.122070312 104.55859375 l 1
 250.825195312 96.314453125 l 1x80
 261.819335938 60.587890625 l 1
 264.567382812 -104.30078125 l 1
 264.567382812 -205.98046875 l 1x40
 270.063476562 -282.9296875 l 1
 256.323242188 -321.40234375 l 1
 237.084960938 -337.890625 l 1
 209.604492188 -365.373046875 l 1
 209.604492188 -390.10546875 l 1
 226.092773438 -409.34375 l 1
 275.559570312 -423.083984375 l 1
 344.262695312 -412.091796875 l 1x80
 371.743164062 -381.861328125 l 1
 363.499023438 -346.13671875 l 1
 358.002929688 -280.181640625 l 1
 355.254882812 -197.736328125 l 1
 355.254882812 -90.55859375 l 1
 355.254882812 11.12109375 l 1
 355.774414062 59.845703125 l 1
 371.325195312 77.6171875 l 1
 406.870117188 75.396484375 l 1
 455.743164062 73.173828125 l 1
 497.952148438 75.396484375 l 1
 546.825195312 88.724609375 l 1
 577.924804688 117.60546875 l 1
 602.362304688 164.255859375 l 1
 622.356445312 190.9140625 l 1
 629.020507812 255.337890625 l 1
 615.690429688 326.42578125 l 1
 604.583007812 370.85546875 l 1
 586.811523438 408.62109375 l 1
 557.932617188 444.166015625 l 1
 524.610351562 481.931640625 l 1
 471.293945312 526.361328125 l 1
 433.528320312 533.025390625 l 1
 402.426757812 557.462890625 l 1
 397.983398438 597.44921875 l 1
 397.983398438 646.322265625 l 1
 409.090820312 699.638671875 l 1
 422.420898438 797.384765625 l 1
 417.977539062 855.14453125 l 1
 397.983398438 897.353515625 l 1
 369.104492188 906.240234375 l 1x40
250.825195312 470.060546875 m 1
 250.825195312 187.001953125 l 1
 184.870117188 211.736328125 l 1
 124.411132812 239.216796875 l 1
 102.426757812 283.1875 l 1
 113.418945312 351.890625 l 1
 154.641601562 420.59375 l 1
 201.360351562 445.328125 l 1
 250.825195312 470.060546875 l 1
374.493164062 423.341796875 m 1
 418.461914062 423.341796875 l 1
 478.920898438 387.6171875 l 1
 517.395507812 351.890625 l 1
 533.883789062 291.431640625 l 1
 533.883789062 228.224609375 l 1
 487.165039062 165.017578125 l 1
 434.952148438 148.529296875 l 1
 377.241210938 151.27734375 l 1
 344.262695312 151.27734375 l 1
 344.262695312 252.95703125 l 1
 374.493164062 423.341796875 l 1
EndSplineSet
EndChar

StartChar: uni03A9
Encoding: 39 937 39
Width: 573
VWidth: 924
GlyphClass: 1
Flags: W
AnchorPoint: "topaccent" 389 416 basechar 0
AnchorPoint: "topbreating" 233 418 basechar 0
LayerCount: 2
Fore
SplineSet
509.9921875 316.31640625 m 1
 482.509765625 297.080078125 l 1
 466.021484375 269.599609375 l 1
 474.265625 239.369140625 l 1
 479.76171875 192.650390625 l 1
 468.76953125 140.435546875 l 1
 449.533203125 115.703125 l 1
 405.5625 93.71875 l 1
 367.087890625 96.466796875 l 1
 353.34765625 107.458984375 l 1
 353.34765625 148.681640625 l 1
 364.33984375 181.658203125 l 1
 372.583984375 222.880859375 l 1
 369.8359375 258.60546875 l 1
 361.591796875 297.080078125 l 1
 334.111328125 299.828125 l 1
 284.64453125 299.828125 l 1
 262.66015625 283.33984375 l 1
 248.91796875 264.103515625 l 1
 237.92578125 200.89453125 l 1
 213.193359375 145.93359375 l 1
 152.734375 112.955078125 l 1
 100.51953125 101.962890625 l 1
 95.0234375 126.6953125 l 1
 114.259765625 192.650390625 l 1
 130.748046875 211.888671875 l 1
 144.490234375 242.1171875 l 1
 136.244140625 277.84375 l 1
 114.259765625 305.32421875 l 1
 78.533203125 305.32421875 l 1
 40.060546875 283.33984375 l 1
 12.578125 247.61328125 l 1
 -6.658203125 211.888671875 l 1
 -12.154296875 143.18359375 l 1
 -3.91015625 85.474609375 l 1
 20.82421875 47 l 1
 53.80078125 25.013671875 l 1
 103.267578125 0.28125 l 1
 144.490234375 5.77734375 l 1
 191.20703125 30.51171875 l 1
 229.681640625 49.748046875 l 1
 251.666015625 49.748046875 l 1
 290.140625 22.265625 l 1
 323.119140625 5.77734375 l 1
 369.8359375 0.28125 l 1
 413.806640625 0.28125 l 1
 449.533203125 14.021484375 l 1
 499 47 l 1
 545.716796875 82.724609375 l 1
 575.947265625 140.435546875 l 1
 581.443359375 198.146484375 l 1
 578.6953125 239.369140625 l 1
 556.7109375 280.591796875 l 1
 542.96875 299.828125 l 1
 509.9921875 316.31640625 l 1
EndSplineSet
EndChar

StartChar: alpha
Encoding: 40 945 40
Width: 454
VWidth: 924
GlyphClass: 1
Flags: W
AnchorPoint: "topaccent" 220 453 basechar 0
AnchorPoint: "topbreating" 76 408 basechar 0
LayerCount: 2
Fore
SplineSet
380 342.767578125 m 1
 338.8359375 337.279296875 l 1
 314.138671875 312.58203125 l 1
 301.974609375 301.6328125 l 1
 283.951171875 260.44140625 l 1
 256.509765625 235.744140625 l 1
 231.8125 230.255859375 l 1
 216.2578125 241.365234375 l 1
 215.6953125 240.482421875 l 1
 214.24609375 242.802734375 l 1
 212.6015625 243.9765625 l 1
 212.6953125 245.283203125 l 1
 201.955078125 262.46875 l 1
 174.47265625 278.95703125 l 1
 125.0078125 284.453125 l 1
 59.05078125 276.208984375 l 1
 23.326171875 251.474609375 l 1
 4.08984375 207.505859375 l 1
 -4.15625 160.787109375 l 1
 4.08984375 94.83203125 l 1
 26.07421875 56.357421875 l 1
 64.548828125 15.134765625 l 1
 108.517578125 12.38671875 l 1
 163.48046875 26.12890625 l 1
 193.7109375 50.861328125 l 1
 232.18359375 56.357421875 l 1
 262.4140625 59.10546875 l 1
 266.318359375 57.640625 l 1
 270.23046875 46.392578125 l 1
 308.650390625 16.20703125 l 1
 396.46484375 -3.00390625 l 1
 470.55859375 -3.00390625 l 1
 460.755859375 105.93359375 l 1
 398.27734375 85.458984375 l 1
 363.533203125 134.20703125 l 1
 366.27734375 167.138671875 l 1
 374.12890625 204.818359375 l 1
 375.087890625 207.505859375 l 1
 374.916015625 208.59765625 l 1
 380 233 l 1
 404.697265625 279.650390625 l 1
 399.208984375 326.302734375 l 1
 380 342.767578125 l 1
146.9921875 202.009765625 m 1
 174.47265625 199.259765625 l 1
 204.703125 180.0234375 l 1
 204.703125 141.55078125 l 1
 182.71875 122.3125 l 1
 155.236328125 94.83203125 l 1
 97.525390625 97.580078125 l 1
 83.78515625 122.3125 l 1
 81.037109375 149.794921875 l 1
 108.517578125 188.267578125 l 1
 133.251953125 196.51171875 l 1
 146.9921875 202.009765625 l 1
EndSplineSet
EndChar

StartChar: beta
Encoding: 41 946 41
Width: 675
VWidth: 924
GlyphClass: 1
Flags: MW
HStem: -18.7031 105.361
LayerCount: 2
Fore
SplineSet
439.419921875 297.37890625 m 1
 404.90625 295.5625 l 1
 374.0234375 293.74609375 l 1
 357.67578125 284.662109375 l 1
 352.224609375 251.96484375 l 1
 328.609375 173.8515625 l 1
 297.728515625 121.171875 l 1
 276.8203125 109.341796875 l 1
 251.388671875 100.259765625 l 1
 220.5078125 96.626953125 l 1
 178.7265625 96.626953125 l 1
 156.927734375 98.443359375 l 1
 149.662109375 114.79296875 l 1
 156.037109375 130.25390625 l 1
 177.8359375 168.40234375 l 1
 196 212 l 1
 205.083984375 250.1484375 l 1
 203.267578125 262.86328125 l 1
 183.28515625 284.662109375 l 1
 150.5859375 290.11328125 l 1
 110.623046875 290.11328125 l 1
 70.658203125 290.11328125 l 1
 45.2265625 268.314453125 l 1
 14.34375 268.314453125 l 1
 -12.904296875 270.130859375 l 1
 -16.537109375 230.166015625 l 1
 -12.904296875 210.18359375 l 1
 5.26171875 212 l 1
 34.326171875 212 l 1
 48.859375 195.650390625 l 1
 50.67578125 173.8515625 l 1
 48.859375 141.154296875 l 1
 37.958984375 104.822265625 l 1
 37.958984375 64.859375 l 1
 57.94140625 33.9765625 l 1
 87.0078125 12.177734375 l 1
 128.787109375 -2.353515625 l 1
 185.1015625 3.095703125 l 1
 223.25 4.912109375 l 1
 272.296875 21.26171875 l 1
 295.912109375 35.79296875 l 1
 312.26171875 35.79296875 l 1
 337.693359375 23.078125 l 1
 366.7578125 1.279296875 l 1
 392.189453125 -15.0703125 l 1
 435.787109375 -18.703125 l 1
 477.568359375 -18.703125 l 1
 533.8828125 -9.62109375 l 1
 579.296875 -5.98828125 l 1
 635.609375 8.544921875 l 1
 673.7578125 19.4453125 l 1
 706.455078125 30.34375 l 1
 713.72265625 48.509765625 l 1
 704.638671875 81.20703125 l 1
 695.556640625 97.556640625 l 1
 666.4921875 97.556640625 l 1
 631.9765625 99.373046875 l 1
 586.5625 93.923828125 l 1
 533.8828125 90.291015625 l 1
 490.28515625 86.658203125 l 1
 463.03515625 86.658203125 l 1
 442.123046875 91.197265625 l 1
 436.673828125 107.544921875 l 1
 436.673828125 140.244140625 l 1
 442.123046875 158.41015625 l 1
 452.13671875 192.017578125 l 1
 468.486328125 219.265625 l 1
 470.302734375 266.498046875 l 1
 461.21875 288.296875 l 1
 439.419921875 297.37890625 l 1
EndSplineSet
EndChar

StartChar: gamma
Encoding: 42 947 42
Width: 638
VWidth: 924
GlyphClass: 1
Flags: W
LayerCount: 2
Fore
SplineSet
625.91796875 457.310546875 m 1
 581.947265625 440.822265625 l 1
 551.71875 405.095703125 l 1
 510.49609375 330.896484375 l 1
 447.2890625 248.453125 l 1
 408.81640625 198.986328125 l 1
 345.607421875 122.0390625 l 1
 274.15625 53.333984375 l 1
 241.1796875 31.349609375 l 1
 227.439453125 50.5859375 l 1
 219.193359375 86.3125 l 1
 191.712890625 182.498046875 l 1
 144.994140625 281.4296875 l 1
 123.009765625 341.888671875 l 1
 84.53515625 391.35546875 l 1
 32.3203125 416.087890625 l 1
 -19.89453125 399.599609375 l 1
 -39.130859375 385.859375 l 1
 -50.123046875 339.140625 l 1
 -39.130859375 306.1640625 l 1
 -8.900390625 275.93359375 l 1
 13.083984375 248.453125 l 1
 21.328125 234.7109375 l 1
 32.3203125 240.20703125 l 1
 59.802734375 237.458984375 l 1
 79.0390625 212.7265625 l 1
 109.26953125 160.51171875 l 1
 139.498046875 80.81640625 l 1
 139.498046875 39.59375 l 1
 147.7421875 -48.345703125 l 1
 136.75 -100.560546875 l 1
 117.513671875 -128.04296875 l 1
 87.283203125 -158.271484375 l 1
 65.298828125 -210.486328125 l 1
 65.298828125 -257.205078125 l 1
 79.0390625 -292.9296875 l 1
 134.001953125 -309.419921875 l 1
 186.216796875 -268.197265625 l 1
 208.201171875 -226.974609375 l 1
 227.439453125 -177.509765625 l 1
 265.912109375 -122.546875 l 1
 293.39453125 -75.828125 l 1
 395.07421875 20.357421875 l 1
 455.533203125 105.548828125 l 1
 505 177 l 1
 565.458984375 190.7421875 l 1
 634.162109375 226.466796875 l 1
 656.1484375 289.673828125 l 1
 675.384765625 402.34765625 l 1
 669.888671875 449.06640625 l 1
 625.91796875 457.310546875 l 1
EndSplineSet
EndChar

StartChar: delta
Encoding: 43 948 43
Width: 660
VWidth: 924
GlyphClass: 1
Flags: MW
HStem: 763.977 20G
LayerCount: 2
Fore
SplineSet
23.404296875 880.947265625 m 1
 -2.115234375 875.84375 l 1
 -35.2880859375 855.427734375 l 1
 -58.2548828125 809.494140625 l 1
 -55.703125 761.009765625 l 1
 -40.3916015625 730.388671875 l 1
 -12.322265625 692.111328125 l 1
 23.404296875 658.935546875 l 1
 71.8896484375 607.900390625 l 1
 105.063476562 567.0703125 l 1
 150.997070312 518.5859375 l 1
 189.274414062 480.306640625 l 1
 212.241210938 452.236328125 l 1
 242.862304688 416.51171875 l 1
 255.622070312 385.888671875 l 1
 268.381835938 345.060546875 l 1
 268.381835938 322.09375 l 1
 268.381835938 304.23046875 l 1
 245.4140625 296.57421875 l 1
 202.033203125 296.57421875 l 1
 156.100585938 288.919921875 l 1
 120.374023438 253.193359375 l 1
 87.2001953125 214.916015625 l 1
 74.44140625 171.53515625 l 1
 74.44140625 128.154296875 l 1
 84.6494140625 79.66796875 l 1
 115.26953125 36.287109375 l 1
 158.650390625 3.11328125 l 1
 202.033203125 3.11328125 l 1
 247.96484375 18.423828125 l 1
 309.209960938 54.150390625 l 1
 352.592773438 92.427734375 l 1
 365.350585938 130.705078125 l 1
 380.663085938 189.3984375 l 1
 380.663085938 237.8828125 l 1
 380.663085938 309.333984375 l 1
 357.6953125 355.267578125 l 1
 316.866210938 434.375 l 1
 276.036132812 485.412109375 l 1
 225 539 l 1
 179.067382812 592.587890625 l 1
 145.893554688 620.658203125 l 1
 94.8564453125 679.3515625 l 1
 54.0263671875 727.8359375 l 1
 54.0263671875 750.802734375 l 1
 61.6826171875 771.216796875 l 1
 97.4072265625 781.42578125 l 1
 138.237304688 783.9765625 l 1
 176.513671875 771.216796875 l 1
 212.241210938 730.388671875 l 1
 268.381835938 658.935546875 l 1
 309.209960938 618.107421875 l 1
 360.247070312 554.310546875 l 1
 408.732421875 508.376953125 l 1
 436.803710938 472.65234375 l 1
 477.631835938 424.16796875 l 1
 518.461914062 375.681640625 l 1
 554.1875 339.95703125 l 1
 607.775390625 299.126953125 l 1
 643.501953125 278.712890625 l 1
 709.850585938 240.43359375 l 1
 778.749023438 232.779296875 l 1
 809.37109375 240.43359375 l 1
 811.921875 258.296875 l 1
 768.541992188 281.263671875 l 1
 732.817382812 306.783203125 l 1
 697.08984375 329.748046875 l 1
 653.709960938 360.37109375 l 1
 607.775390625 406.3046875 l 1
 569.499023438 439.478515625 l 1
 521.013671875 485.412109375 l 1
 487.837890625 521.13671875 l 1
 444.45703125 569.62109375 l 1
 418.939453125 602.796875 l 1
 375.559570312 648.728515625 l 1
 350.0390625 689.55859375 l 1
 329.625 725.28515625 l 1
 296.451171875 781.42578125 l 1
 268.381835938 822.25390625 l 1
 230.104492188 847.7734375 l 1
 173.962890625 868.1875 l 1
 115.26953125 878.39453125 l 1
 56.578125 880.947265625 l 1
 23.404296875 880.947265625 l 1
237.7578125 197.052734375 m 1
 278.587890625 197.052734375 l 1
 291.348632812 176.638671875 l 1
 276.036132812 148.568359375 l 1
 245.4140625 123.048828125 l 1
 207.137695312 97.53125 l 1
 179.067382812 97.53125 l 1
 171.411132812 123.048828125 l 1
 173.962890625 143.46484375 l 1
 191.826171875 176.638671875 l 1
 237.7578125 197.052734375 l 1
EndSplineSet
EndChar

StartChar: epsilon
Encoding: 44 949 44
Width: 234
VWidth: 924
GlyphClass: 1
Flags: HMW
HStem: 147.937 94.8105
AnchorPoint: "topbreating" 51 498 basechar 0
AnchorPoint: "topaccent" 170 550 basechar 0
LayerCount: 2
Fore
SplineSet
62.5224609375 425.021484375 m 1
 18.05078125 334.139648438 l 1
 -1.8564453125 213.891601562 l 1
 -1.8564453125 106.713867188 l 1
 23.0478515625 42.7236328125 l 1
 52.9697265625 9.3818359375 l 1
 130.053710938 -4.5849609375 l 1
 186.674804688 21.4091796875 l 1
 198.12109375 55.11328125 l 1
 178.600585938 80.7431640625 l 1
 132.551757812 76.2568359375 l 1
 93.658203125 92.3828125 l 1
 98.8486328125 135.569335938 l 1
 167.155273438 147.936523438 l 1
 212.499023438 172.668945312 l 1
 204.254882812 230.379882812 l 1
 175.399414062 242.747070312 l 1
 121.809570312 242.747070312 l 1
 117.688476562 296.334960938 l 1
 138.299804688 333.434570312 l 1
 186.334960938 338.478515625 l 1
 232.915039062 347.9609375 l 1
 233.086914062 397.790039062 l 1
 199.57421875 411.39453125 l 1
 134.176757812 424.124023438 l 1
 62.5224609375 425.021484375 l 1
EndSplineSet
EndChar

StartChar: zeta
Encoding: 45 950 45
Width: 730
VWidth: 924
GlyphClass: 1
Flags: MW
HStem: -159.746 74.1992
LayerCount: 2
Fore
SplineSet
408.63671875 543.77734375 m 1
 345.4296875 532.78515625 l 1
 276.7265625 505.302734375 l 1
 210.771484375 455.8359375 l 1
 150.3125 411.8671875 l 1
 92.6015625 343.162109375 l 1
 43.134765625 296.4453125 l 1
 7.41015625 235.986328125 l 1
 -20.072265625 192.015625 l 1
 -28.31640625 161.78515625 l 1
 -25.568359375 137.052734375 l 1
 -3.583984375 109.572265625 l 1
 26.646484375 117.81640625 l 1
 65.119140625 170.03125 l 1
 106.341796875 219.49609375 l 1
 109.08984375 233.23828125 l 1
 139.3203125 274.458984375 l 1
 197.03125 343.162109375 l 1
 249.24609375 384.384765625 l 1
 312.453125 428.35546875 l 1
 383.904296875 450.33984375 l 1
 438.8671875 461.33203125 l 1
 502.07421875 453.087890625 l 1
 559.78515625 428.35546875 l 1
 576.2734375 392.62890625 l 1
 598.2578125 348.66015625 l 1
 584.517578125 310.185546875 l 1
 554.2890625 279.955078125 l 1
 499.326171875 249.7265625 l 1
 452.607421875 224.9921875 l 1
 392.1484375 214 l 1
 364.66796875 194.763671875 l 1
 367.416015625 153.541015625 l 1
 375.66015625 120.564453125 l 1
 408.63671875 98.578125 l 1
 466.34765625 95.830078125 l 1
 568.029296875 98.578125 l 1
 617.49609375 87.5859375 l 1
 639.48046875 62.853515625 l 1
 653.220703125 32.623046875 l 1
 644.9765625 -11.34765625 l 1
 620.244140625 -47.072265625 l 1
 587.265625 -69.056640625 l 1
 524.05859375 -88.294921875 l 1
 392.1484375 -93.791015625 l 1
 279.474609375 -85.546875 l 1
 216.267578125 -85.546875 l 1
 153.060546875 -77.302734375 l 1
 114.5859375 -58.064453125 l 1
 92.6015625 -30.583984375 l 1
 73.365234375 -3.1015625 l 1
 37.638671875 7.890625 l 1
 4.66015625 5.142578125 l 1
 -11.828125 -19.591796875 l 1
 1.912109375 -52.568359375 l 1
 29.39453125 -85.546875 l 1
 81.609375 -113.02734375 l 1
 155.80859375 -137.76171875 l 1
 216.267578125 -151.501953125 l 1
 293.21484375 -162.494140625 l 1
 375.66015625 -159.74609375 l 1
 510.318359375 -159.74609375 l 1
 557.037109375 -159.74609375 l 1
 620.244140625 -154.25 l 1
 664.21484375 -129.517578125 l 1
 705.435546875 -91.04296875 l 1
 738.4140625 -38.828125 l 1
 749.40625 18.8828125 l 1
 749.40625 82.08984375 l 1
 741.162109375 117.81640625 l 1
 710.931640625 137.052734375 l 1
 661.46484375 161.78515625 l 1
 622.9921875 172.779296875 l 1
 598.2578125 172.779296875 l 1
 584.517578125 183.771484375 l 1
 612 214 l 1
 661.46484375 235.986328125 l 1
 688.947265625 266.21484375 l 1
 699.939453125 326.673828125 l 1
 680.703125 403.62109375 l 1
 642.228515625 450.33984375 l 1
 601.005859375 483.318359375 l 1
 546.044921875 519.04296875 l 1
 485.5859375 541.029296875 l 1
 408.63671875 543.77734375 l 1
EndSplineSet
EndChar

StartChar: eta
Encoding: 46 951 46
Width: 498
VWidth: 924
GlyphClass: 1
Flags: W
AnchorPoint: "topbreating" 137 729 basechar 0
AnchorPoint: "topaccent" 277 729 basechar 0
LayerCount: 2
Fore
SplineSet
53.26171875 324.3203125 m 1
 23.845703125 239.08203125 l 1
 0.8251953125 156.387695312 l 1
 -14.94921875 83.7861328125 l 1
 4.3203125 19.8359375 l 1
 41.068359375 -11.9697265625 l 1
 103.396484375 -3.572265625 l 1
 142.6171875 21.5322265625 l 1
 203.153320312 60.29296875 l 1
 262.411132812 95.40625 l 1
 295.833984375 115.846679688 l 1
 314.93359375 115.676757812 l 1
 322.948242188 69.3681640625 l 1
 346.224609375 20.3447265625 l 1
 382.03515625 -15.1923828125 l 1
 432.42578125 -38.0078125 l 1
 495.810546875 -9.962890625 l 1
 533.327148438 22.9453125 l 1
 532.559570312 45.505859375 l 1
 515.677734375 66.625 l 1
 475.34765625 63.9951171875 l 1
 440.525390625 23.3984375 l 1
 425.689453125 35.2724609375 l 1
 421 96 l 1
 418.698242188 139.254882812 l 1
 420.232421875 206.00390625 l 1
 402.583007812 252.482421875 l 1
 375.612304688 285.447265625 l 1
 342.512695312 288.599609375 l 1
 306.26171875 283.87109375 l 1
 282.620117188 249.196289062 l 1
 257.401367188 209.79296875 l 1
 206.96484375 160.932617188 l 1
 165.985351562 127.833007812 l 1
 123.4296875 104.19140625 l 1
 93.4833984375 97.88671875 l 1
 80.8740234375 119.953125 l 1
 90.3310546875 168.8125 l 1
 140.767578125 302.784179688 l 1
 186.475585938 400.504882812 l 1
 208.541015625 455.669921875 l 1
 219.57421875 513.987304688 l 1
 221.150390625 564.423828125 l 1
 210.1171875 608.555664062 l 1
 180.170898438 614.860351562 l 1
 132.88671875 608.555664062 l 1
 91.9072265625 569.15234375 l 1
 41.470703125 452.517578125 l 1
 25.708984375 380.015625 l 1
 33.58984375 335.883789062 l 1
 53.26171875 324.3203125 l 1
EndSplineSet
EndChar

StartChar: theta
Encoding: 47 952 47
Width: 265
VWidth: 924
GlyphClass: 1
Flags: W
LayerCount: 2
Fore
SplineSet
177.748046875 700.560546875 m 1
 103.318359375 688.65234375 l 1
 52.70703125 670.7890625 l 1
 16.982421875 602.314453125 l 1
 11.02734375 524.908203125 l 1
 8.05078125 465.365234375 l 1
 5.072265625 402.845703125 l 1
 -3.857421875 322.462890625 l 1
 -3.857421875 251.009765625 l 1
 11.02734375 173.60546875 l 1
 37.822265625 93.22265625 l 1
 73.546875 15.81640625 l 1
 127.13671875 0.9296875 l 1
 183.701171875 30.701171875 l 1
 207.51953125 84.291015625 l 1
 258.130859375 179.55859375 l 1
 261.107421875 256.96484375 l 1
 258.130859375 355.2109375 l 1
 258.130859375 444.525390625 l 1
 246.22265625 530.86328125 l 1
 222.404296875 608.267578125 l 1
 207.51953125 661.857421875 l 1
 177.748046875 700.560546875 l 1
133.08984375 536.81640625 m 1
 145 513 l 1
 153.9296875 453.45703125 l 1
 159.884765625 399.8671875 l 1
 150.953125 352.234375 l 1
 103.318359375 355.2109375 l 1
 97.365234375 390.9375 l 1
 103.318359375 438.5703125 l 1
 103.318359375 492.16015625 l 1
 118.205078125 524.908203125 l 1
 133.08984375 536.81640625 l 1
103.318359375 248.033203125 m 1
 136.068359375 233.1484375 l 1
 145 215.28515625 l 1
 130.11328125 173.60546875 l 1
 109.2734375 155.7421875 l 1
 91.41015625 155.7421875 l 1
 91.41015625 191.466796875 l 1
 103.318359375 248.033203125 l 1
EndSplineSet
EndChar

StartChar: kappa
Encoding: 48 954 48
Width: 470
VWidth: 924
GlyphClass: 1
Flags: MW
HStem: 23.6602 49.3945
LayerCount: 2
Fore
SplineSet
101.913085938 432.546875 m 1
 73.0986328125 424.314453125 l 1
 40.1689453125 394.12890625 l 1
 9.9814453125 361.197265625 l 1
 -2.3662109375 343.361328125 l 1
 -5.1103515625 321.40625 l 1
 -7.8544921875 296.708984375 l 1
 4.4931640625 273.3828125 l 1
 16.8427734375 269.267578125 l 1
 37.4248046875 281.615234375 l 1
 37.4248046875 251.4296875 l 1
 34.6806640625 207.521484375 l 1
 25.0751953125 166.359375 l 1
 11.3544921875 127.939453125 l 1
 -5.1103515625 105.986328125 l 1
 -10.6005859375 81.2890625 l 1
 -11.9716796875 37.380859375 l 1
 1.7490234375 3.078125 l 1
 20.9580078125 -2.41015625 l 1
 47.0283203125 -3.783203125 l 1
 73.0986328125 1.705078125 l 1
 92.3076171875 23.66015625 l 1
 93.6806640625 44.2421875 l 1
 93.6806640625 60.70703125 l 1
 107.401367188 90.892578125 l 1
 126.610351562 121.080078125 l 1
 141.704101562 127.939453125 l 1
 158.168945312 125.1953125 l 1
 186.983398438 99.125 l 1
 228.147460938 82.66015625 l 1
 274.797851562 59.333984375 l 1
 304.985351562 48.357421875 l 1
 355.752929688 34.63671875 l 1
 403.776367188 29.1484375 l 1
 450.428710938 22.287109375 l 1
 484.731445312 23.66015625 l 1
 497.079101562 41.498046875 l 1
 497.079101562 64.822265625 l 1
 476.499023438 73.0546875 l 1
 428.475585938 86.77734375 l 1
 384.567382812 96.380859375 l 1
 339.288085938 114.21875 l 1
 313.217773438 129.3125 l 1
 283.032226562 151.265625 l 1
 262.450195312 170.474609375 l 1
 251.473632812 186.94140625 l 1
 252.844726562 208.89453125 l 1
 272.053710938 223.98828125 l 1
 322.823242188 254.173828125 l 1
 388.682617188 296.708984375 l 1
 439.452148438 333.755859375 l 1
 457.288085938 359.826171875 l 1
 450.428710938 381.779296875 l 1
 425.731445312 390.01171875 l 1
 377.706054688 388.640625 l 1
 336.543945312 374.919921875 l 1
 277.541992188 336.5 l 1
 228.147460938 303.5703125 l 1
 196.588867188 278.87109375 l 1
 169.145507812 274.755859375 l 1
 158.168945312 289.84765625 l 1
 165.030273438 346.10546875 l 1
 158.168945312 385.896484375 l 1
 132.098632812 431.17578125 l 1
 101.913085938 432.546875 l 1
EndSplineSet
EndChar

StartChar: lambda
Encoding: 49 955 49
Width: 743
VWidth: 924
GlyphClass: 1
Flags: W
LayerCount: 2
Fore
SplineSet
128.6640625 783.6953125 m 1
 99.392578125 780.037109375 l 1
 84.755859375 747.10546875 l 1
 93.904296875 705.029296875 l 1
 114.02734375 686.734375 l 1
 145.12890625 670.267578125 l 1
 141.470703125 640.99609375 l 1
 137.810546875 615.384765625 l 1
 157.935546875 606.236328125 l 1
 190.865234375 595.259765625 l 1
 218.30859375 604.40625 l 1
 245.75 597.08984375 l 1
 285.998046875 556.83984375 l 1
 355.51953125 498.296875 l 1
 388.44921875 450.73046875 l 1
 392.53125 445.677734375 l 1
 370.154296875 439.75390625 l 1
 205.501953125 324.498046875 l 1
 167.08203125 275.1015625 l 1
 106.7109375 234.853515625 l 1
 53.65625 200.09375 l 1
 -35.98828125 114.107421875 l 1
 -74.408203125 84.8359375 l 1
 -68.919921875 46.416015625 l 1
 -52.455078125 13.486328125 l 1
 -30.5 2.509765625 l 1
 -1.228515625 4.337890625 l 1
 49.99609375 18.974609375 l 1
 71.94921875 39.099609375 l 1
 110.369140625 83.005859375 l 1
 128.6640625 128.744140625 l 1
 150.6171875 159.84375 l 1
 210.990234375 198.263671875 l 1
 265.875 242.169921875 l 1
 337.224609375 293.396484375 l 1
 401.255859375 340.962890625 l 1
 441.50390625 357.427734375 l 1
 457.794921875 364.875 l 1
 465.287109375 355.59765625 l 1
 520.171875 291.56640625 l 1
 560.419921875 236.681640625 l 1
 597.009765625 189.115234375 l 1
 646.40625 119.595703125 l 1
 692.142578125 28.12109375 l 1
 765.322265625 -90.79296875 l 1
 801.912109375 -127.3828125 l 1
 845.818359375 -143.849609375 l 1
 871.431640625 -136.53125 l 1
 882.408203125 -114.576171875 l 1
 884.23828125 -94.453125 l 1
 867.771484375 -81.646484375 l 1
 851.306640625 -74.328125 l 1
 811.05859375 9.828125 l 1
 770.810546875 92.154296875 l 1
 739.708984375 134.232421875 l 1
 659.212890625 251.318359375 l 1
 576.884765625 357.427734375 l 1
 533.787109375 416.294921875 l 1
 543.955078125 426.947265625 l 1
 540.296875 459.87890625 l 1
 490.900390625 472.685546875 l 1
 489.23046875 472.216796875 l 1
 426.869140625 533.056640625 l 1
 337.224609375 630.01953125 l 1
 258.556640625 708.6875 l 1
 196.35546875 756.25390625 l 1
 128.6640625 783.6953125 l 1
EndSplineSet
EndChar

StartChar: uni03BC
Encoding: 50 956 50
Width: 687
VWidth: 924
GlyphClass: 1
Flags: MW
HStem: -7.8125 71.6543 25.0117 83.1465
VStem: 115.049 138.01
LayerCount: 2
Fore
SplineSet
208.01171875 323.4140625 m 0x60
 202.034179688 324.13671875 196.185546875 320.895507812 190.564453125 318.736328125 c 0
 187.66015625 317.620117188 185.208984375 315.546875 182.7109375 313.69140625 c 0
 178.104492188 310.267578125 174.513671875 305.7578125 170.998046875 301.294921875 c 0
 164.796875 292.923828125 159.99609375 283.6484375 155.5078125 274.28125 c 0
 150.662109375 264.059570312 147.134765625 253.30859375 143.947265625 242.478515625 c 0
 141.587890625 234.158203125 139.704101562 225.715820312 137.583984375 217.333984375 c 0
 136.216796875 211.571289062 134.307617188 205.97265625 132.24609375 200.4296875 c 0
 129.086914062 192.305664062 126.158203125 184.098632812 123.369140625 175.841796875 c 0
 119.892578125 165.90234375 117.75390625 155.596679688 116.166015625 145.2109375 c 0
 115.211914062 137.697265625 114.684570312 130.112304688 115.048828125 122.537109375 c 0
 115.263671875 118.079101562 115.546875 116.368164062 116.025390625 112.66796875 c 0
 115.927734375 112.546875 115.84375 112.415039062 115.744140625 112.294921875 c 0
 111.322265625 107.020507812 106.817382812 101.80078125 101.873046875 97.00390625 c 0
 99.3671875 94.544921875 96.931640625 91.947265625 94.1953125 89.751953125 c 0
 90.189453125 87.2314453125 85.666015625 85.6357421875 81.298828125 83.873046875 c 0
 75.1103515625 81.466796875 68.9912109375 78.89453125 62.853515625 76.361328125 c 0
 58.048828125 74.4443359375 47.3662109375 66.6376953125 42.3662109375 65.275390625 c 0
 39.078125 64.4072265625 35.7890625 63.5087890625 32.4150390625 63.037109375 c 0
 30.708984375 63.0126953125 29.0341796875 63.0615234375 27.3330078125 63.189453125 c 0
 26.896484375 63.22265625 26.4609375 63.2626953125 26.0244140625 63.298828125 c 0
 25.810546875 63.31640625 25.5341796875 63.3974609375 25.3818359375 63.3515625 c 0
 24.826171875 63.5927734375 23.99609375 63.92578125 23.9931640625 64.111328125 c 0
 20.6943359375 66.4384765625 17.615234375 69.0283203125 14.8857421875 72.017578125 c 0
 12.6591796875 74.455078125 10.4384765625 76.9033203125 8.6103515625 79.662109375 c 0
 8.5859375 79.6875 8.564453125 79.697265625 8.5380859375 79.73828125 c 0
 -5.8603515625 131.177734375 -57.65625 110.509765625 -45.5927734375 54.7109375 c 0
 -43.9609375 46.9150390625 -40.3603515625 39.833984375 -36.2802734375 33.0703125 c 0
 -31.9013671875 26 -20.6826171875 25.5029296875 -15.146484375 19.32421875 c 0
 -8.5390625 11.9951171875 -0.67578125 12.896484375 7.267578125 7.078125 c 0
 13.4609375 2.70703125 20.0185546875 -1.197265625 27.103515625 -3.9453125 c 0
 28.7314453125 -4.5771484375 29.306640625 -6.1943359375 30.953125 -6.771484375 c 0
 41.30078125 -9.921875 33.5322265625 -8.2626953125 44.28515625 -8.408203125 c 0
 55.0107421875 -8.380859375 59.2998046875 -4.69140625 69.625 -2.01171875 c 0
 77.9541015625 0.173828125 86.005859375 3.224609375 93.994140625 6.404296875 c 0
 99.9208984375 8.8154296875 103.977539062 9.5146484375 109.943359375 11.828125 c 0
 118.28515625 14.88671875 126.291992188 18.7109375 134.03515625 23.046875 c 0
 143.306640625 28.3076171875 149.206054688 32.3828125 156.771484375 39.78125 c 0
 163.64453125 46.447265625 167.40234375 38.720703125 173.564453125 46.0390625 c 0
 173.5859375 46.0634765625 173.620117188 46.123046875 173.640625 46.1484375 c 0
 173.71875 46.1162109375 173.83203125 46.04296875 173.908203125 46.01171875 c 0
 181.036132812 43.19140625 180.098632812 44.982421875 187.5078125 43.087890625 c 0
 193.986328125 41.3232421875 199.64453125 43.6083984375 206.068359375 41.658203125 c 0
 212.641601562 39.626953125 219.3359375 38.0439453125 226.08203125 36.720703125 c 0
 229.189453125 36.330078125 232.181640625 35.470703125 235.20703125 34.71484375 c 0
 239.811523438 33.5712890625 244.442382812 32.544921875 249.0859375 31.576171875 c 0
 255.0390625 30.3671875 260.990234375 29.1513671875 266.943359375 27.947265625 c 0
 274.587890625 26.296875 282.3515625 25.44140625 290.1484375 25.00390625 c 0
 296.25 24.6640625 302.35546875 24.9853515625 308.45703125 25.01171875 c 0x60
 315.0703125 24.9287109375 321.681640625 24.7314453125 328.294921875 24.70703125 c 0
 336.3984375 24.6015625 344.46875 25.1328125 352.494140625 26.208984375 c 0
 360.595703125 27.423828125 368.603515625 29.1083984375 376.544921875 31.103515625 c 0
 383.884765625 32.9990234375 391.032226562 35.498046875 398.12109375 38.16015625 c 1
 402.194335938 33.6025390625 406.725585938 29.4658203125 411.69140625 25.796875 c 0
 415.502929688 22.9814453125 417.063476562 22.1689453125 421.150390625 19.697265625 c 0
 428.771484375 15.2861328125 436.770507812 11.642578125 444.98046875 8.490234375 c 0
 453.875976562 5.119140625 462.99609375 2.501953125 472.302734375 0.568359375 c 0
 481.649414062 -1.013671875 491.114257812 -1.6611328125 500.51171875 -2.869140625 c 0
 512.014648438 -4.5986328125 523.55078125 -6.0205078125 535.13671875 -7.0390625 c 0
 546.864257812 -8.033203125 558.641601562 -7.9931640625 570.3984375 -7.8125 c 0
 581.375976562 -7.6904296875 592.323242188 -6.958984375 603.220703125 -5.6640625 c 0
 610.227539062 -4.765625 617.137695312 -3.2998046875 624.02734375 -1.771484375 c 0
 630.65625 -0.248046875 719.5703125 23.150390625 726.16015625 24.8330078125 c 0
 734.754882812 27.1142578125 743.326171875 29.46875 751.93359375 31.7001953125 c 0
 756.010742188 33.271484375 761.154296875 32.66015625 765.017578125 34.7353515625 c 0
 771.694335938 38.3212890625 777.82421875 42.8408203125 784.2265625 46.8935546875 c 0
 824.501953125 89.728515625 722.69140625 92.3701171875 722.69140625 92.3701171875 c 1
 710.251953125 90.4560546875 l 2
 704.0703125 89.5048828125 698.60546875 87.9833984375 704.267578125 91.1357421875 c 1
 695.75 88.92578125 630.799804688 74.3515625 622.298828125 72.078125 c 0
 616.573242188 70.609375 610.821289062 69.2578125 605.0625 67.921875 c 0
 600.799804688 66.9755859375 596.533203125 66.0146484375 592.20703125 65.392578125 c 0
 584.220703125 64.376953125 576.180664062 63.96875 568.1328125 63.841796875 c 0xa0
 559.215820312 63.6982421875 550.28125 63.6005859375 541.3828125 64.314453125 c 0
 530.905273438 65.212890625 520.487304688 66.59375 510.083984375 68.12890625 c 0
 502.583007812 69.0810546875 496.022460938 81.333984375 488.50390625 82.123046875 c 0
 483.768554688 82.9072265625 479.258789062 84.6005859375 474.73046875 86.1484375 c 1
 474.923828125 86.341796875 475.125976562 86.525390625 475.318359375 86.71875 c 0
 483.791015625 95.24609375 490.127929688 104.788085938 495.95703125 115.220703125 c 0
 499.830078125 122.514648438 503.6171875 129.854492188 507.41015625 137.189453125 c 0
 511.833007812 145.455078125 515.717773438 153.963867188 519.11328125 162.697265625 c 0
 522.758789062 172.498046875 525.897460938 182.474609375 528.904296875 192.486328125 c 0
 532.677734375 204.55078125 531.579101562 209.309570312 533.595703125 221.775390625 c 0
 535.293945312 233.932617188 536.236328125 246.17578125 537.169921875 258.41015625 c 0
 537.559570312 263.748046875 537.90625 269.08984375 538.18359375 274.435546875 c 0
 539.600585938 303.55859375 519.26171875 305.484375 478.697265625 315.03125 c 0
 472.76953125 316.426757812 457.546875 308.62890625 453.517578125 302.71484375 c 0
 449.08203125 296.075195312 445.500976562 288.921875 441.74609375 281.888671875 c 0
 437.754882812 274.177734375 436.874023438 274.440429688 431.875 267.3515625 c 0
 425.549804688 258.818359375 418.755859375 250.653320312 412.314453125 242.20703125 c 0
 404.178710938 231.428710938 396.591796875 220.26953125 389.556640625 208.74609375 c 0
 382.814453125 197.715820312 383.698242188 180.959960938 379.400390625 168.78515625 c 0
 375.626953125 157.94921875 374.403320312 146.548828125 373.58984375 135.177734375 c 0
 373.157226562 129.33984375 373.166015625 123.504882812 373.38671875 117.677734375 c 1
 367.697265625 115.415039062 361.958007812 113.272460938 356.0390625 111.685546875 c 0
 351.065429688 110.391601562 346.038085938 109.375976562 340.962890625 108.5546875 c 0
 336.857421875 107.903320312 332.700195312 107.862304688 328.548828125 107.857421875 c 0
 321.62109375 107.873046875 314.698242188 108.14453125 307.76953125 108.158203125 c 0
 303.30078125 108.111328125 298.829101562 107.927734375 294.359375 108.046875 c 0
 290.676757812 108.17578125 287.028320312 108.666015625 283.423828125 109.447265625 c 0
 277.609375 110.622070312 271.796875 111.813476562 265.982421875 112.9921875 c 0
 262.360351562 113.73828125 258.751953125 114.549804688 255.16015625 115.435546875 c 0
 250.767578125 116.494140625 246.404296875 117.702148438 241.921875 118.34765625 c 0
 237.970703125 119.098632812 234.055664062 120.033203125 230.2109375 121.2265625 c 0
 227.919921875 121.921875 225.612304688 122.56640625 223.32421875 123.275390625 c 1
 225.3046875 127.53125 227.19140625 131.831054688 229.072265625 136.12890625 c 0
 232.771484375 144.250976562 236.146484375 152.498046875 239.013671875 160.94921875 c 0
 242.049804688 170.313476562 243.786132812 180.009765625 245.2421875 189.72265625 c 0
 246.534179688 198.78125 247.653320312 207.861328125 248.6796875 216.953125 c 0
 249.80859375 227.2421875 250.805664062 237.545898438 251.662109375 247.861328125 c 0
 252.387695312 256.52734375 252.91015625 265.211914062 253.05859375 273.908203125 c 0
 252.905273438 278.857421875 253.080078125 283.986328125 251.8671875 288.837890625 c 0
 251.118164062 291.838867188 250.643554688 295.012695312 249.103515625 297.6953125 c 0
 245.966796875 303.162109375 241.701171875 307.8984375 238 313 c 0
 228.00390625 316.471679688 218.517578125 322.143554688 208.01171875 323.4140625 c 0x60
169.810546875 276.48828125 m 0
 169.806640625 276.525390625 169.833007812 276.416015625 169.83984375 276.37890625 c 0
 169.852539062 276.30859375 169.844726562 276.25390625 169.8515625 276.197265625 c 1
 169.840820312 276.291992188 169.822265625 276.393554688 169.810546875 276.48828125 c 0
8.7275390625 79.078125 m 1
 8.7880859375 78.9248046875 8.8486328125 78.771484375 8.9033203125 78.615234375 c 0
 9.171875 77.8515625 9.3779296875 77.1484375 9.5732421875 76.359375 c 0
 9.671875 75.958984375 9.7529296875 75.5556640625 9.8427734375 75.15234375 c 1
 9.5341796875 76.5810546875 9.087890625 77.7451171875 8.7275390625 79.078125 c 1
EndSplineSet
EndChar

StartChar: nu
Encoding: 51 957 51
Width: 393
VWidth: 924
GlyphClass: 1
Flags: MW
HStem: 2.52539 93.3125<175 175>
VStem: 295.133 94.7676
LayerCount: 2
Fore
SplineSet
80.666015625 400.576171875 m 0
 73.970703125 400.638671875 67.462890625 397.65234375 61.466796875 394.673828125 c 0
 57.3466796875 392.625976562 54.42578125 388.750976562 50.904296875 385.7890625 c 0
 45.0107421875 378.923828125 41.5 370.579101562 37.890625 362.39453125 c 0
 34.6064453125 354.870117188 31.46484375 347.28515625 28.322265625 339.701171875 c 0
 24.5673828125 330.51171875 21.408203125 321.096679688 18.142578125 311.7265625 c 0
 15.2392578125 303.446289062 12.3642578125 295.1484375 9.0078125 287.0390625 c 0
 7.478515625 283.255859375 5.623046875 279.62890625 3.599609375 276.091796875 c 0
 3.0166015625 275.047851562 2.2763671875 274.107421875 1.568359375 273.1484375 c 0
 0.421875 271.563476562 -0.671875 269.939453125 -1.748046875 268.306640625 c 0
 -7.12890625 260.123046875 -6.63671875 255.198242188 -9.169921875 243.3984375 c 0
 -8.53125 236.009765625 -8.4892578125 235.606445312 -9.080078125 242.18359375 c 1
 -8.7939453125 211.049804688 14.6552734375 196.625976562 36.576171875 198.66796875 c 1
 35.6181640625 189.833007812 34.6982421875 180.994140625 34.04296875 172.1328125 c 0
 33.361328125 160.717773438 33.0244140625 149.284179688 32.220703125 137.876953125 c 0
 31.35546875 126.099609375 29.8828125 114.383789062 28.314453125 102.681640625 c 0
 26.583984375 89.841796875 24.75 77.0146484375 22.9296875 64.1875 c 0
 21.193359375 51.7578125 19.5380859375 39.3193359375 18.025390625 26.861328125 c 0
 16.474609375 15.3076171875 14.7255859375 3.7841796875 13.00390625 -7.744140625 c 0
 11.244140625 -19.8310546875 9.6064453125 -31.935546875 8.01171875 -44.044921875 c 0
 6.638671875 -54.0078125 5.171875 -63.9658203125 3.056640625 -73.802734375 c 0
 1.068359375 -83.08984375 -1.197265625 -92.3076171875 -3.64453125 -101.484375 c 0
 -6.228515625 -111.974609375 -8.6171875 -122.510742188 -10.517578125 -133.1484375 c 0
 -12.67578125 -145.243164062 -14.533203125 -157.385742188 -15.876953125 -169.599609375 c 0
 -17.6748046875 -186.173828125 -19.0087890625 -202.944335938 -15.986328125 -219.478515625 c 0
 -15.33203125 -222.296875 -14.8583984375 -225.163085938 -14.025390625 -227.93359375 c 0
 -9.4716796875 -243.076171875 -0.9189453125 -256.538085938 13.349609375 -264.267578125 c 0
 16.8408203125 -266.159179688 20.73828125 -267.177734375 24.431640625 -268.6328125 c 0
 28.2265625 -269.184570312 31.986328125 -270.100585938 35.81640625 -270.2890625 c 0
 50.1220703125 -270.993164062 63.583984375 -265.041015625 74.689453125 -256.51953125 c 0
 83.9072265625 -248.1875 91.0869140625 -239.4375 97.490234375 -228.775390625 c 0
 103.083007812 -219.907226562 108.557617188 -210.96484375 114.154296875 -202.099609375 c 0
 119.366210938 -193.559570312 124.62109375 -184.967773438 128.447265625 -175.6953125 c 0
 130.815429688 -169.227539062 132.786132812 -162.63671875 133.96875 -155.837890625 c 0
 141.524414062 -117.375 107.790039062 -97.47265625 81.095703125 -105.546875 c 1
 82.2333984375 -100.798828125 83.3232421875 -96.0380859375 84.3515625 -91.26171875 c 0
 86.9091796875 -79.4150390625 88.7177734375 -67.427734375 90.37890625 -55.427734375 c 0
 91.951171875 -43.5205078125 93.552734375 -31.6162109375 95.28515625 -19.73046875 c 0
 96.9287109375 -8.7568359375 98.5595703125 2.216796875 100.0625 13.2109375 c 0
 103.478515625 12.765625 106.90625 12.388671875 110.35546875 12.37109375 c 0
 113.39453125 12.2880859375 116.419921875 11.9775390625 119.44921875 11.734375 c 0
 127.565429688 11.0830078125 138.203125 5.9794921875 146.271484375 4.888671875 c 0
 156.108398438 3.6806640625 165.98046875 3.0263671875 175.876953125 2.525390625 c 0
 186.22265625 1.826171875 196.614257812 1.10546875 206.970703125 2.064453125 c 0
 218.081054688 3.154296875 229.020507812 5.208984375 239.568359375 8.966796875 c 0
 249.296875 12.23828125 259.139648438 15.248046875 268.556640625 19.361328125 c 0
 278.09375 23.8740234375 287.345703125 28.994140625 295.455078125 35.822265625 c 0
 301.676757812 40.765625 308.022460938 45.583984375 313.70703125 51.158203125 c 0
 319.95703125 57.607421875 325.74609375 64.4931640625 330.291015625 72.27734375 c 0
 335.123046875 80.0439453125 339.897460938 87.849609375 344.296875 95.873046875 c 0
 350.037109375 106.159179688 355.892578125 116.396484375 360.982421875 127.02734375 c 0
 365.171875 135.516601562 366.909179688 148.221679688 370.4921875 156.9921875 c 0
 374.454101562 167.0390625 378.083007812 177.2265625 380.9609375 187.642578125 c 0
 383.68359375 198.36328125 385.72265625 209.209960938 386.94140625 220.2109375 c 0
 388.530273438 231.930664062 390.026367188 243.674804688 390.7265625 255.48828125 c 0
 391.3125 266.793945312 391.381835938 278.131835938 389.900390625 289.3828125 c 0
 389.216796875 295.2578125 388.55078125 301.13671875 388.001953125 307.02734375 c 0
 387.567382812 311.946289062 387.1328125 316.865234375 386.798828125 321.79296875 c 0
 395.71875 405.755859375 289.92578125 382.379882812 291.7578125 318.224609375 c 0
 292.100585938 313.143554688 292.551757812 308.071289062 293 303 c 0
 293.611328125 296.345703125 294.362304688 289.70703125 295.1328125 283.0703125 c 0
 296.044921875 276.5234375 295.92578125 269.9296875 295.52734375 263.353515625 c 0
 294.920898438 253.758789062 293.671875 244.221679688 292.375 234.701171875 c 0
 291.494140625 226.9375 290.272460938 219.247070312 288.271484375 211.6953125 c 0
 286.19140625 204.66796875 283.752929688 197.750976562 281.029296875 190.94921875 c 0
 278.192382812 184.294921875 274.905273438 177.84375 271.705078125 171.359375 c 0
 267.225585938 161.989257812 262.030273438 152.989257812 256.97265625 143.92578125 c 0
 253.216796875 137.0546875 249.114257812 130.385742188 244.978515625 123.740234375 c 0
 243.62109375 121.170898438 241.8359375 119.009765625 239.74609375 117.033203125 c 0
 236.2109375 114.125976562 232.600585938 111.306640625 229.015625 108.458984375 c 0
 226.002929688 105.713867188 222.470703125 103.926757812 218.78515625 102.294921875 c 0
 212.0390625 99.787109375 221.262695312 102.375 214.44140625 100.08203125 c 0
 210.002929688 98.40625 199.126953125 95.5673828125 194.42578125 95.220703125 c 0
 188.462890625 94.84765625 182.485351562 95.4326171875 176.537109375 95.837890625 c 0
 168.517578125 95.841796875 158.231445312 102.716796875 142.61328125 107.435546875 c 1
 128.588867188 121.2734375 130.62109375 122.497070312 125.958984375 128.302734375 c 0
 126.106445312 129.119140625 126.334960938 129.9296875 126.3984375 130.75390625 c 0
 127.283203125 142.57421875 130.775390625 159.412109375 131.498046875 171.2421875 c 0
 132.34765625 181.985351562 133.551757812 192.698242188 134.732421875 203.41015625 c 0
 136.479492188 217.9453125 138.653320312 232.419921875 140.2421875 246.9765625 c 0
 141.826171875 261.899414062 142.232421875 276.90234375 142.375 291.896484375 c 0
 142.264648438 304.39453125 142.237304688 316.891601562 142.25390625 329.390625 c 0
 142.32421875 340.032226562 141.538085938 350.65234375 140.21875 361.205078125 c 0
 139.745117188 364.73828125 139.192382812 368.26171875 138.451171875 371.75 c 0
 133.374023438 393.568359375 101.84375 400.377929688 80.666015625 400.576171875 c 0
21.376953125 -192.771484375 m 1
 21.0361328125 -193.185546875 20.6875 -193.595703125 20.306640625 -193.97265625 c 0
 20.2255859375 -194.052734375 19.9501953125 -194.23046875 20.001953125 -194.12890625 c 0
 20.15625 -193.830078125 20.4228515625 -193.603515625 20.6328125 -193.33984375 c 0
 20.8642578125 -193.125 21.1376953125 -192.975585938 21.376953125 -192.771484375 c 1
EndSplineSet
EndChar

StartChar: xi
Encoding: 52 958 52
Width: 544
VWidth: 924
GlyphClass: 1
Flags: MW
HStem: 169.23 102.074
LayerCount: 2
Fore
SplineSet
-49.875 876.091796875 m 1
 -100.912109375 870.98828125 l 1
 -116.224609375 845.46875 l 1
 -118.775390625 799.537109375 l 1
 -121.328125 758.70703125 l 1
 -126.431640625 722.98046875 l 1
 -126.431640625 700.013671875 l 1
 -100.912109375 674.49609375 l 1
 -54.98046875 631.115234375 l 1
 -32.013671875 597.94140625 l 1
 11.369140625 562.21484375 l 1
 85.37109375 508.626953125 l 1
 126.201171875 475.453125 l 1
 189.998046875 447.3828125 l 1
 264 404 l 1
 340.556640625 350.412109375 l 1
 386.48828125 322.341796875 l 1
 406.904296875 301.927734375 l 1
 391.591796875 278.9609375 l 1
 345.66015625 271.3046875 l 1
 279.3125 273.857421875 l 1
 179.7890625 266.201171875 l 1
 149.16796875 255.994140625 l 1
 131.3046875 238.130859375 l 1
 136.408203125 212.61328125 l 1
 161.927734375 192.197265625 l 1
 187.4453125 176.88671875 l 1
 228.275390625 169.23046875 l 1
 294.623046875 166.6796875 l 1
 335.453125 161.576171875 l 1
 366.07421875 159.0234375 l 1
 381.384765625 136.056640625 l 1
 371.177734375 115.642578125 l 1
 322.693359375 95.228515625 l 1
 294.623046875 82.46875 l 1
 248.689453125 51.845703125 l 1
 205.30859375 18.671875 l 1
 169.58203125 -14.501953125 l 1
 128.75390625 -57.8828125 l 1
 90.474609375 -101.263671875 l 1
 77.716796875 -134.4375 l 1
 72.61328125 -167.611328125 l 1
 77.716796875 -213.544921875 l 1
 98.130859375 -236.51171875 l 1
 133.857421875 -262.029296875 l 1
 192.548828125 -290.099609375 l 1
 241.033203125 -310.515625 l 1
 281.86328125 -323.2734375 l 1
 355.8671875 -341.13671875 l 1
 414.55859375 -351.34375 l 1
 445.181640625 -369.20703125 l 1
 468.1484375 -374.310546875 l 1
 483.458984375 -387.0703125 l 1
 493.666015625 -404.93359375 l 1
 470.69921875 -422.796875 l 1
 437.525390625 -438.107421875 l 1
 432.421875 -448.314453125 l 1
 440.078125 -468.728515625 l 1
 465.595703125 -484.041015625 l 1
 498.76953125 -484.041015625 l 1
 542.150390625 -473.83203125 l 1
 577.876953125 -453.41796875 l 1
 598.291015625 -420.244140625 l 1
 585.533203125 -374.310546875 l 1
 557.462890625 -351.34375 l 1
 529.392578125 -318.169921875 l 1
 463.044921875 -305.412109375 l 1
 412.0078125 -292.65234375 l 1
 355.8671875 -274.7890625 l 1
 279.3125 -259.478515625 l 1
 230.826171875 -241.615234375 l 1
 200.205078125 -226.3046875 l 1
 174.685546875 -208.44140625 l 1
 172.134765625 -180.37109375 l 1
 187.4453125 -144.64453125 l 1
 218.068359375 -101.263671875 l 1
 279.3125 -50.2265625 l 1
 330.34765625 -19.60546875 l 1
 401.80078125 16.12109375 l 1
 445.181640625 49.294921875 l 1
 498.76953125 77.365234375 l 1
 519.185546875 95.228515625 l 1
 531.943359375 115.642578125 l 1
 531.943359375 153.919921875 l 1
 521.736328125 181.990234375 l 1
 508.9765625 194.75 l 1
 498.76953125 215.1640625 l 1
 516.6328125 238.130859375 l 1
 529.392578125 255.994140625 l 1
 529.392578125 301.927734375 l 1
 498.76953125 345.30859375 l 1
 465.595703125 368.275390625 l 1
 414.55859375 396.345703125 l 1
 353.314453125 434.623046875 l 1
 289.51953125 475.453125 l 1
 243.5859375 518.833984375 l 1
 189.998046875 559.662109375 l 1
 121.09765625 608.1484375 l 1
 64.95703125 651.529296875 l 1
 21.576171875 702.56640625 l 1
 8.81640625 728.083984375 l 1
 1.16015625 779.12109375 l 1
 3.712890625 804.640625 l 1
 -9.046875 863.33203125 l 1
 -49.875 876.091796875 l 1
EndSplineSet
EndChar

StartChar: pi
Encoding: 53 960 53
Width: 852
VWidth: 924
GlyphClass: 1
Flags: MW
HStem: 197.506 98.4863 231.199 64.793 251.932 44.0605
LayerCount: 2
Fore
SplineSet
275.73828125 298.583984375 m 1x20
 179.84375 295.9921875 l 1x20
 102.091796875 295.9921875 l 1x80
 39.888671875 295.9921875 l 1
 -9.35546875 280.44140625 l 1
 -48.23046875 262.298828125 l 1
 -84.515625 251.931640625 l 1x20
 -87.107421875 223.423828125 l 1
 -63.78125 197.505859375 l 1
 -37.86328125 171.587890625 l 1
 -4.171875 156.037109375 l 1
 24.337890625 163.8125 l 1
 60.623046875 189.73046875 l 1
 122.82421875 197.505859375 l 1
 159.109375 197.505859375 l 1x80
 143.55859375 153.4453125 l 1
 135.783203125 109.38671875 l 1
 146.150390625 54.958984375 l 1
 177.251953125 31.6328125 l 1
 231.6796875 0.53125 l 1
 288.697265625 8.306640625 l 1
 340.533203125 31.6328125 l 1
 382 42 l 1
 420.876953125 8.306640625 l 1
 457.162109375 -12.427734375 l 1
 508.998046875 -35.751953125 l 1
 563.423828125 -46.119140625 l 1
 610.076171875 -33.16015625 l 1
 654.134765625 -4.65234375 l 1
 682.64453125 34.224609375 l 1
 700.787109375 75.693359375 l 1
 700.787109375 119.751953125 l 1
 695.603515625 168.99609375 l 1
 690.419921875 194.9140625 l 1
 690.419921875 220.83203125 l 1
 731.888671875 231.19921875 l 1
 783.72265625 228.607421875 l 1
 830.375 231.19921875 l 1x40
 869.251953125 241.56640625 l 1
 908.126953125 251.931640625 l 1
 923.677734375 277.849609375 l 1
 923.677734375 295.9921875 l 1
 871.84375 298.583984375 l 1
 817.416015625 295.9921875 l 1
 744.84765625 293.400390625 l 1
 659.318359375 293.400390625 l 1
 568.607421875 285.625 l 1
 485.671875 285.625 l 1
 376.818359375 285.625 l 1
 275.73828125 298.583984375 l 1x20
498.630859375 215.6484375 m 1
 527.138671875 207.873046875 l 1
 553.056640625 189.73046875 l 1
 584.158203125 158.62890625 l 1
 591.93359375 137.89453125 l 1
 597.1171875 119.751953125 l 1
 597.1171875 88.65234375 l 1
 591.93359375 67.91796875 l 1
 578.974609375 47.18359375 l 1
 553.056640625 36.81640625 l 1
 532.322265625 36.81640625 l 1
 501.22265625 49.775390625 l 1
 477.896484375 73.1015625 l 1
 472.712890625 96.427734375 l 1
 470.12109375 127.52734375 l 1
 472.712890625 158.62890625 l 1
 477.896484375 197.505859375 l 1x80
 498.630859375 215.6484375 l 1
319.798828125 213.056640625 m 1
 343.125 213.056640625 l 1
 358.67578125 202.689453125 l 1
 358.67578125 171.587890625 l 1
 345.716796875 137.89453125 l 1
 322.390625 109.38671875 l 1
 278.330078125 101.611328125 l 1
 262.779296875 111.978515625 l 1
 262.779296875 130.119140625 l 1
 275.73828125 158.62890625 l 1
 291.2890625 194.9140625 l 1
 319.798828125 213.056640625 l 1
EndSplineSet
EndChar

StartChar: rho
Encoding: 54 961 54
Width: 380
VWidth: 924
GlyphClass: 1
Flags: W
LayerCount: 2
Fore
SplineSet
200.0625 355.380859375 m 1
 156.00390625 342.421875 l 1
 119.71875 313.912109375 l 1
 96.392578125 267.26171875 l 1
 78.25 212.833984375 l 1
 54.92578125 135.08203125 l 1
 29.0078125 39.1875 l 1
 13.45703125 -33.3828125 l 1
 5.681640625 -90.40234375 l 1
 13.45703125 -129.27734375 l 1
 31.599609375 -160.37890625 l 1
 54.92578125 -175.9296875 l 1
 93.80078125 -196.6640625 l 1
 135.26953125 -207.03125 l 1
 171.5546875 -207.03125 l 1
 207.837890625 -199.255859375 l 1
 244.123046875 -181.11328125 l 1
 267.44921875 -160.37890625 l 1
 272.6328125 -131.869140625 l 1
 259.673828125 -113.7265625 l 1
 233.755859375 -103.359375 l 1
 192.287109375 -111.134765625 l 1
 153.412109375 -116.318359375 l 1
 132.677734375 -126.685546875 l 1
 109.3515625 -116.318359375 l 1
 104.16796875 -87.810546875 l 1
 106.759765625 -54.1171875 l 1
 119.71875 -15.240234375 l 1
 132.677734375 36.595703125 l 1
 145.63671875 46.9609375 l 1
 181.921875 15.861328125 l 1
 215.61328125 0.310546875 l 1
 259.673828125 -4.873046875 l 1
 306.326171875 23.63671875 l 1
 340.017578125 65.103515625 l 1
 360.751953125 103.98046875 l 1
 368.52734375 179.140625 l 1
 358.16015625 238.751953125 l 1
 332.2421875 287.99609375 l 1
 290.775390625 332.0546875 l 1
 233.755859375 350.197265625 l 1
 200.0625 355.380859375 l 1
238.939453125 246.52734375 m 1
 257.08203125 243.935546875 l 1
 272.6328125 223.201171875 l 1
 283 197.283203125 l 1
 283 161 l 1
 270.041015625 137.673828125 l 1
 251.8984375 114.34765625 l 1
 225.98046875 93.61328125 l 1
 205.24609375 91.021484375 l 1
 200.0625 129.8984375 l 1
 210.4296875 171.3671875 l 1
 215.61328125 192.099609375 l 1
 225.98046875 218.017578125 l 1
 238.939453125 246.52734375 l 1
EndSplineSet
EndChar

StartChar: sigma1
Encoding: 55 962 55
Width: 419
VWidth: 924
GlyphClass: 1
Flags: W
LayerCount: 2
Fore
SplineSet
195.462890625 453.447265625 m 1
 112.92578125 435.50390625 l 1
 62.685546875 396.029296875 l 1
 23.2109375 324.2578125 l 1
 -5.498046875 259.6640625 l 1
 -12.673828125 202.24609375 l 1
 -9.0859375 144.828125 l 1
 26.798828125 73.056640625 l 1
 69.86328125 40.759765625 l 1
 145.22265625 4.873046875 l 1
 209.818359375 1.28515625 l 1
 299.533203125 8.462890625 l 1
 360.5390625 44.34765625 l 1
 371.3046875 80.234375 l 1
 339.0078125 105.353515625 l 1
 278 91 l 1
 231.349609375 87.412109375 l 1
 141.634765625 105.353515625 l 1
 102.16015625 130.474609375 l 1
 98.572265625 191.48046875 l 1
 109.337890625 245.30859375 l 1
 127.279296875 281.1953125 l 1
 148.8125 331.435546875 l 1
 191.875 356.5546875 l 1
 231.349609375 367.3203125 l 1
 281.58984375 327.84765625 l 1
 349.7734375 317.080078125 l 1
 414.3671875 317.080078125 l 1
 425.1328125 349.37890625 l 1
 396.423828125 399.619140625 l 1
 360.5390625 428.328125 l 1
 313.88671875 428.328125 l 1
 263.646484375 453.447265625 l 1
 195.462890625 453.447265625 l 1
EndSplineSet
EndChar

